<?xml version="1.0" encoding="UTF-8"?>
<svg id="Layer_2" data-name="Layer 2" xmlns="http://www.w3.org/2000/svg" viewBox="0 0 600 600">
  <defs>
    <style>
      .cls-1 {
        fill: #db4c40;
      }

      .cls-2 {
        fill: #f3f1e4;
      }
    </style>
  </defs>
  <g id="Layer_1-2" data-name="Layer 1">
    <rect class="cls-1" x="400" y="200" width="200" height="200"/>
    <rect class="cls-1" x="200" y="0" width="200" height="200"/>
    <rect class="cls-1" x="0" y="200" width="200" height="200"/>
    <rect class="cls-1" x="200" y="399.63" width="200" height="200"/>
    <g>
      <rect class="cls-2" x="100" y="500" width="100" height="100" transform="translate(-400 700) rotate(-90)"/>
      <rect class="cls-2" x="0" y="400" width="100" height="100" transform="translate(-400 500) rotate(-90)"/>
      <rect class="cls-2" x="200" y="400" width="100" height="100" transform="translate(-200 700) rotate(-90)"/>
      <rect class="cls-2" x="300" y="500" width="100" height="100" transform="translate(-200 900) rotate(-90)"/>
      <rect class="cls-2" x="400" y="400" width="100" height="100" transform="translate(0 900) rotate(-90)"/>
      <rect class="cls-2" x="500" y="500" width="100" height="100" transform="translate(0 1100) rotate(-90)"/>
      <rect class="cls-2" x="100" y="300" width="100" height="100" transform="translate(-200 500) rotate(-90)"/>
      <rect class="cls-2" x="0" y="200" width="100" height="100" transform="translate(-200 300) rotate(-90)"/>
      <rect class="cls-2" x="200" y="200" width="100" height="100" transform="translate(0 500) rotate(-90)"/>
      <rect class="cls-2" x="300" y="300" width="100" height="100" transform="translate(0 700) rotate(-90)"/>
      <rect class="cls-2" x="400" y="200" width="100" height="100" transform="translate(200 700) rotate(-90)"/>
      <rect class="cls-2" x="500" y="300" width="100" height="100" transform="translate(200 900) rotate(-90)"/>
      <rect class="cls-2" x="100" y="100" width="100" height="100" transform="translate(0 300) rotate(-90)"/>
      <rect class="cls-2" x="0" y="0" width="100" height="100" transform="translate(0 100) rotate(-90)"/>
      <rect class="cls-2" x="200" y="0" width="100" height="100" transform="translate(200 300) rotate(-90)"/>
      <rect class="cls-2" x="300" y="100" width="100" height="100" transform="translate(200 500) rotate(-90)"/>
      <rect class="cls-2" x="400" y="0" width="100" height="100" transform="translate(400 500) rotate(-90)"/>
      <rect class="cls-2" x="500" y="100" width="100" height="100" transform="translate(400 700) rotate(-90)"/>
    </g>
  </g>
</svg>