<?xml version="1.0" encoding="UTF-8"?>
<svg id="Layer_2" data-name="Layer 2" xmlns="http://www.w3.org/2000/svg" viewBox="0 0 600 600">
  <defs>
    <style>
      .cls-1 {
        fill: #db4c40;
      }

      .cls-2 {
        fill: #f3f1e4;
      }
    </style>
  </defs>
  <g id="Layer_1-2" data-name="Layer 1">
    <g>
      <g>
        <rect class="cls-2" x="500" y="400" width="100" height="100" transform="translate(1100 900) rotate(180)"/>
        <rect class="cls-2" x="400" y="500" width="100" height="100" transform="translate(900 1100) rotate(180)"/>
        <rect class="cls-2" x="400" y="300" width="100" height="100" transform="translate(900 700) rotate(180)"/>
        <rect class="cls-2" x="500" y="200" width="100" height="100" transform="translate(1100 500) rotate(180)"/>
        <rect class="cls-2" x="400" y="100" width="100" height="100" transform="translate(900 300) rotate(180)"/>
        <rect class="cls-2" x="500" width="100" height="100" transform="translate(1100 100) rotate(180)"/>
        <rect class="cls-2" x="300" y="400" width="100" height="100" transform="translate(700 900) rotate(180)"/>
        <rect class="cls-2" x="200" y="500" width="100" height="100" transform="translate(500 1100) rotate(180)"/>
        <rect class="cls-2" x="200" y="300" width="100" height="100" transform="translate(500 700) rotate(180)"/>
        <rect class="cls-2" x="300" y="200" width="100" height="100" transform="translate(700 500) rotate(180)"/>
        <rect class="cls-2" x="200" y="100" width="100" height="100" transform="translate(500 300) rotate(180)"/>
        <rect class="cls-2" x="300" width="100" height="100" transform="translate(700 100) rotate(180)"/>
        <rect class="cls-2" x="100" y="400" width="100" height="100" transform="translate(300 900) rotate(180)"/>
        <rect class="cls-2" y="500" width="100" height="100" transform="translate(100 1100) rotate(180)"/>
        <rect class="cls-2" y="300" width="100" height="100" transform="translate(100 700) rotate(180)"/>
        <rect class="cls-2" x="100" y="200" width="100" height="100" transform="translate(300 500) rotate(180)"/>
        <rect class="cls-2" y="100" width="100" height="100" transform="translate(100 300) rotate(180)"/>
        <rect class="cls-2" x="100" width="100" height="100" transform="translate(300 100) rotate(180)"/>
      </g>
      <g>
        <rect class="cls-1" x="200" width="200" height="200"/>
        <rect class="cls-1" x="400" y="200" width="200" height="200"/>
        <rect class="cls-1" x="200" y="400" width="200" height="200"/>
        <rect class="cls-1" y="199.63" width="200" height="200"/>
      </g>
    </g>
  </g>
</svg>