<svg width="22" height="33" viewBox="0 0 22 33" fill="none" xmlns="http://www.w3.org/2000/svg">
<g clip-path="url(#clip0_501_805)">
<path d="M10.1045 0.0331261C15.2748 -0.371272 20.2067 2.92624 21.4476 7.7707C22.1743 10.607 22.1757 22.2113 21.5011 25.085C19.0294 35.6326 2.97249 35.6437 0.497871 25.085C-0.175318 22.2127 -0.173874 10.607 0.551322 7.7707C1.62322 3.58407 5.62191 0.383512 10.1045 0.0331261ZM4.55001 29.1636C10.1349 34.31 19.6708 30.881 20.2515 23.473C20.5448 19.7268 20.5679 13.2052 20.2501 9.47416C19.4165 -0.328339 4.37232 -1.32687 2.00027 8.05184C1.36175 10.5752 1.47732 20.843 1.75757 23.7389C1.94682 25.7041 3.08373 27.8106 4.55145 29.1623L4.55001 29.1636Z" fill="#DB4C40"/>
<path d="M10.9535 6.26961C11.4663 6.26269 12.232 6.71002 12.3808 7.18643C12.5195 7.62961 12.531 11.0379 12.4154 11.5268C12.1251 12.7414 10.1315 12.8909 9.66635 11.729C9.49155 11.2913 9.4641 7.81242 9.58834 7.29307C9.71257 6.77372 10.3959 6.27792 10.9549 6.271L10.9535 6.26961Z" fill="#DB4C40"/>
</g>
<defs>
<clipPath id="clip0_501_805">
<rect width="22" height="33" fill="white"/>
</clipPath>
</defs>
</svg>
