<?xml version="1.0" encoding="UTF-8"?>
<svg id="Layer_2" data-name="Layer 2" xmlns="http://www.w3.org/2000/svg" viewBox="0 0 2000 6150">
  <defs>
    <style>
      .cls-1 {
        fill: #db4c40;
      }

      .cls-2 {
        fill: #1a1a1a;
        stroke: #1a1a1a;
        stroke-miterlimit: 10;
      }
    </style>
  </defs>
  <g id="Layer_2-2" data-name="Layer 2">
    <rect class="cls-1" width="2000" height="2000"/>
    <rect class="cls-1" y="2075" width="2000" height="2000"/>
    <rect class="cls-1" y="4150" width="2000" height="2000"/>
    <g>
      <g>
        <rect class="cls-2" x="300" y="1850" width="100" height="100"/>
        <rect class="cls-2" x="400" y="1850" width="100" height="100"/>
        <rect class="cls-2" x="500" y="1850" width="100" height="100"/>
        <rect class="cls-2" x="600" y="1850" width="100" height="100"/>
        <rect class="cls-2" x="700" y="1850" width="100" height="100"/>
        <rect class="cls-2" x="700" y="1250" width="100" height="100"/>
        <rect class="cls-2" x="800" y="1250" width="100" height="100"/>
        <rect class="cls-2" x="900" y="1250" width="100" height="100"/>
        <rect class="cls-2" x="1000" y="1250" width="100" height="100"/>
        <rect class="cls-2" x="1100" y="1250" width="100" height="100"/>
        <rect class="cls-2" x="1100" y="1850" width="100" height="100"/>
        <rect class="cls-2" x="1200" y="1850" width="100" height="100"/>
        <rect class="cls-2" x="1300" y="1850" width="100" height="100"/>
        <rect class="cls-2" x="1400" y="1850" width="100" height="100"/>
        <rect class="cls-2" x="1500" y="1850" width="100" height="100"/>
        <rect class="cls-2" x="500" y="1750" width="100" height="100"/>
        <rect class="cls-2" x="500" y="1650" width="100" height="100"/>
        <rect class="cls-2" x="500" y="1550" width="100" height="100"/>
        <rect class="cls-2" x="500" y="1450" width="100" height="100"/>
        <rect class="cls-2" x="600" y="1350" width="100" height="100"/>
        <rect class="cls-2" x="600" y="1250" width="100" height="100"/>
        <rect class="cls-2" x="600" y="1150" width="100" height="100"/>
        <rect class="cls-2" x="700" y="1050" width="100" height="100"/>
        <rect class="cls-2" x="700" y="950" width="100" height="100"/>
        <rect class="cls-2" x="700" y="850" width="100" height="100"/>
        <rect class="cls-2" x="800" y="750" width="100" height="100"/>
        <rect class="cls-2" x="800" y="650" width="100" height="100"/>
        <rect class="cls-2" x="800" y="550" width="100" height="100"/>
        <rect class="cls-2" x="1000" y="750" width="100" height="100"/>
        <rect class="cls-2" x="1000" y="650" width="100" height="100"/>
        <rect class="cls-2" x="1000" y="550" width="100" height="100"/>
        <rect class="cls-2" x="1100" y="750" width="100" height="100"/>
        <rect class="cls-2" x="1100" y="650" width="100" height="100"/>
        <rect class="cls-2" x="1100" y="550" width="100" height="100"/>
        <rect class="cls-2" x="1100" y="1050" width="100" height="100"/>
        <rect class="cls-2" x="1100" y="950" width="100" height="100"/>
        <rect class="cls-2" x="1100" y="850" width="100" height="100"/>
        <rect class="cls-2" x="1200" y="1050" width="100" height="100"/>
        <rect class="cls-2" x="1200" y="950" width="100" height="100"/>
        <rect class="cls-2" x="1200" y="850" width="100" height="100"/>
        <rect class="cls-2" x="1200" y="1350" width="100" height="100"/>
        <rect class="cls-2" x="1200" y="1250" width="100" height="100"/>
        <rect class="cls-2" x="1200" y="1150" width="100" height="100"/>
        <rect class="cls-2" x="1300" y="1350" width="100" height="100"/>
        <rect class="cls-2" x="1300" y="1250" width="100" height="100"/>
        <rect class="cls-2" x="1300" y="1150" width="100" height="100"/>
        <rect class="cls-2" x="1300" y="1650" width="100" height="100"/>
        <rect class="cls-2" x="1300" y="1750" width="100" height="100"/>
        <rect class="cls-2" x="1300" y="1550" width="100" height="100"/>
        <rect class="cls-2" x="1300" y="1450" width="100" height="100"/>
        <rect class="cls-2" x="1400" y="1650" width="100" height="100"/>
        <rect class="cls-2" x="1400" y="1750" width="100" height="100"/>
        <rect class="cls-2" x="1400" y="1550" width="100" height="100"/>
        <rect class="cls-2" x="1400" y="1450" width="100" height="100"/>
        <rect class="cls-2" x="900" y="450" width="100" height="100"/>
        <rect class="cls-2" x="900" y="350" width="100" height="100"/>
        <rect class="cls-2" x="900" y="250" width="100" height="100"/>
        <rect class="cls-2" x="1000" y="450" width="100" height="100"/>
        <rect class="cls-2" x="1000" y="350" width="100" height="100"/>
        <rect class="cls-2" x="1000" y="250" width="100" height="100"/>
        <rect class="cls-2" x="1000" y="150" width="100" height="100"/>
      </g>
      <rect class="cls-2" x="1600" y="2475" width="100" height="100"/>
      <rect class="cls-2" x="1600" y="2575" width="100" height="100"/>
      <rect class="cls-2" x="1500" y="2475" width="100" height="100"/>
      <rect class="cls-2" x="1500" y="2375" width="100" height="100"/>
      <rect class="cls-2" x="1400" y="2375" width="100" height="100"/>
      <rect class="cls-2" x="1400" y="2275" width="100" height="100"/>
      <rect class="cls-2" x="1300" y="3875" width="100" height="100"/>
      <rect class="cls-2" x="1200" y="3875" width="100" height="100"/>
      <rect class="cls-2" x="1100" y="3875" width="100" height="100"/>
      <rect class="cls-2" x="1000" y="3875" width="100" height="100"/>
      <rect class="cls-2" x="900" y="3875" width="100" height="100"/>
      <rect class="cls-2" x="800" y="3875" width="100" height="100"/>
      <rect class="cls-2" x="700" y="3875" width="100" height="100"/>
      <rect class="cls-2" x="600" y="3875" width="100" height="100"/>
      <rect class="cls-2" x="500" y="3875" width="100" height="100"/>
      <rect class="cls-2" x="500" y="3775" width="100" height="100"/>
      <rect class="cls-2" x="400" y="3775" width="100" height="100"/>
      <rect class="cls-2" x="400" y="3675" width="100" height="100"/>
      <rect class="cls-2" x="300" y="3675" width="100" height="100"/>
      <rect class="cls-2" x="300" y="3575" width="100" height="100"/>
      <rect class="cls-2" x="400" y="2475" width="100" height="100"/>
      <rect class="cls-2" x="400" y="2375" width="100" height="100"/>
      <rect class="cls-2" x="300" y="2475" width="100" height="100"/>
      <rect class="cls-2" x="300" y="2575" width="100" height="100"/>
      <rect class="cls-2" x="300" y="2675" width="100" height="100"/>
      <rect class="cls-2" x="400" y="2575" width="100" height="100"/>
      <rect class="cls-2" x="400" y="2675" width="100" height="100"/>
      <rect class="cls-2" x="400" y="2775" width="100" height="100"/>
      <rect class="cls-2" x="400" y="2875" width="100" height="100"/>
      <rect class="cls-2" x="300" y="2775" width="100" height="100"/>
      <rect class="cls-2" x="500" y="2875" width="100" height="100"/>
      <rect class="cls-2" x="600" y="2875" width="100" height="100"/>
      <rect class="cls-2" x="500" y="2775" width="100" height="100"/>
      <rect class="cls-2" x="1100" y="3075" width="100" height="100"/>
      <rect class="cls-2" x="500" y="2975" width="100" height="100"/>
      <rect class="cls-2" x="600" y="2975" width="100" height="100"/>
      <rect class="cls-2" x="700" y="2975" width="100" height="100"/>
      <rect class="cls-2" x="800" y="2975" width="100" height="100"/>
      <rect class="cls-2" x="800" y="3075" width="100" height="100"/>
      <rect class="cls-2" x="700" y="3075" width="100" height="100"/>
      <rect class="cls-2" x="1000" y="3175" width="100" height="100"/>
      <rect class="cls-2" x="1100" y="3175" width="100" height="100"/>
      <rect class="cls-2" x="1200" y="3275" width="100" height="100"/>
      <rect class="cls-2" x="1300" y="3375" width="100" height="100"/>
      <rect class="cls-2" x="1300" y="3275" width="100" height="100"/>
      <rect class="cls-2" x="1400" y="3375" width="100" height="100"/>
      <rect class="cls-2" x="1500" y="3475" width="100" height="100"/>
      <rect class="cls-2" x="1500" y="3575" width="100" height="100"/>
      <rect class="cls-2" x="1600" y="3575" width="100" height="100"/>
      <rect class="cls-2" x="1600" y="3475" width="100" height="100"/>
      <rect class="cls-2" x="1600" y="3375" width="100" height="100"/>
      <rect class="cls-2" x="1500" y="3375" width="100" height="100"/>
      <rect class="cls-2" x="1400" y="3275" width="100" height="100"/>
      <rect class="cls-2" x="1200" y="3175" width="100" height="100"/>
      <rect class="cls-2" x="1500" y="3675" width="100" height="100"/>
      <rect class="cls-2" x="1500" y="3775" width="100" height="100"/>
      <rect class="cls-2" x="1600" y="3675" width="100" height="100"/>
      <rect class="cls-2" x="1600" y="3775" width="100" height="100"/>
      <rect class="cls-2" x="1500" y="3875" width="100" height="100"/>
      <rect class="cls-2" x="1400" y="3775" width="100" height="100"/>
      <rect class="cls-2" x="1400" y="3875" width="100" height="100"/>
      <rect class="cls-2" x="1200" y="2275" width="100" height="100"/>
      <rect class="cls-2" x="1100" y="2275" width="100" height="100"/>
      <rect class="cls-2" x="1000" y="2275" width="100" height="100"/>
      <rect class="cls-2" x="900" y="2275" width="100" height="100"/>
      <rect class="cls-2" x="800" y="2275" width="100" height="100"/>
      <rect class="cls-2" x="700" y="2275" width="100" height="100"/>
      <rect class="cls-2" x="600" y="2275" width="100" height="100"/>
      <rect class="cls-2" x="500" y="2275" width="100" height="100"/>
      <rect class="cls-2" x="500" y="2375" width="100" height="100"/>
      <rect class="cls-2" x="1300" y="2275" width="100" height="100"/>
      <rect class="cls-2" x="1100" y="3275" width="100" height="100"/>
      <rect class="cls-2" x="1300" y="3175" width="100" height="100"/>
      <rect class="cls-2" x="900" y="3075" width="100" height="100"/>
      <rect class="cls-2" x="900" y="2975" width="100" height="100"/>
      <rect class="cls-2" x="900" y="3175" width="100" height="100"/>
      <rect class="cls-2" x="1000" y="3075" width="100" height="100"/>
      <rect class="cls-2" x="200" y="5950" width="100" height="100"/>
      <rect class="cls-2" x="300" y="5950" width="100" height="100"/>
      <rect class="cls-2" x="400" y="5950" width="100" height="100"/>
      <rect class="cls-2" x="500" y="5950" width="100" height="100"/>
      <rect class="cls-2" x="600" y="5950" width="100" height="100"/>
      <rect class="cls-2" x="1300" y="5950" width="100" height="100"/>
      <rect class="cls-2" x="1400" y="5950" width="100" height="100"/>
      <rect class="cls-2" x="1500" y="5950" width="100" height="100"/>
      <rect class="cls-2" x="1600" y="5950" width="100" height="100"/>
      <rect class="cls-2" x="1700" y="5950" width="100" height="100"/>
      <rect class="cls-2" x="200" y="4350" width="100" height="100"/>
      <rect class="cls-2" x="300" y="4350" width="100" height="100"/>
      <rect class="cls-2" x="400" y="4350" width="100" height="100"/>
      <rect class="cls-2" x="500" y="4350" width="100" height="100"/>
      <rect class="cls-2" x="600" y="4350" width="100" height="100"/>
      <rect class="cls-2" x="500" y="4450" width="100" height="100"/>
      <rect class="cls-2" x="500" y="4550" width="100" height="100"/>
      <rect class="cls-2" x="500" y="4650" width="100" height="100"/>
      <rect class="cls-2" x="600" y="4450" width="100" height="100"/>
      <rect class="cls-2" x="600" y="4550" width="100" height="100"/>
      <rect class="cls-2" x="600" y="4650" width="100" height="100"/>
      <rect class="cls-2" x="1500" y="4350" width="100" height="100"/>
      <rect class="cls-2" x="1400" y="4350" width="100" height="100"/>
      <rect class="cls-2" x="1600" y="4350" width="100" height="100"/>
      <rect class="cls-2" x="1700" y="4350" width="100" height="100"/>
      <rect class="cls-2" x="1800" y="4350" width="100" height="100"/>
      <rect class="cls-2" x="1500" y="4450" width="100" height="100"/>
      <rect class="cls-2" x="1500" y="4550" width="100" height="100"/>
      <rect class="cls-2" x="1500" y="4650" width="100" height="100"/>
      <rect class="cls-2" x="1600" y="4450" width="100" height="100"/>
      <rect class="cls-2" x="1600" y="4550" width="100" height="100"/>
      <rect class="cls-2" x="1600" y="4650" width="100" height="100"/>
      <rect class="cls-2" x="1500" y="4750" width="100" height="100"/>
      <rect class="cls-2" x="1500" y="4850" width="100" height="100"/>
      <rect class="cls-2" x="1500" y="4950" width="100" height="100"/>
      <rect class="cls-2" x="1600" y="4750" width="100" height="100"/>
      <rect class="cls-2" x="1600" y="4850" width="100" height="100"/>
      <rect class="cls-2" x="1600" y="4950" width="100" height="100"/>
      <rect class="cls-2" x="1500" y="5050" width="100" height="100"/>
      <rect class="cls-2" x="1500" y="5150" width="100" height="100"/>
      <rect class="cls-2" x="1500" y="5250" width="100" height="100"/>
      <rect class="cls-2" x="1600" y="5050" width="100" height="100"/>
      <rect class="cls-2" x="1600" y="5150" width="100" height="100"/>
      <rect class="cls-2" x="1600" y="5250" width="100" height="100"/>
      <rect class="cls-2" x="1500" y="5350" width="100" height="100"/>
      <rect class="cls-2" x="1500" y="5450" width="100" height="100"/>
      <rect class="cls-2" x="1500" y="5550" width="100" height="100"/>
      <rect class="cls-2" x="1600" y="5350" width="100" height="100"/>
      <rect class="cls-2" x="1600" y="5450" width="100" height="100"/>
      <rect class="cls-2" x="1600" y="5550" width="100" height="100"/>
      <rect class="cls-2" x="1500" y="5650" width="100" height="100"/>
      <rect class="cls-2" x="1500" y="5750" width="100" height="100"/>
      <rect class="cls-2" x="1500" y="5850" width="100" height="100"/>
      <rect class="cls-2" x="1600" y="5650" width="100" height="100"/>
      <rect class="cls-2" x="1600" y="5750" width="100" height="100"/>
      <rect class="cls-2" x="1600" y="5850" width="100" height="100"/>
      <rect class="cls-2" x="700" y="4750" width="100" height="100"/>
      <rect class="cls-2" x="700" y="4850" width="100" height="100"/>
      <rect class="cls-2" x="700" y="4950" width="100" height="100"/>
      <rect class="cls-2" x="600" y="4750" width="100" height="100"/>
      <rect class="cls-2" x="600" y="4850" width="100" height="100"/>
      <rect class="cls-2" x="600" y="4950" width="100" height="100"/>
      <rect class="cls-2" x="800" y="5050" width="100" height="100"/>
      <rect class="cls-2" x="800" y="5150" width="100" height="100"/>
      <rect class="cls-2" x="800" y="5250" width="100" height="100"/>
      <rect class="cls-2" x="700" y="5050" width="100" height="100"/>
      <rect class="cls-2" x="700" y="5150" width="100" height="100"/>
      <rect class="cls-2" x="700" y="5250" width="100" height="100"/>
      <rect class="cls-2" x="900" y="5350" width="100" height="100"/>
      <rect class="cls-2" x="900" y="5450" width="100" height="100"/>
      <rect class="cls-2" x="900" y="5550" width="100" height="100"/>
      <rect class="cls-2" x="800" y="5350" width="100" height="100"/>
      <rect class="cls-2" x="800" y="5450" width="100" height="100"/>
      <rect class="cls-2" x="800" y="5550" width="100" height="100"/>
      <rect class="cls-2" x="1000" y="5650" width="100" height="100"/>
      <rect class="cls-2" x="1000" y="5750" width="100" height="100"/>
      <rect class="cls-2" x="1000" y="5850" width="100" height="100"/>
      <rect class="cls-2" x="1100" y="5350" width="100" height="100"/>
      <rect class="cls-2" x="1100" y="5450" width="100" height="100"/>
      <rect class="cls-2" x="1100" y="5550" width="100" height="100"/>
      <rect class="cls-2" x="1200" y="5050" width="100" height="100"/>
      <rect class="cls-2" x="1200" y="5150" width="100" height="100"/>
      <rect class="cls-2" x="1200" y="5250" width="100" height="100"/>
      <rect class="cls-2" x="1300" y="4750" width="100" height="100"/>
      <rect class="cls-2" x="1300" y="4850" width="100" height="100"/>
      <rect class="cls-2" x="1300" y="4950" width="100" height="100"/>
      <rect class="cls-2" x="1400" y="4450" width="100" height="100"/>
      <rect class="cls-2" x="1400" y="4550" width="100" height="100"/>
      <rect class="cls-2" x="1400" y="4650" width="100" height="100"/>
      <rect class="cls-2" x="900" y="5650" width="100" height="100"/>
      <rect class="cls-2" x="900" y="5750" width="100" height="100"/>
      <rect class="cls-2" x="900" y="5850" width="100" height="100"/>
      <rect class="cls-2" x="400" y="5450" width="100" height="100"/>
      <rect class="cls-2" x="400" y="5550" width="100" height="100"/>
      <rect class="cls-2" x="400" y="5650" width="100" height="100"/>
      <rect class="cls-2" x="400" y="5750" width="100" height="100"/>
      <rect class="cls-2" x="400" y="5850" width="100" height="100"/>
      <rect class="cls-2" x="400" y="4950" width="100" height="100"/>
      <rect class="cls-2" x="400" y="5050" width="100" height="100"/>
      <rect class="cls-2" x="400" y="5150" width="100" height="100"/>
      <rect class="cls-2" x="400" y="5250" width="100" height="100"/>
      <rect class="cls-2" x="400" y="5350" width="100" height="100"/>
      <rect class="cls-2" x="400" y="4450" width="100" height="100"/>
      <rect class="cls-2" x="400" y="4550" width="100" height="100"/>
      <rect class="cls-2" x="400" y="4650" width="100" height="100"/>
      <rect class="cls-2" x="400" y="4750" width="100" height="100"/>
      <rect class="cls-2" x="400" y="4850" width="100" height="100"/>
    </g>
  </g>
</svg>