<svg width="1101" height="1100" viewBox="0 0 1101 1100" fill="none" xmlns="http://www.w3.org/2000/svg">
<path d="M1100.06 0H0.0625V1100H1100.06V0Z" fill="#DB4C40"/>
<path d="M500.062 600H400.062V700H500.062V600Z" fill="#F3F1E4"/>
<path d="M500.062 400H400.062V500H500.062V400Z" fill="#F3F1E4"/>
<path d="M700.062 400H600.062V500H700.062V400Z" fill="#F3F1E4"/>
<path d="M700.062 600H600.062V700H700.062V600Z" fill="#F3F1E4"/>
<path d="M587.562 512.5H512.562V587.5H587.562V512.5Z" fill="#F3F1E4"/>
<path d="M200.062 0H0.0625V200H200.062V0Z" fill="#F3F1E4"/>
<path d="M1100.06 0H900.062V200H1100.06V0Z" fill="#F3F1E4"/>
<path d="M1100.06 900H900.062V1100H1100.06V900Z" fill="#F3F1E4"/>
<path d="M200.062 900H0.0625V1100H200.062V900Z" fill="#F3F1E4"/>
<path d="M387.562 712.5H212.562V887.5H387.562V712.5Z" fill="#F3F1E4"/>
<path d="M387.562 212.5H212.562V387.5H387.562V212.5Z" fill="#F3F1E4"/>
<path d="M887.562 212.5H712.562V387.5H887.562V212.5Z" fill="#F3F1E4"/>
<path d="M887.562 712.5H712.562V887.5H887.562V712.5Z" fill="#F3F1E4"/>
</svg>
