<svg width="1101" height="1100" viewBox="0 0 1101 1100" fill="none" xmlns="http://www.w3.org/2000/svg">
<path d="M1100.06 0H0.0625V1100H1100.06V0Z" fill="#DB4C40"/>
<path d="M300.062 800H200.062V900H300.062V800Z" fill="#F3F1E4"/>
<path d="M200.062 900H100.062V1000H200.062V900Z" fill="#F3F1E4"/>
<path d="M100.062 1000H0.0625V1100H100.062V1000Z" fill="#F3F1E4"/>
<path d="M300.062 500H200.062V600H300.062V500Z" fill="#F3F1E4"/>
<path d="M200.062 600H100.062V700H200.062V600Z" fill="#F3F1E4"/>
<path d="M100.062 700H0.0625V800H100.062V700Z" fill="#F3F1E4"/>
<path d="M300.062 200H200.062V300H300.062V200Z" fill="#F3F1E4"/>
<path d="M200.062 300H100.062V400H200.062V300Z" fill="#F3F1E4"/>
<path d="M100.062 400H0.0625V500H100.062V400Z" fill="#F3F1E4"/>
<path d="M100.062 100H0.0625V200H100.062V100Z" fill="#F3F1E4"/>
<path d="M200.062 0H100.062V100H200.062V0Z" fill="#F3F1E4"/>
<path d="M600.062 800H500.062V900H600.062V800Z" fill="#F3F1E4"/>
<path d="M500.062 900H400.062V1000H500.062V900Z" fill="#F3F1E4"/>
<path d="M400.062 1000H300.062V1100H400.062V1000Z" fill="#F3F1E4"/>
<path d="M700.062 400H600.062V500H700.062V400Z" fill="#F3F1E4"/>
<path d="M800.062 600H700.062V700H800.062V600Z" fill="#F3F1E4"/>
<path d="M700.062 700H600.062V800H700.062V700Z" fill="#F3F1E4"/>
<path d="M1000.06 400H900.062V500H1000.06V400Z" fill="#F3F1E4"/>
<path d="M900.062 500H800.062V600H900.062V500Z" fill="#F3F1E4"/>
<path d="M900.062 200H800.062V300H900.062V200Z" fill="#F3F1E4"/>
<path d="M800.062 300H700.062V400H800.062V300Z" fill="#F3F1E4"/>
<path d="M1000.06 100H900.062V200H1000.06V100Z" fill="#F3F1E4"/>
<path d="M1100.06 0H1000.06V100H1100.06V0Z" fill="#F3F1E4"/>
<path d="M1100.06 300H1000.06V400H1100.06V300Z" fill="#F3F1E4"/>
<path d="M900.062 800H800.062V900H900.062V800Z" fill="#F3F1E4"/>
<path d="M800.062 900H700.062V1000H800.062V900Z" fill="#F3F1E4"/>
<path d="M700.062 1000H600.062V1100H700.062V1000Z" fill="#F3F1E4"/>
<path d="M1000.06 1000H900.062V1100H1000.06V1000Z" fill="#F3F1E4"/>
<path d="M1100.06 900H1000.06V1000H1100.06V900Z" fill="#F3F1E4"/>
<path d="M1100.06 600H1000.06V700H1100.06V600Z" fill="#F3F1E4"/>
<path d="M1000.06 700H900.062V800H1000.06V700Z" fill="#F3F1E4"/>
<path d="M600.062 500H500.062V600H600.062V500Z" fill="#F3F1E4"/>
<path d="M500.062 600H400.062V700H500.062V600Z" fill="#F3F1E4"/>
<path d="M400.062 700H300.062V800H400.062V700Z" fill="#F3F1E4"/>
<path d="M600.062 200H500.062V300H600.062V200Z" fill="#F3F1E4"/>
<path d="M500.062 300H400.062V400H500.062V300Z" fill="#F3F1E4"/>
<path d="M800.062 0H700.062V100H800.062V0Z" fill="#F3F1E4"/>
<path d="M700.062 100H600.062V200H700.062V100Z" fill="#F3F1E4"/>
<path d="M400.062 400H300.062V500H400.062V400Z" fill="#F3F1E4"/>
<path d="M500.062 0H400.062V100H500.062V0Z" fill="#F3F1E4"/>
<path d="M400.062 100H300.062V200H400.062V100Z" fill="#F3F1E4"/>
</svg>
