<svg width="1101" height="1101" viewBox="0 0 1101 1101" fill="none" xmlns="http://www.w3.org/2000/svg">
<path d="M1100.06 0.5H0.0625V1100.5H1100.06V0.5Z" fill="#DB4C40"/>
<path d="M100.062 1000.5H0.0625V1100.5H100.062V1000.5Z" fill="#F3F1E4"/>
<path d="M500.062 600.5H300.062V800.5H500.062V600.5Z" fill="#F3F1E4"/>
<path d="M287.562 813H112.562V988H287.562V813Z" fill="#F3F1E4"/>
<path d="M100.062 400.5H0.0625V500.5H100.062V400.5Z" fill="#F3F1E4"/>
<path d="M500.062 0.5H300.062V200.5H500.062V0.5Z" fill="#F3F1E4"/>
<path d="M287.562 213H112.562V388H287.562V213Z" fill="#F3F1E4"/>
<path d="M700.062 1000.5H600.062V1100.5H700.062V1000.5Z" fill="#F3F1E4"/>
<path d="M1100.06 600.5H900.062V800.5H1100.06V600.5Z" fill="#F3F1E4"/>
<path d="M887.562 813H712.562V988H887.562V813Z" fill="#F3F1E4"/>
<path d="M700.062 400.5H600.062V500.5H700.062V400.5Z" fill="#F3F1E4"/>
<path d="M1100.06 0.5H900.062V200.5H1100.06V0.5Z" fill="#F3F1E4"/>
<path d="M887.562 213H712.562V388H887.562V213Z" fill="#F3F1E4"/>
</svg>
