<svg width="280" height="59" viewBox="0 0 280 59" fill="none" xmlns="http://www.w3.org/2000/svg">
<g clip-path="url(#clip0_5_3160)">
<path d="M154.617 49.5505H20.7854V58.9757H154.617V49.5505Z" fill="#EE3C36"/>
<path d="M0 49.5613V54.0025L4.96169 58.9973H20.7854V49.5613H0Z" fill="#EE3C36"/>
<path d="M175.402 49.5424V53.9837C173.747 55.6495 172.095 57.3126 170.441 58.9784C165.165 58.9784 159.892 58.9784 154.617 58.9784V49.5424H175.402Z" fill="#EE3C36"/>
<path d="M195.517 16.9416H177.548V44.2102H195.517V16.9416Z" fill="#EE3C36"/>
<path d="M246.609 36.5156V44.2102H228.573L195.582 11.0019H177.548V0.202515H210.536L246.609 36.5156Z" fill="#EE3C36"/>
<path d="M224.215 0.202498V7.02774L261.054 44.113H280V37.1906L243.123 0.0675049L224.215 0.202498Z" fill="#EE3C36"/>
<path d="M172.184 16.9417V27.7411H160.16L159.978 27.9247L143.69 44.2102H89.0421V33.4108H129.495L145.852 16.9417H172.184Z" fill="#EE3C36"/>
<path d="M172.184 33.4108H158.774V44.2102H172.184V33.4108Z" fill="#EE3C36"/>
<path d="M106.523 11.0019V16.9416H130.077V27.7411H94.4061L89.0421 22.3414V5.60223L94.4061 0.202515H172.184V11.0019H106.523Z" fill="#EE3C36"/>
<path d="M83.6782 33.4108H23.6016V44.2102H83.6782V33.4108Z" fill="#EE3C36"/>
<path d="M83.6782 0.202515V27.7411H65.7088V11.0019H30.3065L17.9693 23.4213V44.2102H0V16.1317L15.8238 0.202515H83.6782Z" fill="#EE3C36"/>
</g>
<defs>
<clipPath id="clip0_5_3160">
<rect width="280" height="59" fill="white"/>
</clipPath>
</defs>
</svg>
