<?xml version="1.0" encoding="UTF-8"?>
<svg id="Layer_2" data-name="Layer 2" xmlns="http://www.w3.org/2000/svg" viewBox="0 0 9901 2013">
  <defs>
    <style>
      .cls-1 {
        fill: #db4c40;
        transition: fill 0.3s ease;
      }
      .cls-1:hover {
        fill: #40dbdb; /* Change to your desired hover color */
      }
    </style>
  </defs>
  <g id="Layer_1-2" data-name="Layer 1">
    <circle class="cls-1" cx="7600" cy="113" r="100"/>
    <circle class="cls-1" cx="7400" cy="113" r="100"/>
    <circle class="cls-1" cx="7200" cy="113" r="100"/>
    <circle class="cls-1" cx="7000" cy="313" r="100"/>
    <circle class="cls-1" cx="7000" cy="113" r="100"/>
    <circle class="cls-1" cx="7800" cy="113" r="100"/>
    <circle class="cls-1" cx="8000" cy="113" r="100"/>
    <circle class="cls-1" cx="8200" cy="113" r="100"/>
    <circle class="cls-1" cx="8400" cy="113" r="100"/>
    <circle class="cls-1" cx="8600" cy="113" r="100"/>
    <circle class="cls-1" cx="8800" cy="113" r="100"/>
    <circle class="cls-1" cx="9000" cy="113" r="100"/>
    <circle class="cls-1" cx="9200" cy="113" r="100"/>
    <circle class="cls-1" cx="7600" cy="313" r="100"/>
    <circle class="cls-1" cx="7400" cy="313" r="100"/>
    <circle class="cls-1" cx="7200" cy="313" r="100"/>
    <circle class="cls-1" cx="7800" cy="313" r="100"/>
    <circle class="cls-1" cx="8000" cy="313" r="100"/>
    <circle class="cls-1" cx="8200" cy="313" r="100"/>
    <circle class="cls-1" cx="8400" cy="313" r="100"/>
    <circle class="cls-1" cx="8600" cy="313" r="100"/>
    <circle class="cls-1" cx="8800" cy="313" r="100"/>
    <circle class="cls-1" cx="9000" cy="313" r="100"/>
    <circle class="cls-1" cx="9200" cy="313" r="100"/>
    <circle class="cls-1" cx="9400" cy="313" r="100"/>
    <circle class="cls-1" cx="9600" cy="313" r="100"/>
    <circle class="cls-1" cx="7000" cy="713" r="100"/>
    <circle class="cls-1" cx="7200" cy="713" r="100"/>
    <circle class="cls-1" cx="7400" cy="713" r="100"/>
    <circle class="cls-1" cx="7000" cy="913" r="100"/>
    <circle class="cls-1" cx="7200" cy="913" r="100"/>
    <circle class="cls-1" cx="7400" cy="913" r="100"/>
    <circle class="cls-1" cx="9400" cy="1113" r="100"/>
    <circle class="cls-1" cx="9600" cy="1113" r="100"/>
    <circle class="cls-1" cx="9800" cy="1113" r="100"/>
    <circle class="cls-1" cx="7000" cy="1113" r="100"/>
    <circle class="cls-1" cx="7200" cy="1113" r="100"/>
    <circle class="cls-1" cx="7400" cy="1113" r="100"/>
    <circle class="cls-1" cx="9400" cy="1513" r="100"/>
    <circle class="cls-1" cx="9600" cy="1513" r="100"/>
    <circle class="cls-1" cx="9800" cy="1513" r="100"/>
    <circle class="cls-1" cx="9401" cy="1313" r="100"/>
    <circle class="cls-1" cx="9601" cy="1313" r="100"/>
    <circle class="cls-1" cx="9801" cy="1313" r="100"/>
    <circle class="cls-1" cx="9401" cy="913" r="100"/>
    <circle class="cls-1" cx="9601" cy="913" r="100"/>
    <circle class="cls-1" cx="9801" cy="913" r="100"/>
    <circle class="cls-1" cx="9400" cy="513" r="100"/>
    <circle class="cls-1" cx="9600" cy="513" r="100"/>
    <circle class="cls-1" cx="9800" cy="513" r="100"/>
    <circle class="cls-1" cx="9400" cy="713" r="100"/>
    <circle class="cls-1" cx="9600" cy="713" r="100"/>
    <circle class="cls-1" cx="9800" cy="713" r="100"/>
    <circle class="cls-1" cx="9400" cy="1713" r="100"/>
    <circle class="cls-1" cx="9600" cy="1713" r="100"/>
    <circle class="cls-1" cx="7200" cy="1713" r="100"/>
    <circle class="cls-1" cx="7400" cy="1713" r="100"/>
    <circle class="cls-1" cx="9400" cy="1913" r="100"/>
    <circle class="cls-1" cx="7400" cy="1913" r="100"/>
    <circle class="cls-1" cx="7000" cy="1913" r="100"/>
    <circle class="cls-1" cx="7200" cy="1913" r="100"/>
    <circle class="cls-1" cx="7000" cy="1713" r="100"/>
    <circle class="cls-1" cx="7000" cy="513" r="100"/>
    <circle class="cls-1" cx="7200" cy="513" r="100"/>
    <circle class="cls-1" cx="7400" cy="513" r="100"/>
    <circle class="cls-1" cx="8200" cy="713" r="100"/>
    <circle class="cls-1" cx="8400" cy="713" r="100"/>
    <circle class="cls-1" cx="8600" cy="713" r="100"/>
    <circle class="cls-1" cx="8200" cy="913" r="100"/>
    <circle class="cls-1" cx="8400" cy="913" r="100"/>
    <circle class="cls-1" cx="8600" cy="913" r="100"/>
    <circle class="cls-1" cx="8200" cy="1113" r="100"/>
    <circle class="cls-1" cx="8400" cy="1113" r="100"/>
    <circle class="cls-1" cx="8600" cy="1113" r="100"/>
    <circle class="cls-1" cx="7000" cy="1301" r="100"/>
    <circle class="cls-1" cx="7200" cy="1301" r="100"/>
    <circle class="cls-1" cx="7400" cy="1301" r="100"/>
    <circle class="cls-1" cx="7000" cy="1501" r="100"/>
    <circle class="cls-1" cx="7200" cy="1501" r="100"/>
    <circle class="cls-1" cx="7400" cy="1501" r="100"/>
    <circle class="cls-1" cx="8200" cy="513" r="100"/>
    <circle class="cls-1" cx="8400" cy="513" r="100"/>
    <circle class="cls-1" cx="8600" cy="513" r="100"/>
    <circle class="cls-1" cx="8200" cy="1513" r="100"/>
    <circle class="cls-1" cx="8400" cy="1513" r="100"/>
    <circle class="cls-1" cx="8600" cy="1513" r="100"/>
    <circle class="cls-1" cx="8200" cy="1713" r="100"/>
    <circle class="cls-1" cx="8400" cy="1713" r="100"/>
    <circle class="cls-1" cx="8600" cy="1713" r="100"/>
    <circle class="cls-1" cx="8200" cy="1913" r="100"/>
    <circle class="cls-1" cx="8400" cy="1913" r="100"/>
    <circle class="cls-1" cx="8600" cy="1913" r="100"/>
    <circle class="cls-1" cx="8200" cy="1313" r="100"/>
    <circle class="cls-1" cx="8400" cy="1313" r="100"/>
    <circle class="cls-1" cx="8600" cy="1313" r="100"/>
    <circle class="cls-1" cx="4100" cy="113" r="100"/>
    <circle class="cls-1" cx="4300" cy="113" r="100"/>
    <circle class="cls-1" cx="4500" cy="113" r="100"/>
    <circle class="cls-1" cx="4700" cy="113" r="100"/>
    <circle class="cls-1" cx="4900" cy="113" r="100"/>
    <circle class="cls-1" cx="5100" cy="113" r="100"/>
    <circle class="cls-1" cx="5300" cy="113" r="100"/>
    <circle class="cls-1" cx="5500" cy="113" r="100"/>
    <circle class="cls-1" cx="5700" cy="113" r="100"/>
    <circle class="cls-1" cx="4100" cy="313" r="100"/>
    <circle class="cls-1" cx="3900" cy="313" r="100"/>
    <circle class="cls-1" cx="3700" cy="313" r="100"/>
    <circle class="cls-1" cx="4300" cy="313" r="100"/>
    <circle class="cls-1" cx="4500" cy="313" r="100"/>
    <circle class="cls-1" cx="4700" cy="313" r="100"/>
    <circle class="cls-1" cx="4900" cy="313" r="100"/>
    <circle class="cls-1" cx="5100" cy="313" r="100"/>
    <circle class="cls-1" cx="5300" cy="313" r="100"/>
    <circle class="cls-1" cx="5500" cy="313" r="100"/>
    <circle class="cls-1" cx="5700" cy="313" r="100"/>
    <circle class="cls-1" cx="5900" cy="313" r="100"/>
    <circle class="cls-1" cx="6100" cy="313" r="100"/>
    <circle class="cls-1" cx="3500" cy="713" r="100"/>
    <circle class="cls-1" cx="3700" cy="713" r="100"/>
    <circle class="cls-1" cx="3900" cy="713" r="100"/>
    <circle class="cls-1" cx="3500" cy="913" r="100"/>
    <circle class="cls-1" cx="3700" cy="913" r="100"/>
    <circle class="cls-1" cx="3900" cy="913" r="100"/>
    <circle class="cls-1" cx="5900" cy="1113" r="100"/>
    <circle class="cls-1" cx="6100" cy="1113" r="100"/>
    <circle class="cls-1" cx="6300" cy="1113" r="100"/>
    <circle class="cls-1" cx="3500" cy="1113" r="100"/>
    <circle class="cls-1" cx="3700" cy="1113" r="100"/>
    <circle class="cls-1" cx="3900" cy="1113" r="100"/>
    <circle class="cls-1" cx="5900" cy="1513" r="100"/>
    <circle class="cls-1" cx="6100" cy="1513" r="100"/>
    <circle class="cls-1" cx="6300" cy="1513" r="100"/>
    <circle class="cls-1" cx="5901" cy="1313" r="100"/>
    <circle class="cls-1" cx="6101" cy="1313" r="100"/>
    <circle class="cls-1" cx="6301" cy="1313" r="100"/>
    <circle class="cls-1" cx="4100" cy="1113" r="100"/>
    <circle class="cls-1" cx="4300" cy="1113" r="100"/>
    <circle class="cls-1" cx="4500" cy="1113" r="100"/>
    <circle class="cls-1" cx="4700" cy="1113" r="100"/>
    <circle class="cls-1" cx="4900" cy="1113" r="100"/>
    <circle class="cls-1" cx="5100" cy="1113" r="100"/>
    <circle class="cls-1" cx="5300" cy="1113" r="100"/>
    <circle class="cls-1" cx="5500" cy="1113" r="100"/>
    <circle class="cls-1" cx="5700" cy="1113" r="100"/>
    <circle class="cls-1" cx="5301" cy="1913" r="100"/>
    <circle class="cls-1" cx="5501" cy="1913" r="100"/>
    <circle class="cls-1" cx="5701" cy="1913" r="100"/>
    <circle class="cls-1" cx="4701" cy="1913" r="100"/>
    <circle class="cls-1" cx="4901" cy="1913" r="100"/>
    <circle class="cls-1" cx="5101" cy="1913" r="100"/>
    <circle class="cls-1" cx="4101" cy="913" r="100"/>
    <circle class="cls-1" cx="4301" cy="913" r="100"/>
    <circle class="cls-1" cx="4501" cy="913" r="100"/>
    <circle class="cls-1" cx="4701" cy="913" r="100"/>
    <circle class="cls-1" cx="4901" cy="913" r="100"/>
    <circle class="cls-1" cx="5101" cy="913" r="100"/>
    <circle class="cls-1" cx="5301" cy="913" r="100"/>
    <circle class="cls-1" cx="5501" cy="913" r="100"/>
    <circle class="cls-1" cx="5701" cy="913" r="100"/>
    <circle class="cls-1" cx="5901" cy="913" r="100"/>
    <circle class="cls-1" cx="6101" cy="913" r="100"/>
    <circle class="cls-1" cx="6301" cy="913" r="100"/>
    <circle class="cls-1" cx="5900" cy="1713" r="100"/>
    <circle class="cls-1" cx="6100" cy="1713" r="100"/>
    <circle class="cls-1" cx="3500" cy="1713" r="100"/>
    <circle class="cls-1" cx="3700" cy="1713" r="100"/>
    <circle class="cls-1" cx="3900" cy="1713" r="100"/>
    <circle class="cls-1" cx="5900" cy="1913" r="100"/>
    <circle class="cls-1" cx="3900" cy="1913" r="100"/>
    <circle class="cls-1" cx="4101" cy="1913" r="100"/>
    <circle class="cls-1" cx="4301" cy="1913" r="100"/>
    <circle class="cls-1" cx="4501" cy="1913" r="100"/>
    <circle class="cls-1" cx="5301" cy="1713" r="100"/>
    <circle class="cls-1" cx="5501" cy="1713" r="100"/>
    <circle class="cls-1" cx="5701" cy="1713" r="100"/>
    <circle class="cls-1" cx="4701" cy="1713" r="100"/>
    <circle class="cls-1" cx="4901" cy="1713" r="100"/>
    <circle class="cls-1" cx="5101" cy="1713" r="100"/>
    <circle class="cls-1" cx="4101" cy="1713" r="100"/>
    <circle class="cls-1" cx="4301" cy="1713" r="100"/>
    <circle class="cls-1" cx="4501" cy="1713" r="100"/>
    <circle class="cls-1" cx="3500" cy="513" r="100"/>
    <circle class="cls-1" cx="3700" cy="513" r="100"/>
    <circle class="cls-1" cx="3900" cy="513" r="100"/>
    <circle class="cls-1" cx="4100" cy="513" r="100"/>
    <circle class="cls-1" cx="700" cy="100" r="100"/>
    <circle class="cls-1" cx="900" cy="100" r="100"/>
    <circle class="cls-1" cx="1100" cy="100" r="100"/>
    <circle class="cls-1" cx="1300" cy="100" r="100"/>
    <circle class="cls-1" cx="1500" cy="100" r="100"/>
    <circle class="cls-1" cx="1700" cy="100" r="100"/>
    <circle class="cls-1" cx="1900" cy="100" r="100"/>
    <circle class="cls-1" cx="2100" cy="100" r="100"/>
    <circle class="cls-1" cx="2300" cy="100" r="100"/>
    <circle class="cls-1" cx="700" cy="300" r="100"/>
    <circle class="cls-1" cx="500" cy="300" r="100"/>
    <circle class="cls-1" cx="300" cy="300" r="100"/>
    <circle class="cls-1" cx="900" cy="300" r="100"/>
    <circle class="cls-1" cx="1100" cy="300" r="100"/>
    <circle class="cls-1" cx="1300" cy="300" r="100"/>
    <circle class="cls-1" cx="1500" cy="300" r="100"/>
    <circle class="cls-1" cx="1700" cy="300" r="100"/>
    <circle class="cls-1" cx="1900" cy="300" r="100"/>
    <circle class="cls-1" cx="2100" cy="300" r="100"/>
    <circle class="cls-1" cx="2300" cy="300" r="100"/>
    <circle class="cls-1" cx="2500" cy="300" r="100"/>
    <circle class="cls-1" cx="2700" cy="300" r="100"/>
    <circle class="cls-1" cx="2300" cy="500" r="100"/>
    <circle class="cls-1" cx="2500" cy="500" r="100"/>
    <circle class="cls-1" cx="2700" cy="500" r="100"/>
    <circle class="cls-1" cx="2900" cy="500" r="100"/>
    <circle class="cls-1" cx="2500" cy="700" r="100"/>
    <circle class="cls-1" cx="2700" cy="700" r="100"/>
    <circle class="cls-1" cx="2900" cy="700" r="100"/>
    <circle class="cls-1" cx="100" cy="700" r="100"/>
    <circle class="cls-1" cx="300" cy="700" r="100"/>
    <circle class="cls-1" cx="500" cy="700" r="100"/>
    <circle class="cls-1" cx="2500" cy="900" r="100"/>
    <circle class="cls-1" cx="2700" cy="900" r="100"/>
    <circle class="cls-1" cx="2900" cy="900" r="100"/>
    <circle class="cls-1" cx="100" cy="900" r="100"/>
    <circle class="cls-1" cx="300" cy="900" r="100"/>
    <circle class="cls-1" cx="500" cy="900" r="100"/>
    <circle class="cls-1" cx="2500" cy="1100" r="100"/>
    <circle class="cls-1" cx="2700" cy="1100" r="100"/>
    <circle class="cls-1" cx="2900" cy="1100" r="100"/>
    <circle class="cls-1" cx="100" cy="1100" r="100"/>
    <circle class="cls-1" cx="300" cy="1100" r="100"/>
    <circle class="cls-1" cx="500" cy="1100" r="100"/>
    <circle class="cls-1" cx="2500" cy="1300" r="100"/>
    <circle class="cls-1" cx="2700" cy="1300" r="100"/>
    <circle class="cls-1" cx="2900" cy="1300" r="100"/>
    <circle class="cls-1" cx="100" cy="1300" r="100"/>
    <circle class="cls-1" cx="300" cy="1300" r="100"/>
    <circle class="cls-1" cx="500" cy="1300" r="100"/>
    <circle class="cls-1" cx="2500" cy="1500" r="100"/>
    <circle class="cls-1" cx="2700" cy="1500" r="100"/>
    <circle class="cls-1" cx="2900" cy="1500" r="100"/>
    <circle class="cls-1" cx="100" cy="1500" r="100"/>
    <circle class="cls-1" cx="300" cy="1500" r="100"/>
    <circle class="cls-1" cx="500" cy="1500" r="100"/>
    <circle class="cls-1" cx="700" cy="1300" r="100"/>
    <circle class="cls-1" cx="900" cy="1300" r="100"/>
    <circle class="cls-1" cx="1100" cy="1300" r="100"/>
    <circle class="cls-1" cx="1300" cy="1300" r="100"/>
    <circle class="cls-1" cx="1500" cy="1300" r="100"/>
    <circle class="cls-1" cx="1700" cy="1300" r="100"/>
    <circle class="cls-1" cx="1900" cy="1300" r="100"/>
    <circle class="cls-1" cx="2100" cy="1300" r="100"/>
    <circle class="cls-1" cx="2300" cy="1300" r="100"/>
    <circle class="cls-1" cx="700" cy="1100" r="100"/>
    <circle class="cls-1" cx="900" cy="1100" r="100"/>
    <circle class="cls-1" cx="1100" cy="1100" r="100"/>
    <circle class="cls-1" cx="1300" cy="1100" r="100"/>
    <circle class="cls-1" cx="1500" cy="1100" r="100"/>
    <circle class="cls-1" cx="1700" cy="1100" r="100"/>
    <circle class="cls-1" cx="1900" cy="1100" r="100"/>
    <circle class="cls-1" cx="2100" cy="1100" r="100"/>
    <circle class="cls-1" cx="2300" cy="1100" r="100"/>
    <circle class="cls-1" cx="2500" cy="1700" r="100"/>
    <circle class="cls-1" cx="2700" cy="1700" r="100"/>
    <circle class="cls-1" cx="2900" cy="1700" r="100"/>
    <circle class="cls-1" cx="100" cy="1700" r="100"/>
    <circle class="cls-1" cx="300" cy="1700" r="100"/>
    <circle class="cls-1" cx="500" cy="1700" r="100"/>
    <circle class="cls-1" cx="2500" cy="1900" r="100"/>
    <circle class="cls-1" cx="2700" cy="1900" r="100"/>
    <circle class="cls-1" cx="2900" cy="1900" r="100"/>
    <circle class="cls-1" cx="100" cy="1900" r="100"/>
    <circle class="cls-1" cx="300" cy="1900" r="100"/>
    <circle class="cls-1" cx="500" cy="1900" r="100"/>
    <circle class="cls-1" cx="112" cy="500" r="100"/>
    <circle class="cls-1" cx="312" cy="500" r="100"/>
    <circle class="cls-1" cx="512" cy="500" r="100"/>
    <circle class="cls-1" cx="712" cy="500" r="100"/>
  </g>
</svg>
