<svg width="10201" height="1962" viewBox="0 0 10201 1962" fill="none" xmlns="http://www.w3.org/2000/svg">
<g clip-path="url(#clip0_519_279)">
<path d="M7732.73 207.608C7789.63 207.608 7835.76 163.971 7835.76 110.141C7835.76 56.312 7789.63 12.6748 7732.73 12.6748C7675.82 12.6748 7629.7 56.312 7629.7 110.141C7629.7 163.971 7675.82 207.608 7732.73 207.608Z" fill="#DB4C40"/>
<path d="M7526.61 207.607C7583.51 207.607 7629.64 163.97 7629.64 110.14C7629.64 56.3111 7583.51 12.6738 7526.61 12.6738C7469.71 12.6738 7423.58 56.3111 7423.58 110.14C7423.58 163.97 7469.71 207.607 7526.61 207.607Z" fill="#DB4C40"/>
<path d="M7320.5 207.608C7377.4 207.608 7423.53 163.971 7423.53 110.141C7423.53 56.312 7377.4 12.6748 7320.5 12.6748C7263.6 12.6748 7217.47 56.312 7217.47 110.141C7217.47 163.971 7263.6 207.608 7320.5 207.608Z" fill="#DB4C40"/>
<path d="M7114.51 402.536C7171.42 402.536 7217.54 358.899 7217.54 305.07C7217.54 251.241 7171.42 207.604 7114.51 207.604C7057.61 207.604 7011.48 251.241 7011.48 305.07C7011.48 358.899 7057.61 402.536 7114.51 402.536Z" fill="#DB4C40"/>
<path d="M7114.51 207.608C7171.42 207.608 7217.54 163.971 7217.54 110.141C7217.54 56.312 7171.42 12.6748 7114.51 12.6748C7057.61 12.6748 7011.48 56.312 7011.48 110.141C7011.48 163.971 7057.61 207.608 7114.51 207.608Z" fill="#DB4C40"/>
<path d="M7938.71 207.608C7995.61 207.608 8041.74 163.971 8041.74 110.141C8041.74 56.312 7995.61 12.6748 7938.71 12.6748C7881.81 12.6748 7835.68 56.312 7835.68 110.141C7835.68 163.971 7881.81 207.608 7938.71 207.608Z" fill="#DB4C40"/>
<path d="M8144.82 207.608C8201.72 207.608 8247.85 163.971 8247.85 110.141C8247.85 56.312 8201.72 12.6748 8144.82 12.6748C8087.92 12.6748 8041.79 56.312 8041.79 110.141C8041.79 163.971 8087.92 207.608 8144.82 207.608Z" fill="#DB4C40"/>
<path d="M8350.81 207.608C8407.71 207.608 8453.84 163.971 8453.84 110.141C8453.84 56.312 8407.71 12.6748 8350.81 12.6748C8293.91 12.6748 8247.78 56.312 8247.78 110.141C8247.78 163.971 8293.91 207.608 8350.81 207.608Z" fill="#DB4C40"/>
<path d="M8556.92 207.608C8613.82 207.608 8659.95 163.971 8659.95 110.141C8659.95 56.312 8613.82 12.6748 8556.92 12.6748C8500.02 12.6748 8453.89 56.312 8453.89 110.141C8453.89 163.971 8500.02 207.608 8556.92 207.608Z" fill="#DB4C40"/>
<path d="M8762.9 207.608C8819.81 207.608 8865.93 163.971 8865.93 110.141C8865.93 56.312 8819.81 12.6748 8762.9 12.6748C8706 12.6748 8659.88 56.312 8659.88 110.141C8659.88 163.971 8706 207.608 8762.9 207.608Z" fill="#DB4C40"/>
<path d="M8969.02 207.607C9025.92 207.607 9072.05 163.97 9072.05 110.14C9072.05 56.3111 9025.92 12.6738 8969.02 12.6738C8912.12 12.6738 8865.99 56.3111 8865.99 110.14C8865.99 163.97 8912.12 207.607 8969.02 207.607Z" fill="#DB4C40"/>
<path d="M9175.13 207.608C9232.03 207.608 9278.16 163.971 9278.16 110.141C9278.16 56.312 9232.03 12.6748 9175.13 12.6748C9118.23 12.6748 9072.1 56.312 9072.1 110.141C9072.1 163.971 9118.23 207.608 9175.13 207.608Z" fill="#DB4C40"/>
<path d="M9381.12 207.608C9438.02 207.608 9484.15 163.971 9484.15 110.141C9484.15 56.312 9438.02 12.6748 9381.12 12.6748C9324.21 12.6748 9278.09 56.312 9278.09 110.141C9278.09 163.971 9324.21 207.608 9381.12 207.608Z" fill="#DB4C40"/>
<path d="M7732.73 402.536C7789.63 402.536 7835.76 358.899 7835.76 305.07C7835.76 251.241 7789.63 207.604 7732.73 207.604C7675.82 207.604 7629.7 251.241 7629.7 305.07C7629.7 358.899 7675.82 402.536 7732.73 402.536Z" fill="#DB4C40"/>
<path d="M7526.61 402.536C7583.51 402.536 7629.64 358.899 7629.64 305.07C7629.64 251.241 7583.51 207.604 7526.61 207.604C7469.71 207.604 7423.58 251.241 7423.58 305.07C7423.58 358.899 7469.71 402.536 7526.61 402.536Z" fill="#DB4C40"/>
<path d="M7320.5 402.536C7377.4 402.536 7423.53 358.899 7423.53 305.07C7423.53 251.241 7377.4 207.604 7320.5 207.604C7263.6 207.604 7217.47 251.241 7217.47 305.07C7217.47 358.899 7263.6 402.536 7320.5 402.536Z" fill="#DB4C40"/>
<path d="M7938.71 402.536C7995.61 402.536 8041.74 358.899 8041.74 305.07C8041.74 251.241 7995.61 207.604 7938.71 207.604C7881.81 207.604 7835.68 251.241 7835.68 305.07C7835.68 358.899 7881.81 402.536 7938.71 402.536Z" fill="#DB4C40"/>
<path d="M8144.82 402.536C8201.72 402.536 8247.85 358.899 8247.85 305.07C8247.85 251.241 8201.72 207.604 8144.82 207.604C8087.92 207.604 8041.79 251.241 8041.79 305.07C8041.79 358.899 8087.92 402.536 8144.82 402.536Z" fill="#DB4C40"/>
<path d="M8350.81 402.537C8407.71 402.537 8453.84 358.9 8453.84 305.071C8453.84 251.242 8407.71 207.604 8350.81 207.604C8293.91 207.604 8247.78 251.242 8247.78 305.071C8247.78 358.9 8293.91 402.537 8350.81 402.537Z" fill="#DB4C40"/>
<path d="M8556.92 402.536C8613.82 402.536 8659.95 358.899 8659.95 305.07C8659.95 251.241 8613.82 207.604 8556.92 207.604C8500.02 207.604 8453.89 251.241 8453.89 305.07C8453.89 358.899 8500.02 402.536 8556.92 402.536Z" fill="#DB4C40"/>
<path d="M8762.9 402.536C8819.81 402.536 8865.93 358.899 8865.93 305.07C8865.93 251.241 8819.81 207.604 8762.9 207.604C8706 207.604 8659.88 251.241 8659.88 305.07C8659.88 358.899 8706 402.536 8762.9 402.536Z" fill="#DB4C40"/>
<path d="M8969.02 402.536C9025.92 402.536 9072.05 358.899 9072.05 305.07C9072.05 251.241 9025.92 207.604 8969.02 207.604C8912.12 207.604 8865.99 251.241 8865.99 305.07C8865.99 358.899 8912.12 402.536 8969.02 402.536Z" fill="#DB4C40"/>
<path d="M9175.13 402.536C9232.03 402.536 9278.16 358.899 9278.16 305.07C9278.16 251.241 9232.03 207.604 9175.13 207.604C9118.23 207.604 9072.1 251.241 9072.1 305.07C9072.1 358.899 9118.23 402.536 9175.13 402.536Z" fill="#DB4C40"/>
<path d="M9381.12 402.536C9438.02 402.536 9484.15 358.899 9484.15 305.07C9484.15 251.241 9438.02 207.604 9381.12 207.604C9324.21 207.604 9278.09 251.241 9278.09 305.07C9278.09 358.899 9324.21 402.536 9381.12 402.536Z" fill="#DB4C40"/>
<path d="M9587.23 402.537C9644.14 402.537 9690.26 358.9 9690.26 305.071C9690.26 251.242 9644.14 207.604 9587.23 207.604C9530.33 207.604 9484.2 251.242 9484.2 305.071C9484.2 358.9 9530.33 402.537 9587.23 402.537Z" fill="#DB4C40"/>
<path d="M9793.21 402.536C9850.12 402.536 9896.24 358.899 9896.24 305.07C9896.24 251.241 9850.12 207.604 9793.21 207.604C9736.31 207.604 9690.18 251.241 9690.18 305.07C9690.18 358.899 9736.31 402.536 9793.21 402.536Z" fill="#DB4C40"/>
<path d="M7114.51 792.407C7171.42 792.407 7217.54 748.769 7217.54 694.94C7217.54 641.111 7171.42 597.474 7114.51 597.474C7057.61 597.474 7011.48 641.111 7011.48 694.94C7011.48 748.769 7057.61 792.407 7114.51 792.407Z" fill="#DB4C40"/>
<path d="M7320.5 792.407C7377.4 792.407 7423.53 748.769 7423.53 694.94C7423.53 641.111 7377.4 597.474 7320.5 597.474C7263.6 597.474 7217.47 641.111 7217.47 694.94C7217.47 748.769 7263.6 792.407 7320.5 792.407Z" fill="#DB4C40"/>
<path d="M7526.61 792.407C7583.51 792.407 7629.64 748.769 7629.64 694.94C7629.64 641.111 7583.51 597.474 7526.61 597.474C7469.71 597.474 7423.58 641.111 7423.58 694.94C7423.58 748.769 7469.71 792.407 7526.61 792.407Z" fill="#DB4C40"/>
<path d="M7114.51 987.335C7171.42 987.335 7217.54 943.698 7217.54 889.868C7217.54 836.039 7171.42 792.402 7114.51 792.402C7057.61 792.402 7011.48 836.039 7011.48 889.868C7011.48 943.698 7057.61 987.335 7114.51 987.335Z" fill="#DB4C40"/>
<path d="M7320.5 987.335C7377.4 987.335 7423.53 943.698 7423.53 889.868C7423.53 836.039 7377.4 792.402 7320.5 792.402C7263.6 792.402 7217.47 836.039 7217.47 889.868C7217.47 943.698 7263.6 987.335 7320.5 987.335Z" fill="#DB4C40"/>
<path d="M7526.61 987.335C7583.51 987.335 7629.64 943.698 7629.64 889.868C7629.64 836.039 7583.51 792.402 7526.61 792.402C7469.71 792.402 7423.58 836.039 7423.58 889.868C7423.58 943.698 7469.71 987.335 7526.61 987.335Z" fill="#DB4C40"/>
<path d="M9587.23 1182.27C9644.14 1182.27 9690.26 1138.63 9690.26 1084.8C9690.26 1030.97 9644.14 987.333 9587.23 987.333C9530.33 987.333 9484.2 1030.97 9484.2 1084.8C9484.2 1138.63 9530.33 1182.27 9587.23 1182.27Z" fill="#DB4C40"/>
<path d="M9793.21 1182.27C9850.12 1182.27 9896.24 1138.63 9896.24 1084.8C9896.24 1030.97 9850.12 987.334 9793.21 987.334C9736.31 987.334 9690.18 1030.97 9690.18 1084.8C9690.18 1138.63 9736.31 1182.27 9793.21 1182.27Z" fill="#DB4C40"/>
<path d="M9999.33 1182.27C10056.2 1182.27 10102.4 1138.63 10102.4 1084.8C10102.4 1030.97 10056.2 987.334 9999.33 987.334C9942.42 987.334 9896.3 1030.97 9896.3 1084.8C9896.3 1138.63 9942.42 1182.27 9999.33 1182.27Z" fill="#DB4C40"/>
<path d="M7114.51 1182.27C7171.42 1182.27 7217.54 1138.63 7217.54 1084.8C7217.54 1030.97 7171.42 987.334 7114.51 987.334C7057.61 987.334 7011.48 1030.97 7011.48 1084.8C7011.48 1138.63 7057.61 1182.27 7114.51 1182.27Z" fill="#DB4C40"/>
<path d="M7320.5 1182.27C7377.4 1182.27 7423.53 1138.63 7423.53 1084.8C7423.53 1030.97 7377.4 987.334 7320.5 987.334C7263.6 987.334 7217.47 1030.97 7217.47 1084.8C7217.47 1138.63 7263.6 1182.27 7320.5 1182.27Z" fill="#DB4C40"/>
<path d="M7526.61 1182.26C7583.51 1182.26 7629.64 1138.63 7629.64 1084.8C7629.64 1030.97 7583.51 987.332 7526.61 987.332C7469.71 987.332 7423.58 1030.97 7423.58 1084.8C7423.58 1138.63 7469.71 1182.26 7526.61 1182.26Z" fill="#DB4C40"/>
<path d="M9587.23 1572.14C9644.14 1572.14 9690.26 1528.5 9690.26 1474.67C9690.26 1420.84 9644.14 1377.2 9587.23 1377.2C9530.33 1377.2 9484.2 1420.84 9484.2 1474.67C9484.2 1528.5 9530.33 1572.14 9587.23 1572.14Z" fill="#DB4C40"/>
<path d="M9793.21 1572.14C9850.12 1572.14 9896.24 1528.5 9896.24 1474.67C9896.24 1420.84 9850.12 1377.2 9793.21 1377.2C9736.31 1377.2 9690.18 1420.84 9690.18 1474.67C9690.18 1528.5 9736.31 1572.14 9793.21 1572.14Z" fill="#DB4C40"/>
<path d="M9999.33 1572.14C10056.2 1572.14 10102.4 1528.5 10102.4 1474.67C10102.4 1420.84 10056.2 1377.2 9999.33 1377.2C9942.42 1377.2 9896.3 1420.84 9896.3 1474.67C9896.3 1528.5 9942.42 1572.14 9999.33 1572.14Z" fill="#DB4C40"/>
<path d="M9588.24 1377.2C9645.15 1377.2 9691.27 1333.57 9691.27 1279.74C9691.27 1225.91 9645.15 1182.27 9588.24 1182.27C9531.34 1182.27 9485.21 1225.91 9485.21 1279.74C9485.21 1333.57 9531.34 1377.2 9588.24 1377.2Z" fill="#DB4C40"/>
<path d="M9794.26 1377.2C9851.16 1377.2 9897.29 1333.57 9897.29 1279.74C9897.29 1225.91 9851.16 1182.27 9794.26 1182.27C9737.36 1182.27 9691.23 1225.91 9691.23 1279.74C9691.23 1333.57 9737.36 1377.2 9794.26 1377.2Z" fill="#DB4C40"/>
<path d="M10000.4 1377.2C10057.3 1377.2 10103.4 1333.57 10103.4 1279.74C10103.4 1225.91 10057.3 1182.27 10000.4 1182.27C9943.47 1182.27 9897.34 1225.91 9897.34 1279.74C9897.34 1333.57 9943.47 1377.2 10000.4 1377.2Z" fill="#DB4C40"/>
<path d="M9588.24 987.335C9645.15 987.335 9691.27 943.698 9691.27 889.868C9691.27 836.039 9645.15 792.402 9588.24 792.402C9531.34 792.402 9485.21 836.039 9485.21 889.868C9485.21 943.698 9531.34 987.335 9588.24 987.335Z" fill="#DB4C40"/>
<path d="M9794.26 987.335C9851.16 987.335 9897.29 943.698 9897.29 889.868C9897.29 836.039 9851.16 792.402 9794.26 792.402C9737.36 792.402 9691.23 836.039 9691.23 889.868C9691.23 943.698 9737.36 987.335 9794.26 987.335Z" fill="#DB4C40"/>
<path d="M10000.4 987.335C10057.3 987.335 10103.4 943.698 10103.4 889.868C10103.4 836.039 10057.3 792.402 10000.4 792.402C9943.47 792.402 9897.34 836.039 9897.34 889.868C9897.34 943.698 9943.47 987.335 10000.4 987.335Z" fill="#DB4C40"/>
<path d="M9587.23 597.467C9644.14 597.467 9690.26 553.829 9690.26 500C9690.26 446.171 9644.14 402.534 9587.23 402.534C9530.33 402.534 9484.2 446.171 9484.2 500C9484.2 553.829 9530.33 597.467 9587.23 597.467Z" fill="#DB4C40"/>
<path d="M9793.21 597.467C9850.12 597.467 9896.24 553.829 9896.24 500C9896.24 446.171 9850.12 402.534 9793.21 402.534C9736.31 402.534 9690.18 446.171 9690.18 500C9690.18 553.829 9736.31 597.467 9793.21 597.467Z" fill="#DB4C40"/>
<path d="M9999.33 597.467C10056.2 597.467 10102.4 553.829 10102.4 500C10102.4 446.171 10056.2 402.534 9999.33 402.534C9942.42 402.534 9896.3 446.171 9896.3 500C9896.3 553.829 9942.42 597.467 9999.33 597.467Z" fill="#DB4C40"/>
<path d="M9587.23 792.406C9644.14 792.406 9690.26 748.768 9690.26 694.939C9690.26 641.11 9644.14 597.473 9587.23 597.473C9530.33 597.473 9484.2 641.11 9484.2 694.939C9484.2 748.768 9530.33 792.406 9587.23 792.406Z" fill="#DB4C40"/>
<path d="M9793.21 792.407C9850.12 792.407 9896.24 748.769 9896.24 694.94C9896.24 641.111 9850.12 597.474 9793.21 597.474C9736.31 597.474 9690.18 641.111 9690.18 694.94C9690.18 748.769 9736.31 792.407 9793.21 792.407Z" fill="#DB4C40"/>
<path d="M9999.33 792.407C10056.2 792.407 10102.4 748.769 10102.4 694.94C10102.4 641.111 10056.2 597.474 9999.33 597.474C9942.42 597.474 9896.3 641.111 9896.3 694.94C9896.3 748.769 9942.42 792.407 9999.33 792.407Z" fill="#DB4C40"/>
<path d="M9587.23 207.608C9644.14 207.608 9690.26 163.971 9690.26 110.141C9690.26 56.312 9644.14 12.6748 9587.23 12.6748C9530.33 12.6748 9484.2 56.312 9484.2 110.141C9484.2 163.971 9530.33 207.608 9587.23 207.608Z" fill="#DB4C40"/>
<path d="M9587.23 1767.06C9644.14 1767.06 9690.26 1723.43 9690.26 1669.6C9690.26 1615.77 9644.14 1572.13 9587.23 1572.13C9530.33 1572.13 9484.2 1615.77 9484.2 1669.6C9484.2 1723.43 9530.33 1767.06 9587.23 1767.06Z" fill="#DB4C40"/>
<path d="M9793.21 1767.07C9850.12 1767.07 9896.24 1723.43 9896.24 1669.6C9896.24 1615.77 9850.12 1572.13 9793.21 1572.13C9736.31 1572.13 9690.18 1615.77 9690.18 1669.6C9690.18 1723.43 9736.31 1767.07 9793.21 1767.07Z" fill="#DB4C40"/>
<path d="M9999.33 1767.07C10056.2 1767.07 10102.4 1723.43 10102.4 1669.6C10102.4 1615.77 10056.2 1572.13 9999.33 1572.13C9942.42 1572.13 9896.3 1615.77 9896.3 1669.6C9896.3 1723.43 9942.42 1767.07 9999.33 1767.07Z" fill="#DB4C40"/>
<path d="M9793.21 1962C9850.12 1962 9896.24 1918.37 9896.24 1864.54C9896.24 1810.71 9850.12 1767.07 9793.21 1767.07C9736.31 1767.07 9690.18 1810.71 9690.18 1864.54C9690.18 1918.37 9736.31 1962 9793.21 1962Z" fill="#DB4C40"/>
<path d="M9999.33 1962C10056.2 1962 10102.4 1918.37 10102.4 1864.54C10102.4 1810.71 10056.2 1767.07 9999.33 1767.07C9942.42 1767.07 9896.3 1810.71 9896.3 1864.54C9896.3 1918.37 9942.42 1962 9999.33 1962Z" fill="#DB4C40"/>
<path d="M7320.5 1767.07C7377.4 1767.07 7423.53 1723.43 7423.53 1669.6C7423.53 1615.77 7377.4 1572.13 7320.5 1572.13C7263.6 1572.13 7217.47 1615.77 7217.47 1669.6C7217.47 1723.43 7263.6 1767.07 7320.5 1767.07Z" fill="#DB4C40"/>
<path d="M7526.61 1767.07C7583.51 1767.07 7629.64 1723.43 7629.64 1669.6C7629.64 1615.77 7583.51 1572.13 7526.61 1572.13C7469.71 1572.13 7423.58 1615.77 7423.58 1669.6C7423.58 1723.43 7469.71 1767.07 7526.61 1767.07Z" fill="#DB4C40"/>
<path d="M9587.23 1962C9644.14 1962 9690.26 1918.37 9690.26 1864.54C9690.26 1810.71 9644.14 1767.07 9587.23 1767.07C9530.33 1767.07 9484.2 1810.71 9484.2 1864.54C9484.2 1918.37 9530.33 1962 9587.23 1962Z" fill="#DB4C40"/>
<path d="M7526.61 1962C7583.51 1962 7629.64 1918.37 7629.64 1864.54C7629.64 1810.71 7583.51 1767.07 7526.61 1767.07C7469.71 1767.07 7423.58 1810.71 7423.58 1864.54C7423.58 1918.37 7469.71 1962 7526.61 1962Z" fill="#DB4C40"/>
<path d="M7114.51 1962C7171.42 1962 7217.54 1918.37 7217.54 1864.54C7217.54 1810.71 7171.42 1767.07 7114.51 1767.07C7057.61 1767.07 7011.48 1810.71 7011.48 1864.54C7011.48 1918.37 7057.61 1962 7114.51 1962Z" fill="#DB4C40"/>
<path d="M7320.5 1962C7377.4 1962 7423.53 1918.37 7423.53 1864.54C7423.53 1810.71 7377.4 1767.07 7320.5 1767.07C7263.6 1767.07 7217.47 1810.71 7217.47 1864.54C7217.47 1918.37 7263.6 1962 7320.5 1962Z" fill="#DB4C40"/>
<path d="M7114.51 1767.07C7171.42 1767.07 7217.54 1723.43 7217.54 1669.6C7217.54 1615.77 7171.42 1572.13 7114.51 1572.13C7057.61 1572.13 7011.48 1615.77 7011.48 1669.6C7011.48 1723.43 7057.61 1767.07 7114.51 1767.07Z" fill="#DB4C40"/>
<path d="M7114.51 597.467C7171.42 597.467 7217.54 553.829 7217.54 500C7217.54 446.171 7171.42 402.534 7114.51 402.534C7057.61 402.534 7011.48 446.171 7011.48 500C7011.48 553.829 7057.61 597.467 7114.51 597.467Z" fill="#DB4C40"/>
<path d="M7320.5 597.467C7377.4 597.467 7423.53 553.829 7423.53 500C7423.53 446.171 7377.4 402.534 7320.5 402.534C7263.6 402.534 7217.47 446.171 7217.47 500C7217.47 553.829 7263.6 597.467 7320.5 597.467Z" fill="#DB4C40"/>
<path d="M7526.61 597.467C7583.51 597.467 7629.64 553.829 7629.64 500C7629.64 446.171 7583.51 402.534 7526.61 402.534C7469.71 402.534 7423.58 446.171 7423.58 500C7423.58 553.829 7469.71 597.467 7526.61 597.467Z" fill="#DB4C40"/>
<path d="M8350.81 792.406C8407.71 792.406 8453.84 748.768 8453.84 694.939C8453.84 641.11 8407.71 597.473 8350.81 597.473C8293.91 597.473 8247.78 641.11 8247.78 694.939C8247.78 748.768 8293.91 792.406 8350.81 792.406Z" fill="#DB4C40"/>
<path d="M8556.92 792.407C8613.82 792.407 8659.95 748.769 8659.95 694.94C8659.95 641.111 8613.82 597.474 8556.92 597.474C8500.02 597.474 8453.89 641.111 8453.89 694.94C8453.89 748.769 8500.02 792.407 8556.92 792.407Z" fill="#DB4C40"/>
<path d="M8762.9 792.407C8819.81 792.407 8865.93 748.769 8865.93 694.94C8865.93 641.111 8819.81 597.474 8762.9 597.474C8706 597.474 8659.88 641.111 8659.88 694.94C8659.88 748.769 8706 792.407 8762.9 792.407Z" fill="#DB4C40"/>
<path d="M8350.81 987.335C8407.71 987.335 8453.84 943.698 8453.84 889.868C8453.84 836.039 8407.71 792.402 8350.81 792.402C8293.91 792.402 8247.78 836.039 8247.78 889.868C8247.78 943.698 8293.91 987.335 8350.81 987.335Z" fill="#DB4C40"/>
<path d="M8556.92 987.335C8613.82 987.335 8659.95 943.698 8659.95 889.868C8659.95 836.039 8613.82 792.402 8556.92 792.402C8500.02 792.402 8453.89 836.039 8453.89 889.868C8453.89 943.698 8500.02 987.335 8556.92 987.335Z" fill="#DB4C40"/>
<path d="M8762.9 987.335C8819.81 987.335 8865.93 943.698 8865.93 889.868C8865.93 836.039 8819.81 792.402 8762.9 792.402C8706 792.402 8659.88 836.039 8659.88 889.868C8659.88 943.698 8706 987.335 8762.9 987.335Z" fill="#DB4C40"/>
<path d="M8350.81 1182.27C8407.71 1182.27 8453.84 1138.63 8453.84 1084.8C8453.84 1030.97 8407.71 987.333 8350.81 987.333C8293.91 987.333 8247.78 1030.97 8247.78 1084.8C8247.78 1138.63 8293.91 1182.27 8350.81 1182.27Z" fill="#DB4C40"/>
<path d="M8556.92 1182.27C8613.82 1182.27 8659.95 1138.63 8659.95 1084.8C8659.95 1030.97 8613.82 987.334 8556.92 987.334C8500.02 987.334 8453.89 1030.97 8453.89 1084.8C8453.89 1138.63 8500.02 1182.27 8556.92 1182.27Z" fill="#DB4C40"/>
<path d="M8762.9 1182.27C8819.81 1182.27 8865.93 1138.63 8865.93 1084.8C8865.93 1030.97 8819.81 987.334 8762.9 987.334C8706 987.334 8659.88 1030.97 8659.88 1084.8C8659.88 1138.63 8706 1182.27 8762.9 1182.27Z" fill="#DB4C40"/>
<path d="M7114.51 1365.5C7171.42 1365.5 7217.54 1321.87 7217.54 1268.04C7217.54 1214.21 7171.42 1170.57 7114.51 1170.57C7057.61 1170.57 7011.48 1214.21 7011.48 1268.04C7011.48 1321.87 7057.61 1365.5 7114.51 1365.5Z" fill="#DB4C40"/>
<path d="M7320.5 1365.5C7377.4 1365.5 7423.53 1321.87 7423.53 1268.04C7423.53 1214.21 7377.4 1170.57 7320.5 1170.57C7263.6 1170.57 7217.47 1214.21 7217.47 1268.04C7217.47 1321.87 7263.6 1365.5 7320.5 1365.5Z" fill="#DB4C40"/>
<path d="M7526.61 1365.5C7583.51 1365.5 7629.64 1321.87 7629.64 1268.04C7629.64 1214.21 7583.51 1170.57 7526.61 1170.57C7469.71 1170.57 7423.58 1214.21 7423.58 1268.04C7423.58 1321.87 7469.71 1365.5 7526.61 1365.5Z" fill="#DB4C40"/>
<path d="M7114.51 1560.44C7171.42 1560.44 7217.54 1516.8 7217.54 1462.97C7217.54 1409.15 7171.42 1365.51 7114.51 1365.51C7057.61 1365.51 7011.48 1409.15 7011.48 1462.97C7011.48 1516.8 7057.61 1560.44 7114.51 1560.44Z" fill="#DB4C40"/>
<path d="M7320.5 1560.44C7377.4 1560.44 7423.53 1516.8 7423.53 1462.97C7423.53 1409.15 7377.4 1365.51 7320.5 1365.51C7263.6 1365.51 7217.47 1409.15 7217.47 1462.97C7217.47 1516.8 7263.6 1560.44 7320.5 1560.44Z" fill="#DB4C40"/>
<path d="M7526.61 1560.44C7583.51 1560.44 7629.64 1516.8 7629.64 1462.97C7629.64 1409.15 7583.51 1365.51 7526.61 1365.51C7469.71 1365.51 7423.58 1409.15 7423.58 1462.97C7423.58 1516.8 7469.71 1560.44 7526.61 1560.44Z" fill="#DB4C40"/>
<path d="M8350.81 597.467C8407.71 597.467 8453.84 553.829 8453.84 500C8453.84 446.171 8407.71 402.534 8350.81 402.534C8293.91 402.534 8247.78 446.171 8247.78 500C8247.78 553.829 8293.91 597.467 8350.81 597.467Z" fill="#DB4C40"/>
<path d="M8556.92 597.467C8613.82 597.467 8659.95 553.829 8659.95 500C8659.95 446.171 8613.82 402.534 8556.92 402.534C8500.02 402.534 8453.89 446.171 8453.89 500C8453.89 553.829 8500.02 597.467 8556.92 597.467Z" fill="#DB4C40"/>
<path d="M8762.9 597.467C8819.81 597.467 8865.93 553.829 8865.93 500C8865.93 446.171 8819.81 402.534 8762.9 402.534C8706 402.534 8659.88 446.171 8659.88 500C8659.88 553.829 8706 597.467 8762.9 597.467Z" fill="#DB4C40"/>
<path d="M8350.81 1572.14C8407.71 1572.14 8453.84 1528.5 8453.84 1474.67C8453.84 1420.84 8407.71 1377.2 8350.81 1377.2C8293.91 1377.2 8247.78 1420.84 8247.78 1474.67C8247.78 1528.5 8293.91 1572.14 8350.81 1572.14Z" fill="#DB4C40"/>
<path d="M8556.92 1572.14C8613.82 1572.14 8659.95 1528.5 8659.95 1474.67C8659.95 1420.84 8613.82 1377.2 8556.92 1377.2C8500.02 1377.2 8453.89 1420.84 8453.89 1474.67C8453.89 1528.5 8500.02 1572.14 8556.92 1572.14Z" fill="#DB4C40"/>
<path d="M8762.9 1572.14C8819.81 1572.14 8865.93 1528.5 8865.93 1474.67C8865.93 1420.84 8819.81 1377.2 8762.9 1377.2C8706 1377.2 8659.88 1420.84 8659.88 1474.67C8659.88 1528.5 8706 1572.14 8762.9 1572.14Z" fill="#DB4C40"/>
<path d="M8350.81 1767.06C8407.71 1767.06 8453.84 1723.43 8453.84 1669.6C8453.84 1615.77 8407.71 1572.13 8350.81 1572.13C8293.91 1572.13 8247.78 1615.77 8247.78 1669.6C8247.78 1723.43 8293.91 1767.06 8350.81 1767.06Z" fill="#DB4C40"/>
<path d="M8556.92 1767.07C8613.82 1767.07 8659.95 1723.43 8659.95 1669.6C8659.95 1615.77 8613.82 1572.13 8556.92 1572.13C8500.02 1572.13 8453.89 1615.77 8453.89 1669.6C8453.89 1723.43 8500.02 1767.07 8556.92 1767.07Z" fill="#DB4C40"/>
<path d="M8762.9 1767.07C8819.81 1767.07 8865.93 1723.43 8865.93 1669.6C8865.93 1615.77 8819.81 1572.13 8762.9 1572.13C8706 1572.13 8659.88 1615.77 8659.88 1669.6C8659.88 1723.43 8706 1767.07 8762.9 1767.07Z" fill="#DB4C40"/>
<path d="M8350.81 1962C8407.71 1962 8453.84 1918.37 8453.84 1864.54C8453.84 1810.71 8407.71 1767.07 8350.81 1767.07C8293.91 1767.07 8247.78 1810.71 8247.78 1864.54C8247.78 1918.37 8293.91 1962 8350.81 1962Z" fill="#DB4C40"/>
<path d="M8556.92 1962C8613.82 1962 8659.95 1918.37 8659.95 1864.54C8659.95 1810.71 8613.82 1767.07 8556.92 1767.07C8500.02 1767.07 8453.89 1810.71 8453.89 1864.54C8453.89 1918.37 8500.02 1962 8556.92 1962Z" fill="#DB4C40"/>
<path d="M8762.9 1962C8819.81 1962 8865.93 1918.37 8865.93 1864.54C8865.93 1810.71 8819.81 1767.07 8762.9 1767.07C8706 1767.07 8659.88 1810.71 8659.88 1864.54C8659.88 1918.37 8706 1962 8762.9 1962Z" fill="#DB4C40"/>
<path d="M8350.81 1377.2C8407.71 1377.2 8453.84 1333.57 8453.84 1279.74C8453.84 1225.91 8407.71 1182.27 8350.81 1182.27C8293.91 1182.27 8247.78 1225.91 8247.78 1279.74C8247.78 1333.57 8293.91 1377.2 8350.81 1377.2Z" fill="#DB4C40"/>
<path d="M8556.92 1377.2C8613.82 1377.2 8659.95 1333.57 8659.95 1279.74C8659.95 1225.91 8613.82 1182.27 8556.92 1182.27C8500.02 1182.27 8453.89 1225.91 8453.89 1279.74C8453.89 1333.57 8500.02 1377.2 8556.92 1377.2Z" fill="#DB4C40"/>
<path d="M8762.9 1377.2C8819.81 1377.2 8865.93 1333.57 8865.93 1279.74C8865.93 1225.91 8819.81 1182.27 8762.9 1182.27C8706 1182.27 8659.88 1225.91 8659.88 1279.74C8659.88 1333.57 8706 1377.2 8762.9 1377.2Z" fill="#DB4C40"/>
<path d="M4224.3 207.603C4281.2 207.603 4327.33 163.966 4327.33 110.136C4327.33 56.3071 4281.2 12.6699 4224.3 12.6699C4167.4 12.6699 4121.27 56.3071 4121.27 110.136C4121.27 163.966 4167.4 207.603 4224.3 207.603Z" fill="#DB4C40"/>
<path d="M4430.28 207.603C4487.19 207.603 4533.31 163.966 4533.31 110.136C4533.31 56.3071 4487.19 12.6699 4430.28 12.6699C4373.38 12.6699 4327.25 56.3071 4327.25 110.136C4327.25 163.966 4373.38 207.603 4430.28 207.603Z" fill="#DB4C40"/>
<path d="M4636.4 207.603C4693.3 207.603 4739.43 163.966 4739.43 110.136C4739.43 56.3071 4693.3 12.6699 4636.4 12.6699C4579.5 12.6699 4533.37 56.3071 4533.37 110.136C4533.37 163.966 4579.5 207.603 4636.4 207.603Z" fill="#DB4C40"/>
<path d="M4842.38 207.603C4899.28 207.603 4945.41 163.966 4945.41 110.136C4945.41 56.3071 4899.28 12.6699 4842.38 12.6699C4785.48 12.6699 4739.35 56.3071 4739.35 110.136C4739.35 163.966 4785.48 207.603 4842.38 207.603Z" fill="#DB4C40"/>
<path d="M5048.49 207.603C5105.4 207.603 5151.52 163.966 5151.52 110.136C5151.52 56.3071 5105.4 12.6699 5048.49 12.6699C4991.59 12.6699 4945.46 56.3071 4945.46 110.136C4945.46 163.966 4991.59 207.603 5048.49 207.603Z" fill="#DB4C40"/>
<path d="M5254.48 207.603C5311.38 207.603 5357.51 163.966 5357.51 110.136C5357.51 56.3071 5311.38 12.6699 5254.48 12.6699C5197.57 12.6699 5151.45 56.3071 5151.45 110.136C5151.45 163.966 5197.57 207.603 5254.48 207.603Z" fill="#DB4C40"/>
<path d="M5460.59 207.604C5517.49 207.604 5563.62 163.967 5563.62 110.137C5563.62 56.3081 5517.49 12.6709 5460.59 12.6709C5403.69 12.6709 5357.56 56.3081 5357.56 110.137C5357.56 163.967 5403.69 207.604 5460.59 207.604Z" fill="#DB4C40"/>
<path d="M5666.71 207.603C5723.61 207.603 5769.74 163.966 5769.74 110.136C5769.74 56.3071 5723.61 12.6699 5666.71 12.6699C5609.8 12.6699 5563.68 56.3071 5563.68 110.136C5563.68 163.966 5609.8 207.603 5666.71 207.603Z" fill="#DB4C40"/>
<path d="M5872.69 207.603C5929.59 207.603 5975.72 163.966 5975.72 110.136C5975.72 56.3071 5929.59 12.6699 5872.69 12.6699C5815.79 12.6699 5769.66 56.3071 5769.66 110.136C5769.66 163.966 5815.79 207.603 5872.69 207.603Z" fill="#DB4C40"/>
<path d="M6078.8 207.603C6135.71 207.603 6181.83 163.966 6181.83 110.136C6181.83 56.3071 6135.71 12.6699 6078.8 12.6699C6021.9 12.6699 5975.77 56.3071 5975.77 110.136C5975.77 163.966 6021.9 207.603 6078.8 207.603Z" fill="#DB4C40"/>
<path d="M6284.79 207.605C6341.69 207.605 6387.82 163.968 6387.82 110.138C6387.82 56.3091 6341.69 12.6719 6284.79 12.6719C6227.89 12.6719 6181.76 56.3091 6181.76 110.138C6181.76 163.968 6227.89 207.605 6284.79 207.605Z" fill="#DB4C40"/>
<path d="M6493.55 207.613C6550.46 207.613 6596.58 163.976 6596.58 110.147C6596.58 56.3174 6550.46 12.6802 6493.55 12.6802C6436.65 12.6802 6390.52 56.3174 6390.52 110.147C6390.52 163.976 6436.65 207.613 6493.55 207.613Z" fill="#DB4C40"/>
<path d="M4224.3 402.536C4281.2 402.536 4327.33 358.899 4327.33 305.07C4327.33 251.241 4281.2 207.604 4224.3 207.604C4167.4 207.604 4121.27 251.241 4121.27 305.07C4121.27 358.899 4167.4 402.536 4224.3 402.536Z" fill="#DB4C40"/>
<path d="M4018.19 402.536C4075.09 402.536 4121.22 358.899 4121.22 305.07C4121.22 251.241 4075.09 207.604 4018.19 207.604C3961.28 207.604 3915.16 251.241 3915.16 305.07C3915.16 358.899 3961.28 402.536 4018.19 402.536Z" fill="#DB4C40"/>
<path d="M4018.12 207.608C4075.02 207.608 4121.15 163.971 4121.15 110.141C4121.15 56.312 4075.02 12.6748 4018.12 12.6748C3961.22 12.6748 3915.09 56.312 3915.09 110.141C3915.09 163.971 3961.22 207.608 4018.12 207.608Z" fill="#DB4C40"/>
<path d="M3812.07 402.536C3868.97 402.536 3915.1 358.899 3915.1 305.07C3915.1 251.241 3868.97 207.604 3812.07 207.604C3755.17 207.604 3709.04 251.241 3709.04 305.07C3709.04 358.899 3755.17 402.536 3812.07 402.536Z" fill="#DB4C40"/>
<path d="M4430.28 402.536C4487.19 402.536 4533.31 358.899 4533.31 305.07C4533.31 251.241 4487.19 207.604 4430.28 207.604C4373.38 207.604 4327.25 251.241 4327.25 305.07C4327.25 358.899 4373.38 402.536 4430.28 402.536Z" fill="#DB4C40"/>
<path d="M4636.4 402.536C4693.3 402.536 4739.43 358.899 4739.43 305.07C4739.43 251.241 4693.3 207.604 4636.4 207.604C4579.5 207.604 4533.37 251.241 4533.37 305.07C4533.37 358.899 4579.5 402.536 4636.4 402.536Z" fill="#DB4C40"/>
<path d="M4842.38 402.536C4899.28 402.536 4945.41 358.899 4945.41 305.07C4945.41 251.241 4899.28 207.604 4842.38 207.604C4785.48 207.604 4739.35 251.241 4739.35 305.07C4739.35 358.899 4785.48 402.536 4842.38 402.536Z" fill="#DB4C40"/>
<path d="M5048.49 402.536C5105.4 402.536 5151.52 358.899 5151.52 305.07C5151.52 251.241 5105.4 207.604 5048.49 207.604C4991.59 207.604 4945.46 251.241 4945.46 305.07C4945.46 358.899 4991.59 402.536 5048.49 402.536Z" fill="#DB4C40"/>
<path d="M5254.48 402.536C5311.38 402.536 5357.51 358.899 5357.51 305.07C5357.51 251.241 5311.38 207.604 5254.48 207.604C5197.57 207.604 5151.45 251.241 5151.45 305.07C5151.45 358.899 5197.57 402.536 5254.48 402.536Z" fill="#DB4C40"/>
<path d="M5460.59 402.536C5517.49 402.536 5563.62 358.899 5563.62 305.07C5563.62 251.241 5517.49 207.604 5460.59 207.604C5403.69 207.604 5357.56 251.241 5357.56 305.07C5357.56 358.899 5403.69 402.536 5460.59 402.536Z" fill="#DB4C40"/>
<path d="M5666.71 402.536C5723.61 402.536 5769.74 358.899 5769.74 305.07C5769.74 251.241 5723.61 207.604 5666.71 207.604C5609.8 207.604 5563.68 251.241 5563.68 305.07C5563.68 358.899 5609.8 402.536 5666.71 402.536Z" fill="#DB4C40"/>
<path d="M5872.69 402.536C5929.59 402.536 5975.72 358.899 5975.72 305.07C5975.72 251.241 5929.59 207.604 5872.69 207.604C5815.79 207.604 5769.66 251.241 5769.66 305.07C5769.66 358.899 5815.79 402.536 5872.69 402.536Z" fill="#DB4C40"/>
<path d="M6078.8 402.537C6135.71 402.537 6181.83 358.9 6181.83 305.071C6181.83 251.242 6135.71 207.604 6078.8 207.604C6021.9 207.604 5975.77 251.242 5975.77 305.071C5975.77 358.9 6021.9 402.537 6078.8 402.537Z" fill="#DB4C40"/>
<path d="M6284.79 402.536C6341.69 402.536 6387.82 358.899 6387.82 305.07C6387.82 251.241 6341.69 207.604 6284.79 207.604C6227.89 207.604 6181.76 251.241 6181.76 305.07C6181.76 358.899 6227.89 402.536 6284.79 402.536Z" fill="#DB4C40"/>
<path d="M6493.55 402.545C6550.46 402.545 6596.58 358.908 6596.58 305.078C6596.58 251.249 6550.46 207.612 6493.55 207.612C6436.65 207.612 6390.52 251.249 6390.52 305.078C6390.52 358.908 6436.65 402.545 6493.55 402.545Z" fill="#DB4C40"/>
<path d="M3606.09 792.403C3662.99 792.403 3709.12 748.765 3709.12 694.936C3709.12 641.107 3662.99 597.47 3606.09 597.47C3549.19 597.47 3503.06 641.107 3503.06 694.936C3503.06 748.765 3549.19 792.403 3606.09 792.403Z" fill="#DB4C40"/>
<path d="M3812.07 792.403C3868.97 792.403 3915.1 748.765 3915.1 694.936C3915.1 641.107 3868.97 597.47 3812.07 597.47C3755.17 597.47 3709.04 641.107 3709.04 694.936C3709.04 748.765 3755.17 792.403 3812.07 792.403Z" fill="#DB4C40"/>
<path d="M4018.19 792.403C4075.09 792.403 4121.22 748.765 4121.22 694.936C4121.22 641.107 4075.09 597.47 4018.19 597.47C3961.28 597.47 3915.16 641.107 3915.16 694.936C3915.16 748.765 3961.28 792.403 4018.19 792.403Z" fill="#DB4C40"/>
<path d="M3606.09 987.335C3662.99 987.335 3709.12 943.698 3709.12 889.868C3709.12 836.039 3662.99 792.402 3606.09 792.402C3549.19 792.402 3503.06 836.039 3503.06 889.868C3503.06 943.698 3549.19 987.335 3606.09 987.335Z" fill="#DB4C40"/>
<path d="M3812.07 987.335C3868.97 987.335 3915.1 943.698 3915.1 889.868C3915.1 836.039 3868.97 792.402 3812.07 792.402C3755.17 792.402 3709.04 836.039 3709.04 889.868C3709.04 943.698 3755.17 987.335 3812.07 987.335Z" fill="#DB4C40"/>
<path d="M4018.19 987.335C4075.09 987.335 4121.22 943.698 4121.22 889.868C4121.22 836.039 4075.09 792.402 4018.19 792.402C3961.28 792.402 3915.16 836.039 3915.16 889.868C3915.16 943.698 3961.28 987.335 4018.19 987.335Z" fill="#DB4C40"/>
<path d="M6078.8 1182.27C6135.71 1182.27 6181.83 1138.63 6181.83 1084.8C6181.83 1030.97 6135.71 987.335 6078.8 987.335C6021.9 987.335 5975.77 1030.97 5975.77 1084.8C5975.77 1138.63 6021.9 1182.27 6078.8 1182.27Z" fill="#DB4C40"/>
<path d="M6284.79 1182.27C6341.69 1182.27 6387.82 1138.63 6387.82 1084.8C6387.82 1030.97 6341.69 987.334 6284.79 987.334C6227.89 987.334 6181.76 1030.97 6181.76 1084.8C6181.76 1138.63 6227.89 1182.27 6284.79 1182.27Z" fill="#DB4C40"/>
<path d="M6490.9 1182.27C6547.8 1182.27 6593.93 1138.63 6593.93 1084.8C6593.93 1030.97 6547.8 987.334 6490.9 987.334C6434 987.334 6387.87 1030.97 6387.87 1084.8C6387.87 1138.63 6434 1182.27 6490.9 1182.27Z" fill="#DB4C40"/>
<path d="M3606.09 1182.27C3662.99 1182.27 3709.12 1138.63 3709.12 1084.8C3709.12 1030.97 3662.99 987.334 3606.09 987.334C3549.19 987.334 3503.06 1030.97 3503.06 1084.8C3503.06 1138.63 3549.19 1182.27 3606.09 1182.27Z" fill="#DB4C40"/>
<path d="M3812.07 1182.27C3868.97 1182.27 3915.1 1138.63 3915.1 1084.8C3915.1 1030.97 3868.97 987.334 3812.07 987.334C3755.17 987.334 3709.04 1030.97 3709.04 1084.8C3709.04 1138.63 3755.17 1182.27 3812.07 1182.27Z" fill="#DB4C40"/>
<path d="M4018.19 1182.27C4075.09 1182.27 4121.22 1138.63 4121.22 1084.8C4121.22 1030.97 4075.09 987.336 4018.19 987.336C3961.28 987.336 3915.16 1030.97 3915.16 1084.8C3915.16 1138.63 3961.28 1182.27 4018.19 1182.27Z" fill="#DB4C40"/>
<path d="M6078.8 1572.13C6135.71 1572.13 6181.83 1528.5 6181.83 1474.67C6181.83 1420.84 6135.71 1377.2 6078.8 1377.2C6021.9 1377.2 5975.77 1420.84 5975.77 1474.67C5975.77 1528.5 6021.9 1572.13 6078.8 1572.13Z" fill="#DB4C40"/>
<path d="M6284.79 1572.13C6341.69 1572.13 6387.82 1528.5 6387.82 1474.67C6387.82 1420.84 6341.69 1377.2 6284.79 1377.2C6227.89 1377.2 6181.76 1420.84 6181.76 1474.67C6181.76 1528.5 6227.89 1572.13 6284.79 1572.13Z" fill="#DB4C40"/>
<path d="M6490.9 1572.13C6547.8 1572.13 6593.93 1528.5 6593.93 1474.67C6593.93 1420.84 6547.8 1377.2 6490.9 1377.2C6434 1377.2 6387.87 1420.84 6387.87 1474.67C6387.87 1528.5 6434 1572.13 6490.9 1572.13Z" fill="#DB4C40"/>
<path d="M6079.85 1377.2C6136.75 1377.2 6182.88 1333.56 6182.88 1279.73C6182.88 1225.91 6136.75 1182.27 6079.85 1182.27C6022.95 1182.27 5976.82 1225.91 5976.82 1279.73C5976.82 1333.56 6022.95 1377.2 6079.85 1377.2Z" fill="#DB4C40"/>
<path d="M6285.83 1377.2C6342.74 1377.2 6388.86 1333.56 6388.86 1279.73C6388.86 1225.91 6342.74 1182.27 6285.83 1182.27C6228.93 1182.27 6182.8 1225.91 6182.8 1279.73C6182.8 1333.56 6228.93 1377.2 6285.83 1377.2Z" fill="#DB4C40"/>
<path d="M6491.95 1377.2C6548.85 1377.2 6594.98 1333.56 6594.98 1279.73C6594.98 1225.91 6548.85 1182.27 6491.95 1182.27C6435.05 1182.27 6388.92 1225.91 6388.92 1279.73C6388.92 1333.56 6435.05 1377.2 6491.95 1377.2Z" fill="#DB4C40"/>
<path d="M4224.3 1182.27C4281.2 1182.27 4327.33 1138.63 4327.33 1084.8C4327.33 1030.97 4281.2 987.334 4224.3 987.334C4167.4 987.334 4121.27 1030.97 4121.27 1084.8C4121.27 1138.63 4167.4 1182.27 4224.3 1182.27Z" fill="#DB4C40"/>
<path d="M4430.28 1182.27C4487.19 1182.27 4533.31 1138.63 4533.31 1084.8C4533.31 1030.97 4487.19 987.334 4430.28 987.334C4373.38 987.334 4327.25 1030.97 4327.25 1084.8C4327.25 1138.63 4373.38 1182.27 4430.28 1182.27Z" fill="#DB4C40"/>
<path d="M4636.4 1182.27C4693.3 1182.27 4739.43 1138.63 4739.43 1084.8C4739.43 1030.97 4693.3 987.334 4636.4 987.334C4579.5 987.334 4533.37 1030.97 4533.37 1084.8C4533.37 1138.63 4579.5 1182.27 4636.4 1182.27Z" fill="#DB4C40"/>
<path d="M4842.38 1182.27C4899.28 1182.27 4945.41 1138.63 4945.41 1084.8C4945.41 1030.97 4899.28 987.334 4842.38 987.334C4785.48 987.334 4739.35 1030.97 4739.35 1084.8C4739.35 1138.63 4785.48 1182.27 4842.38 1182.27Z" fill="#DB4C40"/>
<path d="M5048.49 1182.27C5105.4 1182.27 5151.52 1138.63 5151.52 1084.8C5151.52 1030.97 5105.4 987.334 5048.49 987.334C4991.59 987.334 4945.46 1030.97 4945.46 1084.8C4945.46 1138.63 4991.59 1182.27 5048.49 1182.27Z" fill="#DB4C40"/>
<path d="M5254.48 1182.27C5311.38 1182.27 5357.51 1138.63 5357.51 1084.8C5357.51 1030.97 5311.38 987.334 5254.48 987.334C5197.57 987.334 5151.45 1030.97 5151.45 1084.8C5151.45 1138.63 5197.57 1182.27 5254.48 1182.27Z" fill="#DB4C40"/>
<path d="M5460.59 1182.27C5517.49 1182.27 5563.62 1138.63 5563.62 1084.8C5563.62 1030.97 5517.49 987.336 5460.59 987.336C5403.69 987.336 5357.56 1030.97 5357.56 1084.8C5357.56 1138.63 5403.69 1182.27 5460.59 1182.27Z" fill="#DB4C40"/>
<path d="M5666.71 1182.27C5723.61 1182.27 5769.74 1138.63 5769.74 1084.8C5769.74 1030.97 5723.61 987.334 5666.71 987.334C5609.8 987.334 5563.68 1030.97 5563.68 1084.8C5563.68 1138.63 5609.8 1182.27 5666.71 1182.27Z" fill="#DB4C40"/>
<path d="M5872.69 1182.27C5929.59 1182.27 5975.72 1138.63 5975.72 1084.8C5975.72 1030.97 5929.59 987.334 5872.69 987.334C5815.79 987.334 5769.66 1030.97 5769.66 1084.8C5769.66 1138.63 5815.79 1182.27 5872.69 1182.27Z" fill="#DB4C40"/>
<path d="M5461.61 1962C5518.51 1962 5564.64 1918.36 5564.64 1864.53C5564.64 1810.7 5518.51 1767.07 5461.61 1767.07C5404.71 1767.07 5358.58 1810.7 5358.58 1864.53C5358.58 1918.36 5404.71 1962 5461.61 1962Z" fill="#DB4C40"/>
<path d="M5667.72 1962C5724.62 1962 5770.75 1918.36 5770.75 1864.53C5770.75 1810.7 5724.62 1767.07 5667.72 1767.07C5610.82 1767.07 5564.69 1810.7 5564.69 1864.53C5564.69 1918.36 5610.82 1962 5667.72 1962Z" fill="#DB4C40"/>
<path d="M5873.74 1962C5930.64 1962 5976.77 1918.36 5976.77 1864.53C5976.77 1810.7 5930.64 1767.07 5873.74 1767.07C5816.84 1767.07 5770.71 1810.7 5770.71 1864.53C5770.71 1918.36 5816.84 1962 5873.74 1962Z" fill="#DB4C40"/>
<path d="M4843.43 1962C4900.33 1962 4946.46 1918.36 4946.46 1864.53C4946.46 1810.7 4900.33 1767.07 4843.43 1767.07C4786.53 1767.07 4740.4 1810.7 4740.4 1864.53C4740.4 1918.36 4786.53 1962 4843.43 1962Z" fill="#DB4C40"/>
<path d="M5049.51 1962C5106.41 1962 5152.54 1918.36 5152.54 1864.53C5152.54 1810.7 5106.41 1767.07 5049.51 1767.07C4992.61 1767.07 4946.48 1810.7 4946.48 1864.53C4946.48 1918.36 4992.61 1962 5049.51 1962Z" fill="#DB4C40"/>
<path d="M5255.53 1962C5312.43 1962 5358.56 1918.36 5358.56 1864.53C5358.56 1810.7 5312.43 1767.07 5255.53 1767.07C5198.62 1767.07 5152.5 1810.7 5152.5 1864.53C5152.5 1918.36 5198.62 1962 5255.53 1962Z" fill="#DB4C40"/>
<path d="M4225.32 987.335C4282.22 987.335 4328.35 943.698 4328.35 889.868C4328.35 836.039 4282.22 792.402 4225.32 792.402C4168.41 792.402 4122.29 836.039 4122.29 889.868C4122.29 943.698 4168.41 987.335 4225.32 987.335Z" fill="#DB4C40"/>
<path d="M4431.3 987.335C4488.2 987.335 4534.33 943.698 4534.33 889.868C4534.33 836.039 4488.2 792.402 4431.3 792.402C4374.39 792.402 4328.27 836.039 4328.27 889.868C4328.27 943.698 4374.39 987.335 4431.3 987.335Z" fill="#DB4C40"/>
<path d="M4637.41 987.335C4694.31 987.335 4740.44 943.698 4740.44 889.868C4740.44 836.039 4694.31 792.402 4637.41 792.402C4580.51 792.402 4534.38 836.039 4534.38 889.868C4534.38 943.698 4580.51 987.335 4637.41 987.335Z" fill="#DB4C40"/>
<path d="M4843.43 987.335C4900.33 987.335 4946.46 943.698 4946.46 889.868C4946.46 836.039 4900.33 792.402 4843.43 792.402C4786.53 792.402 4740.4 836.039 4740.4 889.868C4740.4 943.698 4786.53 987.335 4843.43 987.335Z" fill="#DB4C40"/>
<path d="M5049.51 987.335C5106.41 987.335 5152.54 943.698 5152.54 889.868C5152.54 836.039 5106.41 792.402 5049.51 792.402C4992.61 792.402 4946.48 836.039 4946.48 889.868C4946.48 943.698 4992.61 987.335 5049.51 987.335Z" fill="#DB4C40"/>
<path d="M5255.53 987.335C5312.43 987.335 5358.56 943.698 5358.56 889.868C5358.56 836.039 5312.43 792.402 5255.53 792.402C5198.62 792.402 5152.5 836.039 5152.5 889.868C5152.5 943.698 5198.62 987.335 5255.53 987.335Z" fill="#DB4C40"/>
<path d="M5461.61 987.335C5518.51 987.335 5564.64 943.698 5564.64 889.868C5564.64 836.039 5518.51 792.402 5461.61 792.402C5404.71 792.402 5358.58 836.039 5358.58 889.868C5358.58 943.698 5404.71 987.335 5461.61 987.335Z" fill="#DB4C40"/>
<path d="M5667.72 987.335C5724.62 987.335 5770.75 943.698 5770.75 889.868C5770.75 836.039 5724.62 792.402 5667.72 792.402C5610.82 792.402 5564.69 836.039 5564.69 889.868C5564.69 943.698 5610.82 987.335 5667.72 987.335Z" fill="#DB4C40"/>
<path d="M5873.74 987.335C5930.64 987.335 5976.77 943.698 5976.77 889.868C5976.77 836.039 5930.64 792.402 5873.74 792.402C5816.84 792.402 5770.71 836.039 5770.71 889.868C5770.71 943.698 5816.84 987.335 5873.74 987.335Z" fill="#DB4C40"/>
<path d="M6079.85 987.335C6136.75 987.335 6182.88 943.698 6182.88 889.868C6182.88 836.039 6136.75 792.402 6079.85 792.402C6022.95 792.402 5976.82 836.039 5976.82 889.868C5976.82 943.698 6022.95 987.335 6079.85 987.335Z" fill="#DB4C40"/>
<path d="M6285.83 987.335C6342.74 987.335 6388.86 943.698 6388.86 889.868C6388.86 836.039 6342.74 792.402 6285.83 792.402C6228.93 792.402 6182.8 836.039 6182.8 889.868C6182.8 943.698 6228.93 987.335 6285.83 987.335Z" fill="#DB4C40"/>
<path d="M6491.95 987.335C6548.85 987.335 6594.98 943.698 6594.98 889.868C6594.98 836.039 6548.85 792.402 6491.95 792.402C6435.05 792.402 6388.92 836.039 6388.92 889.868C6388.92 943.698 6435.05 987.335 6491.95 987.335Z" fill="#DB4C40"/>
<path d="M6078.8 1767.07C6135.71 1767.07 6181.83 1723.43 6181.83 1669.6C6181.83 1615.77 6135.71 1572.13 6078.8 1572.13C6021.9 1572.13 5975.77 1615.77 5975.77 1669.6C5975.77 1723.43 6021.9 1767.07 6078.8 1767.07Z" fill="#DB4C40"/>
<path d="M6284.79 1767.07C6341.69 1767.07 6387.82 1723.43 6387.82 1669.6C6387.82 1615.77 6341.69 1572.13 6284.79 1572.13C6227.89 1572.13 6181.76 1615.77 6181.76 1669.6C6181.76 1723.43 6227.89 1767.07 6284.79 1767.07Z" fill="#DB4C40"/>
<path d="M3606.09 1767.07C3662.99 1767.07 3709.12 1723.43 3709.12 1669.6C3709.12 1615.77 3662.99 1572.13 3606.09 1572.13C3549.19 1572.13 3503.06 1615.77 3503.06 1669.6C3503.06 1723.43 3549.19 1767.07 3606.09 1767.07Z" fill="#DB4C40"/>
<path d="M3812.07 1767.07C3868.97 1767.07 3915.1 1723.43 3915.1 1669.6C3915.1 1615.77 3868.97 1572.13 3812.07 1572.13C3755.17 1572.13 3709.04 1615.77 3709.04 1669.6C3709.04 1723.43 3755.17 1767.07 3812.07 1767.07Z" fill="#DB4C40"/>
<path d="M4018.19 1767.07C4075.09 1767.07 4121.22 1723.43 4121.22 1669.6C4121.22 1615.77 4075.09 1572.13 4018.19 1572.13C3961.28 1572.13 3915.16 1615.77 3915.16 1669.6C3915.16 1723.43 3961.28 1767.07 4018.19 1767.07Z" fill="#DB4C40"/>
<path d="M6078.8 1962C6135.71 1962 6181.83 1918.36 6181.83 1864.53C6181.83 1810.7 6135.71 1767.07 6078.8 1767.07C6021.9 1767.07 5975.77 1810.7 5975.77 1864.53C5975.77 1918.36 6021.9 1962 6078.8 1962Z" fill="#DB4C40"/>
<path d="M4018.19 1962C4075.09 1962 4121.22 1918.36 4121.22 1864.53C4121.22 1810.7 4075.09 1767.07 4018.19 1767.07C3961.28 1767.07 3915.16 1810.7 3915.16 1864.53C3915.16 1918.36 3961.28 1962 4018.19 1962Z" fill="#DB4C40"/>
<path d="M3812.07 1962C3868.97 1962 3915.1 1918.36 3915.1 1864.53C3915.1 1810.7 3868.97 1767.07 3812.07 1767.07C3755.17 1767.07 3709.04 1810.7 3709.04 1864.53C3709.04 1918.36 3755.17 1962 3812.07 1962Z" fill="#DB4C40"/>
<path d="M3606.09 1962C3662.99 1962 3709.12 1918.36 3709.12 1864.53C3709.12 1810.7 3662.99 1767.07 3606.09 1767.07C3549.19 1767.07 3503.06 1810.7 3503.06 1864.53C3503.06 1918.36 3549.19 1962 3606.09 1962Z" fill="#DB4C40"/>
<path d="M4225.32 1962C4282.22 1962 4328.35 1918.36 4328.35 1864.53C4328.35 1810.7 4282.22 1767.07 4225.32 1767.07C4168.41 1767.07 4122.29 1810.7 4122.29 1864.53C4122.29 1918.36 4168.41 1962 4225.32 1962Z" fill="#DB4C40"/>
<path d="M4431.3 1962C4488.2 1962 4534.33 1918.36 4534.33 1864.53C4534.33 1810.7 4488.2 1767.07 4431.3 1767.07C4374.39 1767.07 4328.27 1810.7 4328.27 1864.53C4328.27 1918.36 4374.39 1962 4431.3 1962Z" fill="#DB4C40"/>
<path d="M4637.41 1962C4694.31 1962 4740.44 1918.36 4740.44 1864.53C4740.44 1810.7 4694.31 1767.07 4637.41 1767.07C4580.51 1767.07 4534.38 1810.7 4534.38 1864.53C4534.38 1918.36 4580.51 1962 4637.41 1962Z" fill="#DB4C40"/>
<path d="M5461.61 1767.07C5518.51 1767.07 5564.64 1723.43 5564.64 1669.6C5564.64 1615.77 5518.51 1572.13 5461.61 1572.13C5404.71 1572.13 5358.58 1615.77 5358.58 1669.6C5358.58 1723.43 5404.71 1767.07 5461.61 1767.07Z" fill="#DB4C40"/>
<path d="M5667.72 1767.07C5724.62 1767.07 5770.75 1723.43 5770.75 1669.6C5770.75 1615.77 5724.62 1572.13 5667.72 1572.13C5610.82 1572.13 5564.69 1615.77 5564.69 1669.6C5564.69 1723.43 5610.82 1767.07 5667.72 1767.07Z" fill="#DB4C40"/>
<path d="M5873.74 1767.07C5930.64 1767.07 5976.77 1723.43 5976.77 1669.6C5976.77 1615.77 5930.64 1572.13 5873.74 1572.13C5816.84 1572.13 5770.71 1615.77 5770.71 1669.6C5770.71 1723.43 5816.84 1767.07 5873.74 1767.07Z" fill="#DB4C40"/>
<path d="M4843.43 1767.07C4900.33 1767.07 4946.46 1723.43 4946.46 1669.6C4946.46 1615.77 4900.33 1572.13 4843.43 1572.13C4786.53 1572.13 4740.4 1615.77 4740.4 1669.6C4740.4 1723.43 4786.53 1767.07 4843.43 1767.07Z" fill="#DB4C40"/>
<path d="M5049.51 1767.07C5106.41 1767.07 5152.54 1723.43 5152.54 1669.6C5152.54 1615.77 5106.41 1572.13 5049.51 1572.13C4992.61 1572.13 4946.48 1615.77 4946.48 1669.6C4946.48 1723.43 4992.61 1767.07 5049.51 1767.07Z" fill="#DB4C40"/>
<path d="M5255.53 1767.07C5312.43 1767.07 5358.56 1723.43 5358.56 1669.6C5358.56 1615.77 5312.43 1572.13 5255.53 1572.13C5198.62 1572.13 5152.5 1615.77 5152.5 1669.6C5152.5 1723.43 5198.62 1767.07 5255.53 1767.07Z" fill="#DB4C40"/>
<path d="M4225.32 1767.07C4282.22 1767.07 4328.35 1723.43 4328.35 1669.6C4328.35 1615.77 4282.22 1572.13 4225.32 1572.13C4168.41 1572.13 4122.29 1615.77 4122.29 1669.6C4122.29 1723.43 4168.41 1767.07 4225.32 1767.07Z" fill="#DB4C40"/>
<path d="M4431.3 1767.07C4488.2 1767.07 4534.33 1723.43 4534.33 1669.6C4534.33 1615.77 4488.2 1572.13 4431.3 1572.13C4374.39 1572.13 4328.27 1615.77 4328.27 1669.6C4328.27 1723.43 4374.39 1767.07 4431.3 1767.07Z" fill="#DB4C40"/>
<path d="M4637.41 1767.07C4694.31 1767.07 4740.44 1723.43 4740.44 1669.6C4740.44 1615.77 4694.31 1572.13 4637.41 1572.13C4580.51 1572.13 4534.38 1615.77 4534.38 1669.6C4534.38 1723.43 4580.51 1767.07 4637.41 1767.07Z" fill="#DB4C40"/>
<path d="M3606.09 597.471C3662.99 597.471 3709.12 553.833 3709.12 500.004C3709.12 446.175 3662.99 402.538 3606.09 402.538C3549.19 402.538 3503.06 446.175 3503.06 500.004C3503.06 553.833 3549.19 597.471 3606.09 597.471Z" fill="#DB4C40"/>
<path d="M3812.07 597.471C3868.97 597.471 3915.1 553.833 3915.1 500.004C3915.1 446.175 3868.97 402.538 3812.07 402.538C3755.17 402.538 3709.04 446.175 3709.04 500.004C3709.04 553.833 3755.17 597.471 3812.07 597.471Z" fill="#DB4C40"/>
<path d="M4018.19 597.469C4075.09 597.469 4121.22 553.831 4121.22 500.002C4121.22 446.173 4075.09 402.536 4018.19 402.536C3961.28 402.536 3915.16 446.173 3915.16 500.002C3915.16 553.831 3961.28 597.469 4018.19 597.469Z" fill="#DB4C40"/>
<path d="M721.241 194.933C778.143 194.933 824.271 151.296 824.271 97.4665C824.271 43.6372 778.143 0 721.241 0C664.339 0 618.211 43.6372 618.211 97.4665C618.211 151.296 664.339 194.933 721.241 194.933Z" fill="#DB4C40"/>
<path d="M927.225 194.933C984.127 194.933 1030.26 151.296 1030.26 97.4665C1030.26 43.6372 984.127 0 927.225 0C870.323 0 824.195 43.6372 824.195 97.4665C824.195 151.296 870.323 194.933 927.225 194.933Z" fill="#DB4C40"/>
<path d="M1133.34 194.933C1190.24 194.933 1236.37 151.296 1236.37 97.4665C1236.37 43.6372 1190.24 0 1133.34 0C1076.44 0 1030.31 43.6372 1030.31 97.4665C1030.31 151.296 1076.44 194.933 1133.34 194.933Z" fill="#DB4C40"/>
<path d="M1339.32 194.933C1396.22 194.933 1442.35 151.296 1442.35 97.4665C1442.35 43.6372 1396.22 0 1339.32 0C1282.42 0 1236.29 43.6372 1236.29 97.4665C1236.29 151.296 1282.42 194.933 1339.32 194.933Z" fill="#DB4C40"/>
<path d="M1545.44 194.933C1602.34 194.933 1648.47 151.296 1648.47 97.4665C1648.47 43.6372 1602.34 0 1545.44 0C1488.53 0 1442.41 43.6372 1442.41 97.4665C1442.41 151.296 1488.53 194.933 1545.44 194.933Z" fill="#DB4C40"/>
<path d="M1751.55 194.933C1808.45 194.933 1854.58 151.296 1854.58 97.4665C1854.58 43.6372 1808.45 0 1751.55 0C1694.65 0 1648.52 43.6372 1648.52 97.4665C1648.52 151.296 1694.65 194.933 1751.55 194.933Z" fill="#DB4C40"/>
<path d="M1957.53 194.933C2014.44 194.933 2060.56 151.296 2060.56 97.4665C2060.56 43.6372 2014.44 0 1957.53 0C1900.63 0 1854.5 43.6372 1854.5 97.4665C1854.5 151.296 1900.63 194.933 1957.53 194.933Z" fill="#DB4C40"/>
<path d="M2163.65 194.933C2220.55 194.933 2266.68 151.296 2266.68 97.4665C2266.68 43.6372 2220.55 0 2163.65 0C2106.75 0 2060.62 43.6372 2060.62 97.4665C2060.62 151.296 2106.75 194.933 2163.65 194.933Z" fill="#DB4C40"/>
<path d="M2369.66 194.933C2426.56 194.933 2472.69 151.296 2472.69 97.4665C2472.69 43.6372 2426.56 0 2369.66 0C2312.76 0 2266.63 43.6372 2266.63 97.4665C2266.63 151.296 2312.76 194.933 2369.66 194.933Z" fill="#DB4C40"/>
<path d="M721.241 389.866C778.143 389.866 824.271 346.228 824.271 292.399C824.271 238.57 778.143 194.933 721.241 194.933C664.339 194.933 618.211 238.57 618.211 292.399C618.211 346.228 664.339 389.866 721.241 389.866Z" fill="#DB4C40"/>
<path d="M515.128 389.866C572.03 389.866 618.158 346.228 618.158 292.399C618.158 238.57 572.03 194.933 515.128 194.933C458.226 194.933 412.098 238.57 412.098 292.399C412.098 346.228 458.226 389.866 515.128 389.866Z" fill="#DB4C40"/>
<path d="M309.143 389.866C366.045 389.866 412.173 346.228 412.173 292.399C412.173 238.57 366.045 194.933 309.143 194.933C252.241 194.933 206.113 238.57 206.113 292.399C206.113 346.228 252.241 389.866 309.143 389.866Z" fill="#DB4C40"/>
<path d="M927.225 389.866C984.127 389.866 1030.26 346.228 1030.26 292.399C1030.26 238.57 984.127 194.933 927.225 194.933C870.323 194.933 824.195 238.57 824.195 292.399C824.195 346.228 870.323 389.866 927.225 389.866Z" fill="#DB4C40"/>
<path d="M1133.34 389.866C1190.24 389.866 1236.37 346.228 1236.37 292.399C1236.37 238.57 1190.24 194.933 1133.34 194.933C1076.44 194.933 1030.31 238.57 1030.31 292.399C1030.31 346.228 1076.44 389.866 1133.34 389.866Z" fill="#DB4C40"/>
<path d="M1339.32 389.866C1396.22 389.866 1442.35 346.228 1442.35 292.399C1442.35 238.57 1396.22 194.933 1339.32 194.933C1282.42 194.933 1236.29 238.57 1236.29 292.399C1236.29 346.228 1282.42 389.866 1339.32 389.866Z" fill="#DB4C40"/>
<path d="M1545.44 389.866C1602.34 389.866 1648.47 346.228 1648.47 292.399C1648.47 238.57 1602.34 194.933 1545.44 194.933C1488.53 194.933 1442.41 238.57 1442.41 292.399C1442.41 346.228 1488.53 389.866 1545.44 389.866Z" fill="#DB4C40"/>
<path d="M1751.55 389.866C1808.45 389.866 1854.58 346.228 1854.58 292.399C1854.58 238.57 1808.45 194.933 1751.55 194.933C1694.65 194.933 1648.52 238.57 1648.52 292.399C1648.52 346.228 1694.65 389.866 1751.55 389.866Z" fill="#DB4C40"/>
<path d="M1957.53 389.866C2014.44 389.866 2060.56 346.228 2060.56 292.399C2060.56 238.57 2014.44 194.933 1957.53 194.933C1900.63 194.933 1854.5 238.57 1854.5 292.399C1854.5 346.228 1900.63 389.866 1957.53 389.866Z" fill="#DB4C40"/>
<path d="M2163.65 389.866C2220.55 389.866 2266.68 346.228 2266.68 292.399C2266.68 238.57 2220.55 194.933 2163.65 194.933C2106.75 194.933 2060.62 238.57 2060.62 292.399C2060.62 346.228 2106.75 389.866 2163.65 389.866Z" fill="#DB4C40"/>
<path d="M2369.66 389.866C2426.56 389.866 2472.69 346.228 2472.69 292.399C2472.69 238.57 2426.56 194.933 2369.66 194.933C2312.76 194.933 2266.63 238.57 2266.63 292.399C2266.63 346.228 2312.76 389.866 2369.66 389.866Z" fill="#DB4C40"/>
<path d="M2575.74 389.866C2632.65 389.866 2678.77 346.228 2678.77 292.399C2678.77 238.57 2632.65 194.933 2575.74 194.933C2518.84 194.933 2472.71 238.57 2472.71 292.399C2472.71 346.228 2518.84 389.866 2575.74 389.866Z" fill="#DB4C40"/>
<path d="M2781.76 389.866C2838.66 389.866 2884.79 346.228 2884.79 292.399C2884.79 238.57 2838.66 194.933 2781.76 194.933C2724.86 194.933 2678.73 238.57 2678.73 292.399C2678.73 346.228 2724.86 389.866 2781.76 389.866Z" fill="#DB4C40"/>
<path d="M2369.66 584.798C2426.56 584.798 2472.69 541.16 2472.69 487.331C2472.69 433.502 2426.56 389.865 2369.66 389.865C2312.76 389.865 2266.63 433.502 2266.63 487.331C2266.63 541.16 2312.76 584.798 2369.66 584.798Z" fill="#DB4C40"/>
<path d="M2575.74 584.798C2632.65 584.798 2678.77 541.16 2678.77 487.331C2678.77 433.502 2632.65 389.865 2575.74 389.865C2518.84 389.865 2472.71 433.502 2472.71 487.331C2472.71 541.16 2518.84 584.798 2575.74 584.798Z" fill="#DB4C40"/>
<path d="M2781.76 584.798C2838.66 584.798 2884.79 541.16 2884.79 487.331C2884.79 433.502 2838.66 389.865 2781.76 389.865C2724.86 389.865 2678.73 433.502 2678.73 487.331C2678.73 541.16 2724.86 584.798 2781.76 584.798Z" fill="#DB4C40"/>
<path d="M2987.87 584.8C3044.78 584.8 3090.9 541.162 3090.9 487.333C3090.9 433.504 3044.78 389.867 2987.87 389.867C2930.97 389.867 2884.84 433.504 2884.84 487.333C2884.84 541.162 2930.97 584.8 2987.87 584.8Z" fill="#DB4C40"/>
<path d="M2575.74 779.732C2632.65 779.732 2678.77 736.095 2678.77 682.265C2678.77 628.436 2632.65 584.799 2575.74 584.799C2518.84 584.799 2472.71 628.436 2472.71 682.265C2472.71 736.095 2518.84 779.732 2575.74 779.732Z" fill="#DB4C40"/>
<path d="M2781.76 779.732C2838.66 779.732 2884.79 736.095 2884.79 682.265C2884.79 628.436 2838.66 584.799 2781.76 584.799C2724.86 584.799 2678.73 628.436 2678.73 682.265C2678.73 736.095 2724.86 779.732 2781.76 779.732Z" fill="#DB4C40"/>
<path d="M2987.87 779.732C3044.78 779.732 3090.9 736.095 3090.9 682.265C3090.9 628.436 3044.78 584.799 2987.87 584.799C2930.97 584.799 2884.84 628.436 2884.84 682.265C2884.84 736.095 2930.97 779.732 2987.87 779.732Z" fill="#DB4C40"/>
<path d="M103.03 779.732C159.932 779.732 206.06 736.095 206.06 682.265C206.06 628.436 159.932 584.799 103.03 584.799C46.1281 584.799 0 628.436 0 682.265C0 736.095 46.1281 779.732 103.03 779.732Z" fill="#DB4C40"/>
<path d="M309.143 779.732C366.045 779.732 412.173 736.095 412.173 682.265C412.173 628.436 366.045 584.799 309.143 584.799C252.241 584.799 206.113 628.436 206.113 682.265C206.113 736.095 252.241 779.732 309.143 779.732Z" fill="#DB4C40"/>
<path d="M515.128 779.732C572.03 779.732 618.158 736.095 618.158 682.265C618.158 628.436 572.03 584.799 515.128 584.799C458.226 584.799 412.098 628.436 412.098 682.265C412.098 736.095 458.226 779.732 515.128 779.732Z" fill="#DB4C40"/>
<path d="M2575.74 974.666C2632.65 974.666 2678.77 931.029 2678.77 877.199C2678.77 823.37 2632.65 779.733 2575.74 779.733C2518.84 779.733 2472.71 823.37 2472.71 877.199C2472.71 931.029 2518.84 974.666 2575.74 974.666Z" fill="#DB4C40"/>
<path d="M2781.76 974.666C2838.66 974.666 2884.79 931.029 2884.79 877.199C2884.79 823.37 2838.66 779.733 2781.76 779.733C2724.86 779.733 2678.73 823.37 2678.73 877.199C2678.73 931.029 2724.86 974.666 2781.76 974.666Z" fill="#DB4C40"/>
<path d="M2987.87 974.663C3044.78 974.663 3090.9 931.026 3090.9 877.197C3090.9 823.368 3044.78 779.73 2987.87 779.73C2930.97 779.73 2884.84 823.368 2884.84 877.197C2884.84 931.026 2930.97 974.663 2987.87 974.663Z" fill="#DB4C40"/>
<path d="M103.03 974.665C159.932 974.665 206.06 931.028 206.06 877.198C206.06 823.369 159.932 779.732 103.03 779.732C46.1281 779.732 0 823.369 0 877.198C0 931.028 46.1281 974.665 103.03 974.665Z" fill="#DB4C40"/>
<path d="M309.143 974.666C366.045 974.666 412.173 931.029 412.173 877.199C412.173 823.37 366.045 779.733 309.143 779.733C252.241 779.733 206.113 823.37 206.113 877.199C206.113 931.029 252.241 974.666 309.143 974.666Z" fill="#DB4C40"/>
<path d="M515.128 974.666C572.03 974.666 618.158 931.029 618.158 877.199C618.158 823.37 572.03 779.733 515.128 779.733C458.226 779.733 412.098 823.37 412.098 877.199C412.098 931.029 458.226 974.666 515.128 974.666Z" fill="#DB4C40"/>
<path d="M2575.74 1169.6C2632.65 1169.6 2678.77 1125.96 2678.77 1072.13C2678.77 1018.3 2632.65 974.665 2575.74 974.665C2518.84 974.665 2472.71 1018.3 2472.71 1072.13C2472.71 1125.96 2518.84 1169.6 2575.74 1169.6Z" fill="#DB4C40"/>
<path d="M2781.76 1169.6C2838.66 1169.6 2884.79 1125.96 2884.79 1072.13C2884.79 1018.3 2838.66 974.665 2781.76 974.665C2724.86 974.665 2678.73 1018.3 2678.73 1072.13C2678.73 1125.96 2724.86 1169.6 2781.76 1169.6Z" fill="#DB4C40"/>
<path d="M2987.87 1169.6C3044.78 1169.6 3090.9 1125.96 3090.9 1072.13C3090.9 1018.3 3044.78 974.665 2987.87 974.665C2930.97 974.665 2884.84 1018.3 2884.84 1072.13C2884.84 1125.96 2930.97 1169.6 2987.87 1169.6Z" fill="#DB4C40"/>
<path d="M103.03 1169.6C159.932 1169.6 206.06 1125.96 206.06 1072.13C206.06 1018.3 159.932 974.665 103.03 974.665C46.1281 974.665 0 1018.3 0 1072.13C0 1125.96 46.1281 1169.6 103.03 1169.6Z" fill="#DB4C40"/>
<path d="M309.143 1169.6C366.045 1169.6 412.173 1125.96 412.173 1072.13C412.173 1018.3 366.045 974.665 309.143 974.665C252.241 974.665 206.113 1018.3 206.113 1072.13C206.113 1125.96 252.241 1169.6 309.143 1169.6Z" fill="#DB4C40"/>
<path d="M515.128 1169.6C572.03 1169.6 618.158 1125.96 618.158 1072.13C618.158 1018.3 572.03 974.665 515.128 974.665C458.226 974.665 412.098 1018.3 412.098 1072.13C412.098 1125.96 458.226 1169.6 515.128 1169.6Z" fill="#DB4C40"/>
<path d="M2575.74 1364.53C2632.65 1364.53 2678.77 1320.89 2678.77 1267.06C2678.77 1213.23 2632.65 1169.6 2575.74 1169.6C2518.84 1169.6 2472.71 1213.23 2472.71 1267.06C2472.71 1320.89 2518.84 1364.53 2575.74 1364.53Z" fill="#DB4C40"/>
<path d="M2781.76 1364.53C2838.66 1364.53 2884.79 1320.89 2884.79 1267.06C2884.79 1213.23 2838.66 1169.6 2781.76 1169.6C2724.86 1169.6 2678.73 1213.23 2678.73 1267.06C2678.73 1320.89 2724.86 1364.53 2781.76 1364.53Z" fill="#DB4C40"/>
<path d="M2987.87 1364.53C3044.78 1364.53 3090.9 1320.89 3090.9 1267.06C3090.9 1213.23 3044.78 1169.6 2987.87 1169.6C2930.97 1169.6 2884.84 1213.23 2884.84 1267.06C2884.84 1320.89 2930.97 1364.53 2987.87 1364.53Z" fill="#DB4C40"/>
<path d="M103.03 1364.53C159.932 1364.53 206.06 1320.89 206.06 1267.06C206.06 1213.24 159.932 1169.6 103.03 1169.6C46.1281 1169.6 0 1213.24 0 1267.06C0 1320.89 46.1281 1364.53 103.03 1364.53Z" fill="#DB4C40"/>
<path d="M309.143 1364.53C366.045 1364.53 412.173 1320.89 412.173 1267.06C412.173 1213.23 366.045 1169.6 309.143 1169.6C252.241 1169.6 206.113 1213.23 206.113 1267.06C206.113 1320.89 252.241 1364.53 309.143 1364.53Z" fill="#DB4C40"/>
<path d="M515.128 1364.53C572.03 1364.53 618.158 1320.89 618.158 1267.06C618.158 1213.23 572.03 1169.6 515.128 1169.6C458.226 1169.6 412.098 1213.23 412.098 1267.06C412.098 1320.89 458.226 1364.53 515.128 1364.53Z" fill="#DB4C40"/>
<path d="M2575.74 1559.46C2632.65 1559.46 2678.77 1515.83 2678.77 1462C2678.77 1408.17 2632.65 1364.53 2575.74 1364.53C2518.84 1364.53 2472.71 1408.17 2472.71 1462C2472.71 1515.83 2518.84 1559.46 2575.74 1559.46Z" fill="#DB4C40"/>
<path d="M2781.76 1559.46C2838.66 1559.46 2884.79 1515.83 2884.79 1462C2884.79 1408.17 2838.66 1364.53 2781.76 1364.53C2724.86 1364.53 2678.73 1408.17 2678.73 1462C2678.73 1515.83 2724.86 1559.46 2781.76 1559.46Z" fill="#DB4C40"/>
<path d="M2987.87 1559.46C3044.78 1559.46 3090.9 1515.83 3090.9 1462C3090.9 1408.17 3044.78 1364.53 2987.87 1364.53C2930.97 1364.53 2884.84 1408.17 2884.84 1462C2884.84 1515.83 2930.97 1559.46 2987.87 1559.46Z" fill="#DB4C40"/>
<path d="M103.03 1559.46C159.932 1559.46 206.06 1515.83 206.06 1462C206.06 1408.17 159.932 1364.53 103.03 1364.53C46.1281 1364.53 0 1408.17 0 1462C0 1515.83 46.1281 1559.46 103.03 1559.46Z" fill="#DB4C40"/>
<path d="M309.143 1559.46C366.045 1559.46 412.173 1515.83 412.173 1462C412.173 1408.17 366.045 1364.53 309.143 1364.53C252.241 1364.53 206.113 1408.17 206.113 1462C206.113 1515.83 252.241 1559.46 309.143 1559.46Z" fill="#DB4C40"/>
<path d="M515.128 1559.46C572.03 1559.46 618.158 1515.83 618.158 1462C618.158 1408.17 572.03 1364.53 515.128 1364.53C458.226 1364.53 412.098 1408.17 412.098 1462C412.098 1515.83 458.226 1559.46 515.128 1559.46Z" fill="#DB4C40"/>
<path d="M721.241 1364.53C778.143 1364.53 824.271 1320.89 824.271 1267.06C824.271 1213.24 778.143 1169.6 721.241 1169.6C664.339 1169.6 618.211 1213.24 618.211 1267.06C618.211 1320.89 664.339 1364.53 721.241 1364.53Z" fill="#DB4C40"/>
<path d="M927.225 1364.53C984.127 1364.53 1030.26 1320.89 1030.26 1267.06C1030.26 1213.23 984.127 1169.6 927.225 1169.6C870.323 1169.6 824.195 1213.23 824.195 1267.06C824.195 1320.89 870.323 1364.53 927.225 1364.53Z" fill="#DB4C40"/>
<path d="M1133.34 1364.53C1190.24 1364.53 1236.37 1320.89 1236.37 1267.06C1236.37 1213.23 1190.24 1169.6 1133.34 1169.6C1076.44 1169.6 1030.31 1213.23 1030.31 1267.06C1030.31 1320.89 1076.44 1364.53 1133.34 1364.53Z" fill="#DB4C40"/>
<path d="M1339.32 1364.53C1396.22 1364.53 1442.35 1320.89 1442.35 1267.06C1442.35 1213.23 1396.22 1169.6 1339.32 1169.6C1282.42 1169.6 1236.29 1213.23 1236.29 1267.06C1236.29 1320.89 1282.42 1364.53 1339.32 1364.53Z" fill="#DB4C40"/>
<path d="M1545.44 1364.53C1602.34 1364.53 1648.47 1320.89 1648.47 1267.06C1648.47 1213.23 1602.34 1169.6 1545.44 1169.6C1488.53 1169.6 1442.41 1213.23 1442.41 1267.06C1442.41 1320.89 1488.53 1364.53 1545.44 1364.53Z" fill="#DB4C40"/>
<path d="M1751.55 1364.53C1808.45 1364.53 1854.58 1320.89 1854.58 1267.06C1854.58 1213.23 1808.45 1169.6 1751.55 1169.6C1694.65 1169.6 1648.52 1213.23 1648.52 1267.06C1648.52 1320.89 1694.65 1364.53 1751.55 1364.53Z" fill="#DB4C40"/>
<path d="M1957.53 1364.53C2014.44 1364.53 2060.56 1320.89 2060.56 1267.06C2060.56 1213.23 2014.44 1169.6 1957.53 1169.6C1900.63 1169.6 1854.5 1213.23 1854.5 1267.06C1854.5 1320.89 1900.63 1364.53 1957.53 1364.53Z" fill="#DB4C40"/>
<path d="M2163.65 1364.53C2220.55 1364.53 2266.68 1320.89 2266.68 1267.06C2266.68 1213.23 2220.55 1169.6 2163.65 1169.6C2106.75 1169.6 2060.62 1213.23 2060.62 1267.06C2060.62 1320.89 2106.75 1364.53 2163.65 1364.53Z" fill="#DB4C40"/>
<path d="M2369.66 1364.53C2426.56 1364.53 2472.69 1320.89 2472.69 1267.06C2472.69 1213.23 2426.56 1169.6 2369.66 1169.6C2312.76 1169.6 2266.63 1213.23 2266.63 1267.06C2266.63 1320.89 2312.76 1364.53 2369.66 1364.53Z" fill="#DB4C40"/>
<path d="M721.241 1169.6C778.143 1169.6 824.271 1125.96 824.271 1072.13C824.271 1018.3 778.143 974.665 721.241 974.665C664.339 974.665 618.211 1018.3 618.211 1072.13C618.211 1125.96 664.339 1169.6 721.241 1169.6Z" fill="#DB4C40"/>
<path d="M927.225 1169.6C984.127 1169.6 1030.26 1125.96 1030.26 1072.13C1030.26 1018.3 984.127 974.665 927.225 974.665C870.323 974.665 824.195 1018.3 824.195 1072.13C824.195 1125.96 870.323 1169.6 927.225 1169.6Z" fill="#DB4C40"/>
<path d="M1133.34 1169.6C1190.24 1169.6 1236.37 1125.96 1236.37 1072.13C1236.37 1018.3 1190.24 974.665 1133.34 974.665C1076.44 974.665 1030.31 1018.3 1030.31 1072.13C1030.31 1125.96 1076.44 1169.6 1133.34 1169.6Z" fill="#DB4C40"/>
<path d="M1339.32 1169.6C1396.22 1169.6 1442.35 1125.96 1442.35 1072.13C1442.35 1018.3 1396.22 974.665 1339.32 974.665C1282.42 974.665 1236.29 1018.3 1236.29 1072.13C1236.29 1125.96 1282.42 1169.6 1339.32 1169.6Z" fill="#DB4C40"/>
<path d="M1545.44 1169.6C1602.34 1169.6 1648.47 1125.96 1648.47 1072.13C1648.47 1018.3 1602.34 974.665 1545.44 974.665C1488.53 974.665 1442.41 1018.3 1442.41 1072.13C1442.41 1125.96 1488.53 1169.6 1545.44 1169.6Z" fill="#DB4C40"/>
<path d="M1751.55 1169.6C1808.45 1169.6 1854.58 1125.96 1854.58 1072.13C1854.58 1018.3 1808.45 974.665 1751.55 974.665C1694.65 974.665 1648.52 1018.3 1648.52 1072.13C1648.52 1125.96 1694.65 1169.6 1751.55 1169.6Z" fill="#DB4C40"/>
<path d="M1957.53 1169.6C2014.44 1169.6 2060.56 1125.96 2060.56 1072.13C2060.56 1018.3 2014.44 974.665 1957.53 974.665C1900.63 974.665 1854.5 1018.3 1854.5 1072.13C1854.5 1125.96 1900.63 1169.6 1957.53 1169.6Z" fill="#DB4C40"/>
<path d="M2163.65 1169.6C2220.55 1169.6 2266.68 1125.96 2266.68 1072.13C2266.68 1018.3 2220.55 974.665 2163.65 974.665C2106.75 974.665 2060.62 1018.3 2060.62 1072.13C2060.62 1125.96 2106.75 1169.6 2163.65 1169.6Z" fill="#DB4C40"/>
<path d="M2369.66 1169.6C2426.56 1169.6 2472.69 1125.96 2472.69 1072.13C2472.69 1018.3 2426.56 974.665 2369.66 974.665C2312.76 974.665 2266.63 1018.3 2266.63 1072.13C2266.63 1125.96 2312.76 1169.6 2369.66 1169.6Z" fill="#DB4C40"/>
<path d="M2575.74 1754.4C2632.65 1754.4 2678.77 1710.76 2678.77 1656.93C2678.77 1603.1 2632.65 1559.46 2575.74 1559.46C2518.84 1559.46 2472.71 1603.1 2472.71 1656.93C2472.71 1710.76 2518.84 1754.4 2575.74 1754.4Z" fill="#DB4C40"/>
<path d="M2781.76 1754.4C2838.66 1754.4 2884.79 1710.76 2884.79 1656.93C2884.79 1603.1 2838.66 1559.46 2781.76 1559.46C2724.86 1559.46 2678.73 1603.1 2678.73 1656.93C2678.73 1710.76 2724.86 1754.4 2781.76 1754.4Z" fill="#DB4C40"/>
<path d="M2987.87 1754.4C3044.78 1754.4 3090.9 1710.76 3090.9 1656.93C3090.9 1603.1 3044.78 1559.46 2987.87 1559.46C2930.97 1559.46 2884.84 1603.1 2884.84 1656.93C2884.84 1710.76 2930.97 1754.4 2987.87 1754.4Z" fill="#DB4C40"/>
<path d="M103.03 1754.4C159.932 1754.4 206.06 1710.76 206.06 1656.93C206.06 1603.1 159.932 1559.46 103.03 1559.46C46.1281 1559.46 0 1603.1 0 1656.93C0 1710.76 46.1281 1754.4 103.03 1754.4Z" fill="#DB4C40"/>
<path d="M309.143 1754.4C366.045 1754.4 412.173 1710.76 412.173 1656.93C412.173 1603.1 366.045 1559.46 309.143 1559.46C252.241 1559.46 206.113 1603.1 206.113 1656.93C206.113 1710.76 252.241 1754.4 309.143 1754.4Z" fill="#DB4C40"/>
<path d="M515.128 1754.4C572.03 1754.4 618.158 1710.76 618.158 1656.93C618.158 1603.1 572.03 1559.46 515.128 1559.46C458.226 1559.46 412.098 1603.1 412.098 1656.93C412.098 1710.76 458.226 1754.4 515.128 1754.4Z" fill="#DB4C40"/>
<path d="M2575.74 1949.33C2632.65 1949.33 2678.77 1905.69 2678.77 1851.86C2678.77 1798.03 2632.65 1754.4 2575.74 1754.4C2518.84 1754.4 2472.71 1798.03 2472.71 1851.86C2472.71 1905.69 2518.84 1949.33 2575.74 1949.33Z" fill="#DB4C40"/>
<path d="M2781.76 1949.33C2838.66 1949.33 2884.79 1905.69 2884.79 1851.86C2884.79 1798.03 2838.66 1754.4 2781.76 1754.4C2724.86 1754.4 2678.73 1798.03 2678.73 1851.86C2678.73 1905.69 2724.86 1949.33 2781.76 1949.33Z" fill="#DB4C40"/>
<path d="M2987.87 1949.33C3044.78 1949.33 3090.9 1905.69 3090.9 1851.86C3090.9 1798.03 3044.78 1754.4 2987.87 1754.4C2930.97 1754.4 2884.84 1798.03 2884.84 1851.86C2884.84 1905.69 2930.97 1949.33 2987.87 1949.33Z" fill="#DB4C40"/>
<path d="M103.03 1949.33C159.932 1949.33 206.06 1905.69 206.06 1851.86C206.06 1798.03 159.932 1754.4 103.03 1754.4C46.1281 1754.4 0 1798.03 0 1851.86C0 1905.69 46.1281 1949.33 103.03 1949.33Z" fill="#DB4C40"/>
<path d="M309.143 1949.33C366.045 1949.33 412.173 1905.69 412.173 1851.86C412.173 1798.03 366.045 1754.4 309.143 1754.4C252.241 1754.4 206.113 1798.03 206.113 1851.86C206.113 1905.69 252.241 1949.33 309.143 1949.33Z" fill="#DB4C40"/>
<path d="M515.128 1949.33C572.03 1949.33 618.158 1905.69 618.158 1851.86C618.158 1798.03 572.03 1754.4 515.128 1754.4C458.226 1754.4 412.098 1798.03 412.098 1851.86C412.098 1905.69 458.226 1949.33 515.128 1949.33Z" fill="#DB4C40"/>
<path d="M115.405 584.8C172.307 584.8 218.435 541.162 218.435 487.333C218.435 433.504 172.307 389.867 115.405 389.867C58.5031 389.867 12.375 433.504 12.375 487.333C12.375 541.162 58.5031 584.8 115.405 584.8Z" fill="#DB4C40"/>
<path d="M321.522 584.798C378.424 584.798 424.552 541.16 424.552 487.331C424.552 433.502 378.424 389.865 321.522 389.865C264.62 389.865 218.492 433.502 218.492 487.331C218.492 541.16 264.62 584.798 321.522 584.798Z" fill="#DB4C40"/>
<path d="M527.503 584.798C584.405 584.798 630.533 541.16 630.533 487.331C630.533 433.502 584.405 389.865 527.503 389.865C470.601 389.865 424.473 433.502 424.473 487.331C424.473 541.16 470.601 584.798 527.503 584.798Z" fill="#DB4C40"/>
<path d="M733.62 584.798C790.522 584.798 836.65 541.16 836.65 487.331C836.65 433.502 790.522 389.865 733.62 389.865C676.718 389.865 630.59 433.502 630.59 487.331C630.59 541.16 676.718 584.798 733.62 584.798Z" fill="#DB4C40"/>
</g>
<defs>
<clipPath id="clip0_519_279">
<rect width="10201" height="1962" fill="white"/>
</clipPath>
</defs>
</svg>
