<svg width="225" height="900" viewBox="0 0 225 900" fill="none" xmlns="http://www.w3.org/2000/svg">
<path d="M102.27 122.724L102.27 102.269L81.815 102.269L81.815 122.724L102.27 122.724Z" fill="#EE3C36"/>
<path d="M122.73 143.181L122.73 122.727L102.276 122.727L102.276 143.181L122.73 143.181Z" fill="#EE3C36"/>
<path d="M81.8164 102.269L81.8164 81.8147L61.3619 81.8147L61.3619 102.269L81.8164 102.269Z" fill="#EE3C36"/>
<path d="M61.3633 81.8149L61.3633 61.3604L40.9088 61.3604L40.9088 81.8149L61.3633 81.8149Z" fill="#EE3C36"/>
<path d="M40.9102 61.3641L40.9102 40.9095L20.4556 40.9095L20.4556 61.3641L40.9102 61.3641Z" fill="#EE3C36"/>
<path d="M20.4531 40.9061L20.4531 20.4515L-0.00140381 20.4515L-0.0014047 40.9061L20.4531 40.9061Z" fill="#EE3C36"/>
<path d="M143.184 122.724L143.184 102.269L122.729 102.269L122.729 122.724L143.184 122.724Z" fill="#EE3C36"/>
<path d="M184.094 81.8149L184.094 61.3604L163.639 61.3604L163.639 81.8149L184.094 81.8149Z" fill="#EE3C36"/>
<path d="M163.637 102.269L163.637 81.8147L143.182 81.8147L143.182 102.269L163.637 102.269Z" fill="#EE3C36"/>
<path d="M204.547 61.3641L204.547 40.9095L184.092 40.9095L184.092 61.3641L204.547 61.3641Z" fill="#EE3C36"/>
<path d="M225 40.9061L225 20.4515L204.545 20.4515L204.545 40.9061L225 40.9061Z" fill="#EE3C36"/>
<path d="M102.27 163.636L102.27 143.181L81.815 143.181L81.815 163.636L102.27 163.636Z" fill="#EE3C36"/>
<path d="M122.73 184.087L122.73 163.632L102.276 163.632L102.276 184.087L122.73 184.087Z" fill="#EE3C36"/>
<path d="M81.8164 143.181L81.8164 122.727L61.3619 122.727L61.3619 143.181L81.8164 143.181Z" fill="#EE3C36"/>
<path d="M61.3633 122.724L61.3633 102.269L40.9088 102.269L40.9088 122.724L61.3633 122.724Z" fill="#EE3C36"/>
<path d="M40.9102 102.269L40.9102 81.8147L20.4556 81.8147L20.4556 102.269L40.9102 102.269Z" fill="#EE3C36"/>
<path d="M20.4531 81.8149L20.4531 61.3604L-0.00140381 61.3604L-0.0014047 81.8149L20.4531 81.8149Z" fill="#EE3C36"/>
<path d="M143.184 163.636L143.184 143.181L122.729 143.181L122.729 163.636L143.184 163.636Z" fill="#EE3C36"/>
<path d="M184.094 122.724L184.094 102.269L163.639 102.269L163.639 122.724L184.094 122.724Z" fill="#EE3C36"/>
<path d="M163.637 143.181L163.637 122.727L143.182 122.727L143.182 143.181L163.637 143.181Z" fill="#EE3C36"/>
<path d="M204.547 102.269L204.547 81.8147L184.092 81.8147L184.092 102.269L204.547 102.269Z" fill="#EE3C36"/>
<path d="M225 81.8149L225 61.3604L204.545 61.3604L204.545 81.8149L225 81.8149Z" fill="#EE3C36"/>
<path d="M102.27 204.541L102.27 184.087L81.815 184.087L81.815 204.541L102.27 204.541Z" fill="#EE3C36"/>
<path d="M122.73 224.999L122.73 204.544L102.276 204.544L102.276 224.999L122.73 224.999Z" fill="#EE3C36"/>
<path d="M81.8164 184.087L81.8164 163.632L61.3619 163.632L61.3619 184.087L81.8164 184.087Z" fill="#EE3C36"/>
<path d="M61.3633 163.636L61.3633 143.181L40.9088 143.181L40.9088 163.636L61.3633 163.636Z" fill="#EE3C36"/>
<path d="M40.9102 143.181L40.9102 122.727L20.4556 122.727L20.4556 143.181L40.9102 143.181Z" fill="#EE3C36"/>
<path d="M20.4531 122.724L20.4531 102.269L-0.00140381 102.269L-0.0014047 122.724L20.4531 122.724Z" fill="#EE3C36"/>
<path d="M143.184 204.541L143.184 184.087L122.729 184.087L122.729 204.541L143.184 204.541Z" fill="#EE3C36"/>
<path d="M184.094 163.636L184.094 143.181L163.639 143.181L163.639 163.636L184.094 163.636Z" fill="#EE3C36"/>
<path d="M163.637 184.087L163.637 163.632L143.182 163.632L143.182 184.087L163.637 184.087Z" fill="#EE3C36"/>
<path d="M204.547 143.181L204.547 122.727L184.092 122.727L184.092 143.181L204.547 143.181Z" fill="#EE3C36"/>
<path d="M225 122.724L225 102.269L204.545 102.269L204.545 122.724L225 122.724Z" fill="#EE3C36"/>
<path d="M102.27 347.724L102.27 327.269L81.815 327.269L81.815 347.724L102.27 347.724Z" fill="#EE3C36"/>
<path d="M122.73 368.181L122.73 347.727L102.276 347.727L102.276 368.181L122.73 368.181Z" fill="#EE3C36"/>
<path d="M81.8164 327.269L81.8164 306.814L61.3619 306.814L61.3619 327.269L81.8164 327.269Z" fill="#EE3C36"/>
<path d="M61.3633 306.815L61.3633 286.36L40.9088 286.36L40.9088 306.815L61.3633 306.815Z" fill="#EE3C36"/>
<path d="M40.9102 286.364L40.9102 265.909L20.4556 265.909L20.4556 286.364L40.9102 286.364Z" fill="#EE3C36"/>
<path d="M20.4531 265.906L20.4531 245.451L-0.00140381 245.451L-0.0014047 265.906L20.4531 265.906Z" fill="#EE3C36"/>
<path d="M143.184 347.724L143.184 327.269L122.729 327.269L122.729 347.724L143.184 347.724Z" fill="#EE3C36"/>
<path d="M184.094 306.815L184.094 286.36L163.639 286.36L163.639 306.815L184.094 306.815Z" fill="#EE3C36"/>
<path d="M163.637 327.269L163.637 306.814L143.182 306.814L143.182 327.269L163.637 327.269Z" fill="#EE3C36"/>
<path d="M204.547 286.364L204.547 265.909L184.092 265.909L184.092 286.364L204.547 286.364Z" fill="#EE3C36"/>
<path d="M225 265.906L225 245.451L204.545 245.451L204.545 265.906L225 265.906Z" fill="#EE3C36"/>
<path d="M102.27 388.636L102.27 368.181L81.815 368.181L81.815 388.636L102.27 388.636Z" fill="#EE3C36"/>
<path d="M122.73 409.087L122.73 388.632L102.276 388.632L102.276 409.087L122.73 409.087Z" fill="#EE3C36"/>
<path d="M81.8164 368.181L81.8164 347.727L61.3619 347.727L61.3619 368.181L81.8164 368.181Z" fill="#EE3C36"/>
<path d="M61.3633 347.724L61.3633 327.269L40.9088 327.269L40.9088 347.724L61.3633 347.724Z" fill="#EE3C36"/>
<path d="M40.9102 327.269L40.9102 306.814L20.4556 306.814L20.4556 327.269L40.9102 327.269Z" fill="#EE3C36"/>
<path d="M20.4531 306.815L20.4531 286.36L-0.00140381 286.36L-0.0014047 306.815L20.4531 306.815Z" fill="#EE3C36"/>
<path d="M143.184 388.636L143.184 368.181L122.729 368.181L122.729 388.636L143.184 388.636Z" fill="#EE3C36"/>
<path d="M184.094 347.724L184.094 327.269L163.639 327.269L163.639 347.724L184.094 347.724Z" fill="#EE3C36"/>
<path d="M163.637 368.181L163.637 347.727L143.182 347.727L143.182 368.181L163.637 368.181Z" fill="#EE3C36"/>
<path d="M204.547 327.269L204.547 306.814L184.092 306.814L184.092 327.269L204.547 327.269Z" fill="#EE3C36"/>
<path d="M225 306.815L225 286.36L204.545 286.36L204.545 306.815L225 306.815Z" fill="#EE3C36"/>
<path d="M102.27 429.541L102.27 409.086L81.815 409.086L81.815 429.541L102.27 429.541Z" fill="#EE3C36"/>
<path d="M122.73 449.999L122.73 429.544L102.276 429.544L102.276 449.999L122.73 449.999Z" fill="#EE3C36"/>
<path d="M81.8164 409.087L81.8164 388.632L61.3619 388.632L61.3619 409.087L81.8164 409.087Z" fill="#EE3C36"/>
<path d="M61.3633 388.636L61.3633 368.181L40.9088 368.181L40.9088 388.636L61.3633 388.636Z" fill="#EE3C36"/>
<path d="M40.9102 368.181L40.9102 347.727L20.4556 347.727L20.4556 368.181L40.9102 368.181Z" fill="#EE3C36"/>
<path d="M20.4531 347.723L20.4531 327.269L-0.00140381 327.269L-0.0014047 347.723L20.4531 347.723Z" fill="#EE3C36"/>
<path d="M143.184 429.541L143.184 409.086L122.729 409.086L122.729 429.541L143.184 429.541Z" fill="#EE3C36"/>
<path d="M184.094 388.636L184.094 368.181L163.639 368.181L163.639 388.636L184.094 388.636Z" fill="#EE3C36"/>
<path d="M163.637 409.087L163.637 388.632L143.182 388.632L143.182 409.087L163.637 409.087Z" fill="#EE3C36"/>
<path d="M204.547 368.181L204.547 347.727L184.092 347.727L184.092 368.181L204.547 368.181Z" fill="#EE3C36"/>
<path d="M225 347.724L225 327.269L204.545 327.269L204.545 347.724L225 347.724Z" fill="#EE3C36"/>
<path d="M102.27 572.726L102.27 552.271L81.815 552.271L81.815 572.726L102.27 572.726Z" fill="#EE3C36"/>
<path d="M122.73 593.183L122.73 572.729L102.276 572.729L102.276 593.183L122.73 593.183Z" fill="#EE3C36"/>
<path d="M81.8164 552.271L81.8164 531.816L61.3619 531.816L61.3619 552.271L81.8164 552.271Z" fill="#EE3C36"/>
<path d="M61.3633 531.817L61.3633 511.362L40.9088 511.362L40.9088 531.817L61.3633 531.817Z" fill="#EE3C36"/>
<path d="M40.9102 511.366L40.9102 490.911L20.4556 490.911L20.4556 511.366L40.9102 511.366Z" fill="#EE3C36"/>
<path d="M20.4531 490.908L20.4531 470.453L-0.00140381 470.453L-0.0014047 490.908L20.4531 490.908Z" fill="#EE3C36"/>
<path d="M143.184 572.726L143.184 552.271L122.729 552.271L122.729 572.726L143.184 572.726Z" fill="#EE3C36"/>
<path d="M184.094 531.817L184.094 511.362L163.639 511.362L163.639 531.817L184.094 531.817Z" fill="#EE3C36"/>
<path d="M163.637 552.271L163.637 531.816L143.182 531.816L143.182 552.271L163.637 552.271Z" fill="#EE3C36"/>
<path d="M204.547 511.366L204.547 490.911L184.092 490.911L184.092 511.366L204.547 511.366Z" fill="#EE3C36"/>
<path d="M225 490.908L225 470.453L204.545 470.453L204.545 490.908L225 490.908Z" fill="#EE3C36"/>
<path d="M102.27 613.638L102.27 593.183L81.815 593.183L81.815 613.638L102.27 613.638Z" fill="#EE3C36"/>
<path d="M122.73 634.089L122.73 613.634L102.276 613.634L102.276 634.089L122.73 634.089Z" fill="#EE3C36"/>
<path d="M81.8164 593.183L81.8164 572.729L61.3619 572.729L61.3619 593.183L81.8164 593.183Z" fill="#EE3C36"/>
<path d="M61.3633 572.726L61.3633 552.271L40.9088 552.271L40.9088 572.726L61.3633 572.726Z" fill="#EE3C36"/>
<path d="M40.9102 552.271L40.9102 531.816L20.4556 531.816L20.4556 552.271L40.9102 552.271Z" fill="#EE3C36"/>
<path d="M20.4531 531.817L20.4531 511.362L-0.00140381 511.362L-0.0014047 531.817L20.4531 531.817Z" fill="#EE3C36"/>
<path d="M143.184 613.638L143.184 593.183L122.729 593.183L122.729 613.638L143.184 613.638Z" fill="#EE3C36"/>
<path d="M184.094 572.726L184.094 552.271L163.639 552.271L163.639 572.726L184.094 572.726Z" fill="#EE3C36"/>
<path d="M163.637 593.183L163.637 572.729L143.182 572.729L143.182 593.183L163.637 593.183Z" fill="#EE3C36"/>
<path d="M204.547 552.271L204.547 531.816L184.092 531.816L184.092 552.271L204.547 552.271Z" fill="#EE3C36"/>
<path d="M225 531.817L225 511.362L204.545 511.362L204.545 531.817L225 531.817Z" fill="#EE3C36"/>
<path d="M102.27 654.543L102.27 634.088L81.815 634.088L81.815 654.543L102.27 654.543Z" fill="#EE3C36"/>
<path d="M122.73 675.001L122.73 654.546L102.276 654.546L102.276 675.001L122.73 675.001Z" fill="#EE3C36"/>
<path d="M81.8164 634.089L81.8164 613.634L61.3619 613.634L61.3619 634.089L81.8164 634.089Z" fill="#EE3C36"/>
<path d="M61.3633 613.638L61.3633 593.183L40.9088 593.183L40.9088 613.638L61.3633 613.638Z" fill="#EE3C36"/>
<path d="M40.9102 593.183L40.9102 572.729L20.4556 572.729L20.4556 593.183L40.9102 593.183Z" fill="#EE3C36"/>
<path d="M20.4531 572.725L20.4531 552.271L-0.00140381 552.271L-0.0014047 572.725L20.4531 572.725Z" fill="#EE3C36"/>
<path d="M143.184 654.543L143.184 634.088L122.729 634.088L122.729 654.543L143.184 654.543Z" fill="#EE3C36"/>
<path d="M184.094 613.638L184.094 593.183L163.639 593.183L163.639 613.638L184.094 613.638Z" fill="#EE3C36"/>
<path d="M163.637 634.089L163.637 613.634L143.182 613.634L143.182 634.089L163.637 634.089Z" fill="#EE3C36"/>
<path d="M204.547 593.183L204.547 572.729L184.092 572.729L184.092 593.183L204.547 593.183Z" fill="#EE3C36"/>
<path d="M225 572.726L225 552.271L204.545 552.271L204.545 572.726L225 572.726Z" fill="#EE3C36"/>
<path d="M102.27 797.727L102.27 777.273L81.815 777.273L81.815 797.727L102.27 797.727Z" fill="#EE3C36"/>
<path d="M122.73 818.185L122.73 797.731L102.276 797.731L102.276 818.185L122.73 818.185Z" fill="#EE3C36"/>
<path d="M81.8164 777.273L81.8164 756.818L61.3619 756.818L61.3619 777.273L81.8164 777.273Z" fill="#EE3C36"/>
<path d="M61.3633 756.819L61.3633 736.364L40.9088 736.364L40.9088 756.819L61.3633 756.819Z" fill="#EE3C36"/>
<path d="M40.9102 736.368L40.9102 715.913L20.4556 715.913L20.4556 736.368L40.9102 736.368Z" fill="#EE3C36"/>
<path d="M20.4531 715.91L20.4531 695.455L-0.00140381 695.455L-0.0014047 715.91L20.4531 715.91Z" fill="#EE3C36"/>
<path d="M143.184 797.727L143.184 777.273L122.729 777.273L122.729 797.727L143.184 797.727Z" fill="#EE3C36"/>
<path d="M184.094 756.819L184.094 736.364L163.639 736.364L163.639 756.819L184.094 756.819Z" fill="#EE3C36"/>
<path d="M163.637 777.273L163.637 756.818L143.182 756.818L143.182 777.273L163.637 777.273Z" fill="#EE3C36"/>
<path d="M204.547 736.368L204.547 715.913L184.092 715.913L184.092 736.368L204.547 736.368Z" fill="#EE3C36"/>
<path d="M225 715.91L225 695.455L204.545 695.455L204.545 715.91L225 715.91Z" fill="#EE3C36"/>
<path d="M102.27 838.64L102.27 818.185L81.815 818.185L81.815 838.64L102.27 838.64Z" fill="#EE3C36"/>
<path d="M122.73 859.091L122.73 838.636L102.276 838.636L102.276 859.091L122.73 859.091Z" fill="#EE3C36"/>
<path d="M81.8164 818.185L81.8164 797.731L61.3619 797.731L61.3619 818.185L81.8164 818.185Z" fill="#EE3C36"/>
<path d="M61.3633 797.727L61.3633 777.273L40.9088 777.273L40.9088 797.727L61.3633 797.727Z" fill="#EE3C36"/>
<path d="M40.9102 777.273L40.9102 756.818L20.4556 756.818L20.4556 777.273L40.9102 777.273Z" fill="#EE3C36"/>
<path d="M20.4531 756.819L20.4531 736.364L-0.00140381 736.364L-0.0014047 756.819L20.4531 756.819Z" fill="#EE3C36"/>
<path d="M143.184 838.64L143.184 818.185L122.729 818.185L122.729 838.64L143.184 838.64Z" fill="#EE3C36"/>
<path d="M184.094 797.727L184.094 777.273L163.639 777.273L163.639 797.727L184.094 797.727Z" fill="#EE3C36"/>
<path d="M163.637 818.185L163.637 797.731L143.182 797.731L143.182 818.185L163.637 818.185Z" fill="#EE3C36"/>
<path d="M204.547 777.273L204.547 756.818L184.092 756.818L184.092 777.273L204.547 777.273Z" fill="#EE3C36"/>
<path d="M225 756.819L225 736.364L204.545 736.364L204.545 756.819L225 756.819Z" fill="#EE3C36"/>
<path d="M102.27 879.545L102.27 859.09L81.815 859.09L81.815 879.545L102.27 879.545Z" fill="#EE3C36"/>
<path d="M122.73 900.003L122.73 879.548L102.276 879.548L102.276 900.003L122.73 900.003Z" fill="#EE3C36"/>
<path d="M81.8164 859.091L81.8164 838.636L61.3619 838.636L61.3619 859.091L81.8164 859.091Z" fill="#EE3C36"/>
<path d="M61.3633 838.64L61.3633 818.185L40.9088 818.185L40.9088 838.64L61.3633 838.64Z" fill="#EE3C36"/>
<path d="M40.9102 818.185L40.9102 797.731L20.4556 797.731L20.4556 818.185L40.9102 818.185Z" fill="#EE3C36"/>
<path d="M20.4531 797.727L20.4531 777.273L-0.00140381 777.273L-0.0014047 797.727L20.4531 797.727Z" fill="#EE3C36"/>
<path d="M143.184 879.545L143.184 859.09L122.729 859.09L122.729 879.545L143.184 879.545Z" fill="#EE3C36"/>
<path d="M184.094 838.64L184.094 818.185L163.639 818.185L163.639 838.64L184.094 838.64Z" fill="#EE3C36"/>
<path d="M163.637 859.091L163.637 838.636L143.182 838.636L143.182 859.091L163.637 859.091Z" fill="#EE3C36"/>
<path d="M204.547 818.185L204.547 797.731L184.092 797.731L184.092 818.185L204.547 818.185Z" fill="#EE3C36"/>
<path d="M225 797.727L225 777.273L204.545 777.273L204.545 797.727L225 797.727Z" fill="#EE3C36"/>
</svg>
