<svg width="345" height="1063" viewBox="0 0 345 1063" fill="none" xmlns="http://www.w3.org/2000/svg">
<g clip-path="url(#clip0_404_2)">
<path d="M345 0.270874H0V345.637H345V0.270874Z" fill="#EE3C36"/>
<path d="M345 358.588H0V703.954H345V358.588Z" fill="#EE3C36"/>
<path d="M345 716.905H0V1062.27H345V716.905Z" fill="#EE3C36"/>
<path d="M69 319.734H51.75V337.003H69V319.734Z" fill="#202021" stroke="#202021" stroke-miterlimit="10"/>
<path d="M86.25 319.734H69V337.003H86.25V319.734Z" fill="#202021" stroke="#202021" stroke-miterlimit="10"/>
<path d="M103.5 319.734H86.25V337.003H103.5V319.734Z" fill="#202021" stroke="#202021" stroke-miterlimit="10"/>
<path d="M120.75 319.734H103.5V337.003H120.75V319.734Z" fill="#202021" stroke="#202021" stroke-miterlimit="10"/>
<path d="M138 319.734H120.75V337.003H138V319.734Z" fill="#202021" stroke="#202021" stroke-miterlimit="10"/>
<path d="M138 216.125H120.75V233.393H138V216.125Z" fill="#202021" stroke="#202021" stroke-miterlimit="10"/>
<path d="M155.25 216.125H138V233.393H155.25V216.125Z" fill="#202021" stroke="#202021" stroke-miterlimit="10"/>
<path d="M172.5 216.125H155.25V233.393H172.5V216.125Z" fill="#202021" stroke="#202021" stroke-miterlimit="10"/>
<path d="M189.75 216.125H172.5V233.393H189.75V216.125Z" fill="#202021" stroke="#202021" stroke-miterlimit="10"/>
<path d="M207 216.125H189.75V233.393H207V216.125Z" fill="#202021" stroke="#202021" stroke-miterlimit="10"/>
<path d="M207 319.734H189.75V337.003H207V319.734Z" fill="#202021" stroke="#202021" stroke-miterlimit="10"/>
<path d="M224.25 319.734H207V337.003H224.25V319.734Z" fill="#202021" stroke="#202021" stroke-miterlimit="10"/>
<path d="M241.5 319.734H224.25V337.003H241.5V319.734Z" fill="#202021" stroke="#202021" stroke-miterlimit="10"/>
<path d="M258.75 319.734H241.5V337.003H258.75V319.734Z" fill="#202021" stroke="#202021" stroke-miterlimit="10"/>
<path d="M276 319.734H258.75V337.003H276V319.734Z" fill="#202021" stroke="#202021" stroke-miterlimit="10"/>
<path d="M103.5 302.466H86.25V319.734H103.5V302.466Z" fill="#202021" stroke="#202021" stroke-miterlimit="10"/>
<path d="M103.5 285.198H86.25V302.466H103.5V285.198Z" fill="#202021" stroke="#202021" stroke-miterlimit="10"/>
<path d="M103.5 267.929H86.25V285.198H103.5V267.929Z" fill="#202021" stroke="#202021" stroke-miterlimit="10"/>
<path d="M103.5 250.661H86.25V267.929H103.5V250.661Z" fill="#202021" stroke="#202021" stroke-miterlimit="10"/>
<path d="M120.75 233.393H103.5V250.661H120.75V233.393Z" fill="#202021" stroke="#202021" stroke-miterlimit="10"/>
<path d="M120.75 216.125H103.5V233.393H120.75V216.125Z" fill="#202021" stroke="#202021" stroke-miterlimit="10"/>
<path d="M120.75 198.856H103.5V216.125H120.75V198.856Z" fill="#202021" stroke="#202021" stroke-miterlimit="10"/>
<path d="M138 181.588H120.75V198.856H138V181.588Z" fill="#202021" stroke="#202021" stroke-miterlimit="10"/>
<path d="M138 164.32H120.75V181.588H138V164.32Z" fill="#202021" stroke="#202021" stroke-miterlimit="10"/>
<path d="M138 147.051H120.75V164.32H138V147.051Z" fill="#202021" stroke="#202021" stroke-miterlimit="10"/>
<path d="M155.25 129.783H138V147.051H155.25V129.783Z" fill="#202021" stroke="#202021" stroke-miterlimit="10"/>
<path d="M155.25 112.515H138V129.783H155.25V112.515Z" fill="#202021" stroke="#202021" stroke-miterlimit="10"/>
<path d="M155.25 95.2465H138V112.515H155.25V95.2465Z" fill="#202021" stroke="#202021" stroke-miterlimit="10"/>
<path d="M189.75 129.783H172.5V147.051H189.75V129.783Z" fill="#202021" stroke="#202021" stroke-miterlimit="10"/>
<path d="M189.75 112.515H172.5V129.783H189.75V112.515Z" fill="#202021" stroke="#202021" stroke-miterlimit="10"/>
<path d="M189.75 95.2465H172.5V112.515H189.75V95.2465Z" fill="#202021" stroke="#202021" stroke-miterlimit="10"/>
<path d="M207 129.783H189.75V147.051H207V129.783Z" fill="#202021" stroke="#202021" stroke-miterlimit="10"/>
<path d="M207 112.515H189.75V129.783H207V112.515Z" fill="#202021" stroke="#202021" stroke-miterlimit="10"/>
<path d="M207 95.2465H189.75V112.515H207V95.2465Z" fill="#202021" stroke="#202021" stroke-miterlimit="10"/>
<path d="M207 181.588H189.75V198.856H207V181.588Z" fill="#202021" stroke="#202021" stroke-miterlimit="10"/>
<path d="M207 164.32H189.75V181.588H207V164.32Z" fill="#202021" stroke="#202021" stroke-miterlimit="10"/>
<path d="M207 147.051H189.75V164.32H207V147.051Z" fill="#202021" stroke="#202021" stroke-miterlimit="10"/>
<path d="M224.25 181.588H207V198.856H224.25V181.588Z" fill="#202021" stroke="#202021" stroke-miterlimit="10"/>
<path d="M224.25 164.32H207V181.588H224.25V164.32Z" fill="#202021" stroke="#202021" stroke-miterlimit="10"/>
<path d="M224.25 147.051H207V164.32H224.25V147.051Z" fill="#202021" stroke="#202021" stroke-miterlimit="10"/>
<path d="M224.25 233.393H207V250.661H224.25V233.393Z" fill="#202021" stroke="#202021" stroke-miterlimit="10"/>
<path d="M224.25 216.125H207V233.393H224.25V216.125Z" fill="#202021" stroke="#202021" stroke-miterlimit="10"/>
<path d="M224.25 198.856H207V216.125H224.25V198.856Z" fill="#202021" stroke="#202021" stroke-miterlimit="10"/>
<path d="M241.5 233.393H224.25V250.661H241.5V233.393Z" fill="#202021" stroke="#202021" stroke-miterlimit="10"/>
<path d="M241.5 216.125H224.25V233.393H241.5V216.125Z" fill="#202021" stroke="#202021" stroke-miterlimit="10"/>
<path d="M241.5 198.856H224.25V216.125H241.5V198.856Z" fill="#202021" stroke="#202021" stroke-miterlimit="10"/>
<path d="M241.5 285.198H224.25V302.466H241.5V285.198Z" fill="#202021" stroke="#202021" stroke-miterlimit="10"/>
<path d="M241.5 302.466H224.25V319.734H241.5V302.466Z" fill="#202021" stroke="#202021" stroke-miterlimit="10"/>
<path d="M241.5 267.929H224.25V285.198H241.5V267.929Z" fill="#202021" stroke="#202021" stroke-miterlimit="10"/>
<path d="M241.5 250.661H224.25V267.929H241.5V250.661Z" fill="#202021" stroke="#202021" stroke-miterlimit="10"/>
<path d="M258.75 285.198H241.5V302.466H258.75V285.198Z" fill="#202021" stroke="#202021" stroke-miterlimit="10"/>
<path d="M258.75 302.466H241.5V319.734H258.75V302.466Z" fill="#202021" stroke="#202021" stroke-miterlimit="10"/>
<path d="M258.75 267.929H241.5V285.198H258.75V267.929Z" fill="#202021" stroke="#202021" stroke-miterlimit="10"/>
<path d="M258.75 250.661H241.5V267.929H258.75V250.661Z" fill="#202021" stroke="#202021" stroke-miterlimit="10"/>
<path d="M172.5 77.9782H155.25V95.2465H172.5V77.9782Z" fill="#202021" stroke="#202021" stroke-miterlimit="10"/>
<path d="M172.5 60.7099H155.25V77.9782H172.5V60.7099Z" fill="#202021" stroke="#202021" stroke-miterlimit="10"/>
<path d="M172.5 43.4416H155.25V60.7099H172.5V43.4416Z" fill="#202021" stroke="#202021" stroke-miterlimit="10"/>
<path d="M189.75 77.9782H172.5V95.2465H189.75V77.9782Z" fill="#202021" stroke="#202021" stroke-miterlimit="10"/>
<path d="M189.75 60.7099H172.5V77.9782H189.75V60.7099Z" fill="#202021" stroke="#202021" stroke-miterlimit="10"/>
<path d="M189.75 43.4416H172.5V60.7099H189.75V43.4416Z" fill="#202021" stroke="#202021" stroke-miterlimit="10"/>
<path d="M189.75 26.1733H172.5V43.4416H189.75V26.1733Z" fill="#202021" stroke="#202021" stroke-miterlimit="10"/>
<path d="M293.25 427.661H276V444.929H293.25V427.661Z" fill="#202021" stroke="#202021" stroke-miterlimit="10"/>
<path d="M293.25 444.929H276V462.198H293.25V444.929Z" fill="#202021" stroke="#202021" stroke-miterlimit="10"/>
<path d="M276 427.661H258.75V444.929H276V427.661Z" fill="#202021" stroke="#202021" stroke-miterlimit="10"/>
<path d="M276 410.393H258.75V427.661H276V410.393Z" fill="#202021" stroke="#202021" stroke-miterlimit="10"/>
<path d="M258.75 410.393H241.5V427.661H258.75V410.393Z" fill="#202021" stroke="#202021" stroke-miterlimit="10"/>
<path d="M258.75 393.125H241.5V410.393H258.75V393.125Z" fill="#202021" stroke="#202021" stroke-miterlimit="10"/>
<path d="M241.5 669.417H224.25V686.685H241.5V669.417Z" fill="#202021" stroke="#202021" stroke-miterlimit="10"/>
<path d="M224.25 669.417H207V686.685H224.25V669.417Z" fill="#202021" stroke="#202021" stroke-miterlimit="10"/>
<path d="M207 669.417H189.75V686.685H207V669.417Z" fill="#202021" stroke="#202021" stroke-miterlimit="10"/>
<path d="M189.75 669.417H172.5V686.685H189.75V669.417Z" fill="#202021" stroke="#202021" stroke-miterlimit="10"/>
<path d="M172.5 669.417H155.25V686.685H172.5V669.417Z" fill="#202021" stroke="#202021" stroke-miterlimit="10"/>
<path d="M155.25 669.417H138V686.685H155.25V669.417Z" fill="#202021" stroke="#202021" stroke-miterlimit="10"/>
<path d="M138 669.417H120.75V686.685H138V669.417Z" fill="#202021" stroke="#202021" stroke-miterlimit="10"/>
<path d="M120.75 669.417H103.5V686.685H120.75V669.417Z" fill="#202021" stroke="#202021" stroke-miterlimit="10"/>
<path d="M103.5 669.417H86.25V686.685H103.5V669.417Z" fill="#202021" stroke="#202021" stroke-miterlimit="10"/>
<path d="M103.5 652.149H86.25V669.417H103.5V652.149Z" fill="#202021" stroke="#202021" stroke-miterlimit="10"/>
<path d="M86.25 652.149H69V669.417H86.25V652.149Z" fill="#202021" stroke="#202021" stroke-miterlimit="10"/>
<path d="M86.25 634.881H69V652.149H86.25V634.881Z" fill="#202021" stroke="#202021" stroke-miterlimit="10"/>
<path d="M69 634.881H51.75V652.149H69V634.881Z" fill="#202021" stroke="#202021" stroke-miterlimit="10"/>
<path d="M69 617.612H51.75V634.881H69V617.612Z" fill="#202021" stroke="#202021" stroke-miterlimit="10"/>
<path d="M86.25 427.661H69V444.929H86.25V427.661Z" fill="#202021" stroke="#202021" stroke-miterlimit="10"/>
<path d="M86.25 410.393H69V427.661H86.25V410.393Z" fill="#202021" stroke="#202021" stroke-miterlimit="10"/>
<path d="M69 427.661H51.75V444.929H69V427.661Z" fill="#202021" stroke="#202021" stroke-miterlimit="10"/>
<path d="M69 444.929H51.75V462.198H69V444.929Z" fill="#202021" stroke="#202021" stroke-miterlimit="10"/>
<path d="M69 462.198H51.75V479.466H69V462.198Z" fill="#202021" stroke="#202021" stroke-miterlimit="10"/>
<path d="M86.25 444.929H69V462.198H86.25V444.929Z" fill="#202021" stroke="#202021" stroke-miterlimit="10"/>
<path d="M86.25 462.198H69V479.466H86.25V462.198Z" fill="#202021" stroke="#202021" stroke-miterlimit="10"/>
<path d="M86.25 479.466H69V496.734H86.25V479.466Z" fill="#202021" stroke="#202021" stroke-miterlimit="10"/>
<path d="M86.25 496.734H69V514.003H86.25V496.734Z" fill="#202021" stroke="#202021" stroke-miterlimit="10"/>
<path d="M69 479.466H51.75V496.734H69V479.466Z" fill="#202021" stroke="#202021" stroke-miterlimit="10"/>
<path d="M103.5 496.734H86.25V514.003H103.5V496.734Z" fill="#202021" stroke="#202021" stroke-miterlimit="10"/>
<path d="M120.75 496.734H103.5V514.003H120.75V496.734Z" fill="#202021" stroke="#202021" stroke-miterlimit="10"/>
<path d="M103.5 479.466H86.25V496.734H103.5V479.466Z" fill="#202021" stroke="#202021" stroke-miterlimit="10"/>
<path d="M207 531.271H189.75V548.539H207V531.271Z" fill="#202021" stroke="#202021" stroke-miterlimit="10"/>
<path d="M103.5 514.003H86.25V531.271H103.5V514.003Z" fill="#202021" stroke="#202021" stroke-miterlimit="10"/>
<path d="M120.75 514.003H103.5V531.271H120.75V514.003Z" fill="#202021" stroke="#202021" stroke-miterlimit="10"/>
<path d="M138 514.003H120.75V531.271H138V514.003Z" fill="#202021" stroke="#202021" stroke-miterlimit="10"/>
<path d="M155.25 514.003H138V531.271H155.25V514.003Z" fill="#202021" stroke="#202021" stroke-miterlimit="10"/>
<path d="M155.25 531.271H138V548.539H155.25V531.271Z" fill="#202021" stroke="#202021" stroke-miterlimit="10"/>
<path d="M138 531.271H120.75V548.539H138V531.271Z" fill="#202021" stroke="#202021" stroke-miterlimit="10"/>
<path d="M189.75 548.539H172.5V565.807H189.75V548.539Z" fill="#202021" stroke="#202021" stroke-miterlimit="10"/>
<path d="M207 548.539H189.75V565.807H207V548.539Z" fill="#202021" stroke="#202021" stroke-miterlimit="10"/>
<path d="M224.25 565.807H207V583.076H224.25V565.807Z" fill="#202021" stroke="#202021" stroke-miterlimit="10"/>
<path d="M241.5 583.076H224.25V600.344H241.5V583.076Z" fill="#202021" stroke="#202021" stroke-miterlimit="10"/>
<path d="M241.5 565.807H224.25V583.076H241.5V565.807Z" fill="#202021" stroke="#202021" stroke-miterlimit="10"/>
<path d="M258.75 583.076H241.5V600.344H258.75V583.076Z" fill="#202021" stroke="#202021" stroke-miterlimit="10"/>
<path d="M276 600.344H258.75V617.612H276V600.344Z" fill="#202021" stroke="#202021" stroke-miterlimit="10"/>
<path d="M276 617.612H258.75V634.881H276V617.612Z" fill="#202021" stroke="#202021" stroke-miterlimit="10"/>
<path d="M293.25 617.612H276V634.881H293.25V617.612Z" fill="#202021" stroke="#202021" stroke-miterlimit="10"/>
<path d="M293.25 600.344H276V617.612H293.25V600.344Z" fill="#202021" stroke="#202021" stroke-miterlimit="10"/>
<path d="M293.25 583.076H276V600.344H293.25V583.076Z" fill="#202021" stroke="#202021" stroke-miterlimit="10"/>
<path d="M276 583.076H258.75V600.344H276V583.076Z" fill="#202021" stroke="#202021" stroke-miterlimit="10"/>
<path d="M258.75 565.807H241.5V583.076H258.75V565.807Z" fill="#202021" stroke="#202021" stroke-miterlimit="10"/>
<path d="M224.25 548.539H207V565.807H224.25V548.539Z" fill="#202021" stroke="#202021" stroke-miterlimit="10"/>
<path d="M276 634.881H258.75V652.149H276V634.881Z" fill="#202021" stroke="#202021" stroke-miterlimit="10"/>
<path d="M276 652.149H258.75V669.417H276V652.149Z" fill="#202021" stroke="#202021" stroke-miterlimit="10"/>
<path d="M293.25 634.881H276V652.149H293.25V634.881Z" fill="#202021" stroke="#202021" stroke-miterlimit="10"/>
<path d="M293.25 652.149H276V669.417H293.25V652.149Z" fill="#202021" stroke="#202021" stroke-miterlimit="10"/>
<path d="M276 669.417H258.75V686.685H276V669.417Z" fill="#202021" stroke="#202021" stroke-miterlimit="10"/>
<path d="M258.75 652.149H241.5V669.417H258.75V652.149Z" fill="#202021" stroke="#202021" stroke-miterlimit="10"/>
<path d="M258.75 669.417H241.5V686.685H258.75V669.417Z" fill="#202021" stroke="#202021" stroke-miterlimit="10"/>
<path d="M224.25 393.125H207V410.393H224.25V393.125Z" fill="#202021" stroke="#202021" stroke-miterlimit="10"/>
<path d="M207 393.125H189.75V410.393H207V393.125Z" fill="#202021" stroke="#202021" stroke-miterlimit="10"/>
<path d="M189.75 393.125H172.5V410.393H189.75V393.125Z" fill="#202021" stroke="#202021" stroke-miterlimit="10"/>
<path d="M172.5 393.125H155.25V410.393H172.5V393.125Z" fill="#202021" stroke="#202021" stroke-miterlimit="10"/>
<path d="M155.25 393.125H138V410.393H155.25V393.125Z" fill="#202021" stroke="#202021" stroke-miterlimit="10"/>
<path d="M138 393.125H120.75V410.393H138V393.125Z" fill="#202021" stroke="#202021" stroke-miterlimit="10"/>
<path d="M120.75 393.125H103.5V410.393H120.75V393.125Z" fill="#202021" stroke="#202021" stroke-miterlimit="10"/>
<path d="M103.5 393.125H86.25V410.393H103.5V393.125Z" fill="#202021" stroke="#202021" stroke-miterlimit="10"/>
<path d="M103.5 410.393H86.25V427.661H103.5V410.393Z" fill="#202021" stroke="#202021" stroke-miterlimit="10"/>
<path d="M241.5 393.125H224.25V410.393H241.5V393.125Z" fill="#202021" stroke="#202021" stroke-miterlimit="10"/>
<path d="M207 565.807H189.75V583.076H207V565.807Z" fill="#202021" stroke="#202021" stroke-miterlimit="10"/>
<path d="M241.5 548.539H224.25V565.807H241.5V548.539Z" fill="#202021" stroke="#202021" stroke-miterlimit="10"/>
<path d="M172.5 531.271H155.25V548.539H172.5V531.271Z" fill="#202021" stroke="#202021" stroke-miterlimit="10"/>
<path d="M172.5 514.003H155.25V531.271H172.5V514.003Z" fill="#202021" stroke="#202021" stroke-miterlimit="10"/>
<path d="M172.5 548.539H155.25V565.807H172.5V548.539Z" fill="#202021" stroke="#202021" stroke-miterlimit="10"/>
<path d="M189.75 531.271H172.5V548.539H189.75V531.271Z" fill="#202021" stroke="#202021" stroke-miterlimit="10"/>
<path d="M51.75 1027.73H34.5V1045H51.75V1027.73Z" fill="#202021" stroke="#202021" stroke-miterlimit="10"/>
<path d="M69 1027.73H51.75V1045H69V1027.73Z" fill="#202021" stroke="#202021" stroke-miterlimit="10"/>
<path d="M86.25 1027.73H69V1045H86.25V1027.73Z" fill="#202021" stroke="#202021" stroke-miterlimit="10"/>
<path d="M103.5 1027.73H86.25V1045H103.5V1027.73Z" fill="#202021" stroke="#202021" stroke-miterlimit="10"/>
<path d="M120.75 1027.73H103.5V1045H120.75V1027.73Z" fill="#202021" stroke="#202021" stroke-miterlimit="10"/>
<path d="M241.5 1027.73H224.25V1045H241.5V1027.73Z" fill="#202021" stroke="#202021" stroke-miterlimit="10"/>
<path d="M258.75 1027.73H241.5V1045H258.75V1027.73Z" fill="#202021" stroke="#202021" stroke-miterlimit="10"/>
<path d="M276 1027.73H258.75V1045H276V1027.73Z" fill="#202021" stroke="#202021" stroke-miterlimit="10"/>
<path d="M293.25 1027.73H276V1045H293.25V1027.73Z" fill="#202021" stroke="#202021" stroke-miterlimit="10"/>
<path d="M310.5 1027.73H293.25V1045H310.5V1027.73Z" fill="#202021" stroke="#202021" stroke-miterlimit="10"/>
<path d="M51.75 751.442H34.5V768.71H51.75V751.442Z" fill="#202021" stroke="#202021" stroke-miterlimit="10"/>
<path d="M69 751.442H51.75V768.71H69V751.442Z" fill="#202021" stroke="#202021" stroke-miterlimit="10"/>
<path d="M86.25 751.442H69V768.71H86.25V751.442Z" fill="#202021" stroke="#202021" stroke-miterlimit="10"/>
<path d="M103.5 751.442H86.25V768.71H103.5V751.442Z" fill="#202021" stroke="#202021" stroke-miterlimit="10"/>
<path d="M120.75 751.442H103.5V768.71H120.75V751.442Z" fill="#202021" stroke="#202021" stroke-miterlimit="10"/>
<path d="M103.5 768.71H86.25V785.978H103.5V768.71Z" fill="#202021" stroke="#202021" stroke-miterlimit="10"/>
<path d="M103.5 785.978H86.25V803.246H103.5V785.978Z" fill="#202021" stroke="#202021" stroke-miterlimit="10"/>
<path d="M103.5 803.247H86.25V820.515H103.5V803.247Z" fill="#202021" stroke="#202021" stroke-miterlimit="10"/>
<path d="M120.75 768.71H103.5V785.978H120.75V768.71Z" fill="#202021" stroke="#202021" stroke-miterlimit="10"/>
<path d="M120.75 785.978H103.5V803.246H120.75V785.978Z" fill="#202021" stroke="#202021" stroke-miterlimit="10"/>
<path d="M120.75 803.247H103.5V820.515H120.75V803.247Z" fill="#202021" stroke="#202021" stroke-miterlimit="10"/>
<path d="M276 751.442H258.75V768.71H276V751.442Z" fill="#202021" stroke="#202021" stroke-miterlimit="10"/>
<path d="M258.75 751.442H241.5V768.71H258.75V751.442Z" fill="#202021" stroke="#202021" stroke-miterlimit="10"/>
<path d="M293.25 751.442H276V768.71H293.25V751.442Z" fill="#202021" stroke="#202021" stroke-miterlimit="10"/>
<path d="M310.5 751.442H293.25V768.71H310.5V751.442Z" fill="#202021" stroke="#202021" stroke-miterlimit="10"/>
<path d="M327.75 751.442H310.5V768.71H327.75V751.442Z" fill="#202021" stroke="#202021" stroke-miterlimit="10"/>
<path d="M276 768.71H258.75V785.978H276V768.71Z" fill="#202021" stroke="#202021" stroke-miterlimit="10"/>
<path d="M276 785.978H258.75V803.246H276V785.978Z" fill="#202021" stroke="#202021" stroke-miterlimit="10"/>
<path d="M276 803.247H258.75V820.515H276V803.247Z" fill="#202021" stroke="#202021" stroke-miterlimit="10"/>
<path d="M293.25 768.71H276V785.978H293.25V768.71Z" fill="#202021" stroke="#202021" stroke-miterlimit="10"/>
<path d="M293.25 785.978H276V803.246H293.25V785.978Z" fill="#202021" stroke="#202021" stroke-miterlimit="10"/>
<path d="M293.25 803.247H276V820.515H293.25V803.247Z" fill="#202021" stroke="#202021" stroke-miterlimit="10"/>
<path d="M276 820.515H258.75V837.783H276V820.515Z" fill="#202021" stroke="#202021" stroke-miterlimit="10"/>
<path d="M276 837.783H258.75V855.051H276V837.783Z" fill="#202021" stroke="#202021" stroke-miterlimit="10"/>
<path d="M276 855.051H258.75V872.32H276V855.051Z" fill="#202021" stroke="#202021" stroke-miterlimit="10"/>
<path d="M293.25 820.515H276V837.783H293.25V820.515Z" fill="#202021" stroke="#202021" stroke-miterlimit="10"/>
<path d="M293.25 837.783H276V855.051H293.25V837.783Z" fill="#202021" stroke="#202021" stroke-miterlimit="10"/>
<path d="M293.25 855.051H276V872.32H293.25V855.051Z" fill="#202021" stroke="#202021" stroke-miterlimit="10"/>
<path d="M276 872.32H258.75V889.588H276V872.32Z" fill="#202021" stroke="#202021" stroke-miterlimit="10"/>
<path d="M276 889.588H258.75V906.856H276V889.588Z" fill="#202021" stroke="#202021" stroke-miterlimit="10"/>
<path d="M276 906.856H258.75V924.124H276V906.856Z" fill="#202021" stroke="#202021" stroke-miterlimit="10"/>
<path d="M293.25 872.32H276V889.588H293.25V872.32Z" fill="#202021" stroke="#202021" stroke-miterlimit="10"/>
<path d="M293.25 889.588H276V906.856H293.25V889.588Z" fill="#202021" stroke="#202021" stroke-miterlimit="10"/>
<path d="M293.25 906.856H276V924.124H293.25V906.856Z" fill="#202021" stroke="#202021" stroke-miterlimit="10"/>
<path d="M276 924.125H258.75V941.393H276V924.125Z" fill="#202021" stroke="#202021" stroke-miterlimit="10"/>
<path d="M276 941.393H258.75V958.661H276V941.393Z" fill="#202021" stroke="#202021" stroke-miterlimit="10"/>
<path d="M276 958.661H258.75V975.929H276V958.661Z" fill="#202021" stroke="#202021" stroke-miterlimit="10"/>
<path d="M293.25 924.125H276V941.393H293.25V924.125Z" fill="#202021" stroke="#202021" stroke-miterlimit="10"/>
<path d="M293.25 941.393H276V958.661H293.25V941.393Z" fill="#202021" stroke="#202021" stroke-miterlimit="10"/>
<path d="M293.25 958.661H276V975.929H293.25V958.661Z" fill="#202021" stroke="#202021" stroke-miterlimit="10"/>
<path d="M276 975.929H258.75V993.198H276V975.929Z" fill="#202021" stroke="#202021" stroke-miterlimit="10"/>
<path d="M276 993.198H258.75V1010.47H276V993.198Z" fill="#202021" stroke="#202021" stroke-miterlimit="10"/>
<path d="M276 1010.47H258.75V1027.73H276V1010.47Z" fill="#202021" stroke="#202021" stroke-miterlimit="10"/>
<path d="M293.25 975.929H276V993.198H293.25V975.929Z" fill="#202021" stroke="#202021" stroke-miterlimit="10"/>
<path d="M293.25 993.198H276V1010.47H293.25V993.198Z" fill="#202021" stroke="#202021" stroke-miterlimit="10"/>
<path d="M293.25 1010.47H276V1027.73H293.25V1010.47Z" fill="#202021" stroke="#202021" stroke-miterlimit="10"/>
<path d="M138 820.515H120.75V837.783H138V820.515Z" fill="#202021" stroke="#202021" stroke-miterlimit="10"/>
<path d="M138 837.783H120.75V855.051H138V837.783Z" fill="#202021" stroke="#202021" stroke-miterlimit="10"/>
<path d="M138 855.051H120.75V872.32H138V855.051Z" fill="#202021" stroke="#202021" stroke-miterlimit="10"/>
<path d="M120.75 820.515H103.5V837.783H120.75V820.515Z" fill="#202021" stroke="#202021" stroke-miterlimit="10"/>
<path d="M120.75 837.783H103.5V855.051H120.75V837.783Z" fill="#202021" stroke="#202021" stroke-miterlimit="10"/>
<path d="M120.75 855.051H103.5V872.32H120.75V855.051Z" fill="#202021" stroke="#202021" stroke-miterlimit="10"/>
<path d="M155.25 872.32H138V889.588H155.25V872.32Z" fill="#202021" stroke="#202021" stroke-miterlimit="10"/>
<path d="M155.25 889.588H138V906.856H155.25V889.588Z" fill="#202021" stroke="#202021" stroke-miterlimit="10"/>
<path d="M155.25 906.856H138V924.124H155.25V906.856Z" fill="#202021" stroke="#202021" stroke-miterlimit="10"/>
<path d="M138 872.32H120.75V889.588H138V872.32Z" fill="#202021" stroke="#202021" stroke-miterlimit="10"/>
<path d="M138 889.588H120.75V906.856H138V889.588Z" fill="#202021" stroke="#202021" stroke-miterlimit="10"/>
<path d="M138 906.856H120.75V924.124H138V906.856Z" fill="#202021" stroke="#202021" stroke-miterlimit="10"/>
<path d="M172.5 924.125H155.25V941.393H172.5V924.125Z" fill="#202021" stroke="#202021" stroke-miterlimit="10"/>
<path d="M172.5 941.393H155.25V958.661H172.5V941.393Z" fill="#202021" stroke="#202021" stroke-miterlimit="10"/>
<path d="M172.5 958.661H155.25V975.929H172.5V958.661Z" fill="#202021" stroke="#202021" stroke-miterlimit="10"/>
<path d="M155.25 924.125H138V941.393H155.25V924.125Z" fill="#202021" stroke="#202021" stroke-miterlimit="10"/>
<path d="M155.25 941.393H138V958.661H155.25V941.393Z" fill="#202021" stroke="#202021" stroke-miterlimit="10"/>
<path d="M155.25 958.661H138V975.929H155.25V958.661Z" fill="#202021" stroke="#202021" stroke-miterlimit="10"/>
<path d="M189.75 975.929H172.5V993.198H189.75V975.929Z" fill="#202021" stroke="#202021" stroke-miterlimit="10"/>
<path d="M189.75 993.198H172.5V1010.47H189.75V993.198Z" fill="#202021" stroke="#202021" stroke-miterlimit="10"/>
<path d="M189.75 1010.47H172.5V1027.73H189.75V1010.47Z" fill="#202021" stroke="#202021" stroke-miterlimit="10"/>
<path d="M207 924.125H189.75V941.393H207V924.125Z" fill="#202021" stroke="#202021" stroke-miterlimit="10"/>
<path d="M207 941.393H189.75V958.661H207V941.393Z" fill="#202021" stroke="#202021" stroke-miterlimit="10"/>
<path d="M207 958.661H189.75V975.929H207V958.661Z" fill="#202021" stroke="#202021" stroke-miterlimit="10"/>
<path d="M224.25 872.32H207V889.588H224.25V872.32Z" fill="#202021" stroke="#202021" stroke-miterlimit="10"/>
<path d="M224.25 889.588H207V906.856H224.25V889.588Z" fill="#202021" stroke="#202021" stroke-miterlimit="10"/>
<path d="M224.25 906.856H207V924.124H224.25V906.856Z" fill="#202021" stroke="#202021" stroke-miterlimit="10"/>
<path d="M241.5 820.515H224.25V837.783H241.5V820.515Z" fill="#202021" stroke="#202021" stroke-miterlimit="10"/>
<path d="M241.5 837.783H224.25V855.051H241.5V837.783Z" fill="#202021" stroke="#202021" stroke-miterlimit="10"/>
<path d="M241.5 855.051H224.25V872.32H241.5V855.051Z" fill="#202021" stroke="#202021" stroke-miterlimit="10"/>
<path d="M258.75 768.71H241.5V785.978H258.75V768.71Z" fill="#202021" stroke="#202021" stroke-miterlimit="10"/>
<path d="M258.75 785.978H241.5V803.246H258.75V785.978Z" fill="#202021" stroke="#202021" stroke-miterlimit="10"/>
<path d="M258.75 803.247H241.5V820.515H258.75V803.247Z" fill="#202021" stroke="#202021" stroke-miterlimit="10"/>
<path d="M172.5 975.929H155.25V993.198H172.5V975.929Z" fill="#202021" stroke="#202021" stroke-miterlimit="10"/>
<path d="M172.5 993.198H155.25V1010.47H172.5V993.198Z" fill="#202021" stroke="#202021" stroke-miterlimit="10"/>
<path d="M172.5 1010.47H155.25V1027.73H172.5V1010.47Z" fill="#202021" stroke="#202021" stroke-miterlimit="10"/>
<path d="M86.25 941.393H69V958.661H86.25V941.393Z" fill="#202021" stroke="#202021" stroke-miterlimit="10"/>
<path d="M86.25 958.661H69V975.929H86.25V958.661Z" fill="#202021" stroke="#202021" stroke-miterlimit="10"/>
<path d="M86.25 975.929H69V993.198H86.25V975.929Z" fill="#202021" stroke="#202021" stroke-miterlimit="10"/>
<path d="M86.25 993.198H69V1010.47H86.25V993.198Z" fill="#202021" stroke="#202021" stroke-miterlimit="10"/>
<path d="M86.25 1010.47H69V1027.73H86.25V1010.47Z" fill="#202021" stroke="#202021" stroke-miterlimit="10"/>
<path d="M86.25 855.051H69V872.32H86.25V855.051Z" fill="#202021" stroke="#202021" stroke-miterlimit="10"/>
<path d="M86.25 872.32H69V889.588H86.25V872.32Z" fill="#202021" stroke="#202021" stroke-miterlimit="10"/>
<path d="M86.25 889.588H69V906.856H86.25V889.588Z" fill="#202021" stroke="#202021" stroke-miterlimit="10"/>
<path d="M86.25 906.856H69V924.124H86.25V906.856Z" fill="#202021" stroke="#202021" stroke-miterlimit="10"/>
<path d="M86.25 924.125H69V941.393H86.25V924.125Z" fill="#202021" stroke="#202021" stroke-miterlimit="10"/>
<path d="M86.25 768.71H69V785.978H86.25V768.71Z" fill="#202021" stroke="#202021" stroke-miterlimit="10"/>
<path d="M86.25 785.978H69V803.246H86.25V785.978Z" fill="#202021" stroke="#202021" stroke-miterlimit="10"/>
<path d="M86.25 803.247H69V820.515H86.25V803.247Z" fill="#202021" stroke="#202021" stroke-miterlimit="10"/>
<path d="M86.25 820.515H69V837.783H86.25V820.515Z" fill="#202021" stroke="#202021" stroke-miterlimit="10"/>
<path d="M86.25 837.783H69V855.051H86.25V837.783Z" fill="#202021" stroke="#202021" stroke-miterlimit="10"/>
</g>
<defs>
<clipPath id="clip0_404_2">
<rect width="345" height="1062" fill="white" transform="translate(0 0.270874)"/>
</clipPath>
</defs>
</svg>
